G04 #@! TF.GenerationSoftware,KiCad,Pcbnew,(5.0.0)*
G04 #@! TF.CreationDate,2018-11-20T12:56:54-05:00*
G04 #@! TF.ProjectId,BsidesRock2019,427369646573526F636B323031392E6B,rev?*
G04 #@! TF.SameCoordinates,Original*
G04 #@! TF.FileFunction,Other,Fab,Top*
%FSLAX46Y46*%
G04 Gerber Fmt 4.6, Leading zero omitted, Abs format (unit mm)*
G04 Created by KiCad (PCBNEW (5.0.0)) date 11/20/18 12:56:54*
%MOMM*%
%LPD*%
G01*
G04 APERTURE LIST*
%ADD10C,0.150000*%
%ADD11C,0.100000*%
%ADD12C,0.080000*%
G04 APERTURE END LIST*
D10*
G04 #@! TO.C,U1*
X144400000Y-55008000D02*
X148700000Y-55008000D01*
X148700000Y-55008000D02*
X148700000Y-60308000D01*
X148700000Y-60308000D02*
X143400000Y-60308000D01*
X143400000Y-60308000D02*
X143400000Y-56008000D01*
X143400000Y-56008000D02*
X144400000Y-55008000D01*
D11*
G04 #@! TO.C,D8*
X163433000Y-64100000D02*
X163433000Y-62900000D01*
X161433000Y-64100000D02*
X163433000Y-64100000D01*
X161433000Y-63200000D02*
X161433000Y-64100000D01*
X161733000Y-62900000D02*
X161433000Y-63200000D01*
X163433000Y-62900000D02*
X161733000Y-62900000D01*
G04 #@! TO.C,D1*
X125130000Y-58563000D02*
X125130000Y-60263000D01*
X125130000Y-60263000D02*
X125430000Y-60563000D01*
X125430000Y-60563000D02*
X126330000Y-60563000D01*
X126330000Y-60563000D02*
X126330000Y-58563000D01*
X126330000Y-58563000D02*
X125130000Y-58563000D01*
G04 #@! TO.C,D3*
X130667000Y-56226000D02*
X130667000Y-55026000D01*
X128667000Y-56226000D02*
X130667000Y-56226000D01*
X128667000Y-55326000D02*
X128667000Y-56226000D01*
X128967000Y-55026000D02*
X128667000Y-55326000D01*
X130667000Y-55026000D02*
X128967000Y-55026000D01*
G04 #@! TO.C,D4*
X130667000Y-62900000D02*
X128967000Y-62900000D01*
X128967000Y-62900000D02*
X128667000Y-63200000D01*
X128667000Y-63200000D02*
X128667000Y-64100000D01*
X128667000Y-64100000D02*
X130667000Y-64100000D01*
X130667000Y-64100000D02*
X130667000Y-62900000D01*
G04 #@! TO.C,D5*
X134331000Y-58572000D02*
X133131000Y-58572000D01*
X134331000Y-60572000D02*
X134331000Y-58572000D01*
X133431000Y-60572000D02*
X134331000Y-60572000D01*
X133131000Y-60272000D02*
X133431000Y-60572000D01*
X133131000Y-58572000D02*
X133131000Y-60272000D01*
G04 #@! TO.C,D6*
X157896000Y-58563000D02*
X157896000Y-60263000D01*
X157896000Y-60263000D02*
X158196000Y-60563000D01*
X158196000Y-60563000D02*
X159096000Y-60563000D01*
X159096000Y-60563000D02*
X159096000Y-58563000D01*
X159096000Y-58563000D02*
X157896000Y-58563000D01*
G04 #@! TO.C,D7*
X163433000Y-56226000D02*
X163433000Y-55026000D01*
X161433000Y-56226000D02*
X163433000Y-56226000D01*
X161433000Y-55326000D02*
X161433000Y-56226000D01*
X161733000Y-55026000D02*
X161433000Y-55326000D01*
X163433000Y-55026000D02*
X161733000Y-55026000D01*
G04 #@! TO.C,D10*
X166970000Y-60563000D02*
X166970000Y-58863000D01*
X166970000Y-58863000D02*
X166670000Y-58563000D01*
X166670000Y-58563000D02*
X165770000Y-58563000D01*
X165770000Y-58563000D02*
X165770000Y-60563000D01*
X165770000Y-60563000D02*
X166970000Y-60563000D01*
G04 #@! TO.C,D9*
X163814000Y-79975000D02*
X163814000Y-78775000D01*
X161814000Y-79975000D02*
X163814000Y-79975000D01*
X161814000Y-79075000D02*
X161814000Y-79975000D01*
X162114000Y-78775000D02*
X161814000Y-79075000D01*
X163814000Y-78775000D02*
X162114000Y-78775000D01*
G04 #@! TO.C,D2*
X130413000Y-78775000D02*
X128713000Y-78775000D01*
X128713000Y-78775000D02*
X128413000Y-79075000D01*
X128413000Y-79075000D02*
X128413000Y-79975000D01*
X128413000Y-79975000D02*
X130413000Y-79975000D01*
X130413000Y-79975000D02*
X130413000Y-78775000D01*
G04 #@! TO.C,J2*
X90500000Y-1500000D02*
X140500000Y-1500000D01*
X140500000Y-1500000D02*
X140500000Y-51500000D01*
X90500000Y-1500000D02*
X90500000Y-51500000D01*
X90500000Y-51500000D02*
X140500000Y-51500000D01*
X151900000Y-1400000D02*
X201900000Y-1400000D01*
X201900000Y-1400000D02*
X201900000Y-51400000D01*
X151900000Y-1400000D02*
X151900000Y-51400000D01*
X151900000Y-51400000D02*
X201900000Y-51400000D01*
G04 #@! TD*
G04 #@! TO.C,U1*
D10*
X140121428Y-61504666D02*
X140597619Y-61504666D01*
X140026190Y-61790380D02*
X140359523Y-60790380D01*
X140692857Y-61790380D01*
X140883333Y-60790380D02*
X141454761Y-60790380D01*
X141169047Y-61790380D02*
X141169047Y-60790380D01*
X141645238Y-61123714D02*
X142026190Y-61123714D01*
X141788095Y-60790380D02*
X141788095Y-61647523D01*
X141835714Y-61742761D01*
X141930952Y-61790380D01*
X142026190Y-61790380D01*
X142359523Y-61790380D02*
X142359523Y-61123714D01*
X142359523Y-60790380D02*
X142311904Y-60838000D01*
X142359523Y-60885619D01*
X142407142Y-60838000D01*
X142359523Y-60790380D01*
X142359523Y-60885619D01*
X142835714Y-61123714D02*
X142835714Y-61790380D01*
X142835714Y-61218952D02*
X142883333Y-61171333D01*
X142978571Y-61123714D01*
X143121428Y-61123714D01*
X143216666Y-61171333D01*
X143264285Y-61266571D01*
X143264285Y-61790380D01*
X143645238Y-61123714D02*
X143883333Y-61790380D01*
X144121428Y-61123714D02*
X143883333Y-61790380D01*
X143788095Y-62028476D01*
X143740476Y-62076095D01*
X143645238Y-62123714D01*
X144645238Y-61218952D02*
X144550000Y-61171333D01*
X144502380Y-61123714D01*
X144454761Y-61028476D01*
X144454761Y-60980857D01*
X144502380Y-60885619D01*
X144550000Y-60838000D01*
X144645238Y-60790380D01*
X144835714Y-60790380D01*
X144930952Y-60838000D01*
X144978571Y-60885619D01*
X145026190Y-60980857D01*
X145026190Y-61028476D01*
X144978571Y-61123714D01*
X144930952Y-61171333D01*
X144835714Y-61218952D01*
X144645238Y-61218952D01*
X144550000Y-61266571D01*
X144502380Y-61314190D01*
X144454761Y-61409428D01*
X144454761Y-61599904D01*
X144502380Y-61695142D01*
X144550000Y-61742761D01*
X144645238Y-61790380D01*
X144835714Y-61790380D01*
X144930952Y-61742761D01*
X144978571Y-61695142D01*
X145026190Y-61599904D01*
X145026190Y-61409428D01*
X144978571Y-61314190D01*
X144930952Y-61266571D01*
X144835714Y-61218952D01*
X145930952Y-60790380D02*
X145454761Y-60790380D01*
X145407142Y-61266571D01*
X145454761Y-61218952D01*
X145550000Y-61171333D01*
X145788095Y-61171333D01*
X145883333Y-61218952D01*
X145930952Y-61266571D01*
X145978571Y-61361809D01*
X145978571Y-61599904D01*
X145930952Y-61695142D01*
X145883333Y-61742761D01*
X145788095Y-61790380D01*
X145550000Y-61790380D01*
X145454761Y-61742761D01*
X145407142Y-61695142D01*
X146264285Y-60790380D02*
X146597619Y-61790380D01*
X146930952Y-60790380D01*
X147264285Y-61409428D02*
X148026190Y-61409428D01*
X149026190Y-61790380D02*
X148454761Y-61790380D01*
X148740476Y-61790380D02*
X148740476Y-60790380D01*
X148645238Y-60933238D01*
X148550000Y-61028476D01*
X148454761Y-61076095D01*
X149645238Y-60790380D02*
X149740476Y-60790380D01*
X149835714Y-60838000D01*
X149883333Y-60885619D01*
X149930952Y-60980857D01*
X149978571Y-61171333D01*
X149978571Y-61409428D01*
X149930952Y-61599904D01*
X149883333Y-61695142D01*
X149835714Y-61742761D01*
X149740476Y-61790380D01*
X149645238Y-61790380D01*
X149550000Y-61742761D01*
X149502380Y-61695142D01*
X149454761Y-61599904D01*
X149407142Y-61409428D01*
X149407142Y-61171333D01*
X149454761Y-60980857D01*
X149502380Y-60885619D01*
X149550000Y-60838000D01*
X149645238Y-60790380D01*
X150359523Y-61742761D02*
X150502380Y-61790380D01*
X150740476Y-61790380D01*
X150835714Y-61742761D01*
X150883333Y-61695142D01*
X150930952Y-61599904D01*
X150930952Y-61504666D01*
X150883333Y-61409428D01*
X150835714Y-61361809D01*
X150740476Y-61314190D01*
X150550000Y-61266571D01*
X150454761Y-61218952D01*
X150407142Y-61171333D01*
X150359523Y-61076095D01*
X150359523Y-60980857D01*
X150407142Y-60885619D01*
X150454761Y-60838000D01*
X150550000Y-60790380D01*
X150788095Y-60790380D01*
X150930952Y-60838000D01*
X151359523Y-60790380D02*
X151359523Y-61599904D01*
X151407142Y-61695142D01*
X151454761Y-61742761D01*
X151550000Y-61790380D01*
X151740476Y-61790380D01*
X151835714Y-61742761D01*
X151883333Y-61695142D01*
X151930952Y-61599904D01*
X151930952Y-60790380D01*
X145288095Y-57110380D02*
X145288095Y-57919904D01*
X145335714Y-58015142D01*
X145383333Y-58062761D01*
X145478571Y-58110380D01*
X145669047Y-58110380D01*
X145764285Y-58062761D01*
X145811904Y-58015142D01*
X145859523Y-57919904D01*
X145859523Y-57110380D01*
X146859523Y-58110380D02*
X146288095Y-58110380D01*
X146573809Y-58110380D02*
X146573809Y-57110380D01*
X146478571Y-57253238D01*
X146383333Y-57348476D01*
X146288095Y-57396095D01*
G04 #@! TO.C,D8*
X161790142Y-65602380D02*
X161313952Y-65602380D01*
X161313952Y-64602380D01*
X162123476Y-65078571D02*
X162456809Y-65078571D01*
X162599666Y-65602380D02*
X162123476Y-65602380D01*
X162123476Y-64602380D01*
X162599666Y-64602380D01*
X163028238Y-65602380D02*
X163028238Y-64602380D01*
X163266333Y-64602380D01*
X163409190Y-64650000D01*
X163504428Y-64745238D01*
X163552047Y-64840476D01*
X163599666Y-65030952D01*
X163599666Y-65173809D01*
X163552047Y-65364285D01*
X163504428Y-65459523D01*
X163409190Y-65554761D01*
X163266333Y-65602380D01*
X163028238Y-65602380D01*
D12*
X162063952Y-63726190D02*
X162063952Y-63226190D01*
X162183000Y-63226190D01*
X162254428Y-63250000D01*
X162302047Y-63297619D01*
X162325857Y-63345238D01*
X162349666Y-63440476D01*
X162349666Y-63511904D01*
X162325857Y-63607142D01*
X162302047Y-63654761D01*
X162254428Y-63702380D01*
X162183000Y-63726190D01*
X162063952Y-63726190D01*
X162635380Y-63440476D02*
X162587761Y-63416666D01*
X162563952Y-63392857D01*
X162540142Y-63345238D01*
X162540142Y-63321428D01*
X162563952Y-63273809D01*
X162587761Y-63250000D01*
X162635380Y-63226190D01*
X162730619Y-63226190D01*
X162778238Y-63250000D01*
X162802047Y-63273809D01*
X162825857Y-63321428D01*
X162825857Y-63345238D01*
X162802047Y-63392857D01*
X162778238Y-63416666D01*
X162730619Y-63440476D01*
X162635380Y-63440476D01*
X162587761Y-63464285D01*
X162563952Y-63488095D01*
X162540142Y-63535714D01*
X162540142Y-63630952D01*
X162563952Y-63678571D01*
X162587761Y-63702380D01*
X162635380Y-63726190D01*
X162730619Y-63726190D01*
X162778238Y-63702380D01*
X162802047Y-63678571D01*
X162825857Y-63630952D01*
X162825857Y-63535714D01*
X162802047Y-63488095D01*
X162778238Y-63464285D01*
X162730619Y-63440476D01*
G04 #@! TO.C,D1*
D10*
X127832380Y-60205857D02*
X127832380Y-60682047D01*
X126832380Y-60682047D01*
X127308571Y-59872523D02*
X127308571Y-59539190D01*
X127832380Y-59396333D02*
X127832380Y-59872523D01*
X126832380Y-59872523D01*
X126832380Y-59396333D01*
X127832380Y-58967761D02*
X126832380Y-58967761D01*
X126832380Y-58729666D01*
X126880000Y-58586809D01*
X126975238Y-58491571D01*
X127070476Y-58443952D01*
X127260952Y-58396333D01*
X127403809Y-58396333D01*
X127594285Y-58443952D01*
X127689523Y-58491571D01*
X127784761Y-58586809D01*
X127832380Y-58729666D01*
X127832380Y-58967761D01*
D12*
X125956190Y-59932047D02*
X125456190Y-59932047D01*
X125456190Y-59813000D01*
X125480000Y-59741571D01*
X125527619Y-59693952D01*
X125575238Y-59670142D01*
X125670476Y-59646333D01*
X125741904Y-59646333D01*
X125837142Y-59670142D01*
X125884761Y-59693952D01*
X125932380Y-59741571D01*
X125956190Y-59813000D01*
X125956190Y-59932047D01*
X125956190Y-59170142D02*
X125956190Y-59455857D01*
X125956190Y-59313000D02*
X125456190Y-59313000D01*
X125527619Y-59360619D01*
X125575238Y-59408238D01*
X125599047Y-59455857D01*
G04 #@! TO.C,D3*
D10*
X129024142Y-57728380D02*
X128547952Y-57728380D01*
X128547952Y-56728380D01*
X129357476Y-57204571D02*
X129690809Y-57204571D01*
X129833666Y-57728380D02*
X129357476Y-57728380D01*
X129357476Y-56728380D01*
X129833666Y-56728380D01*
X130262238Y-57728380D02*
X130262238Y-56728380D01*
X130500333Y-56728380D01*
X130643190Y-56776000D01*
X130738428Y-56871238D01*
X130786047Y-56966476D01*
X130833666Y-57156952D01*
X130833666Y-57299809D01*
X130786047Y-57490285D01*
X130738428Y-57585523D01*
X130643190Y-57680761D01*
X130500333Y-57728380D01*
X130262238Y-57728380D01*
D12*
X129297952Y-55852190D02*
X129297952Y-55352190D01*
X129417000Y-55352190D01*
X129488428Y-55376000D01*
X129536047Y-55423619D01*
X129559857Y-55471238D01*
X129583666Y-55566476D01*
X129583666Y-55637904D01*
X129559857Y-55733142D01*
X129536047Y-55780761D01*
X129488428Y-55828380D01*
X129417000Y-55852190D01*
X129297952Y-55852190D01*
X129750333Y-55352190D02*
X130059857Y-55352190D01*
X129893190Y-55542666D01*
X129964619Y-55542666D01*
X130012238Y-55566476D01*
X130036047Y-55590285D01*
X130059857Y-55637904D01*
X130059857Y-55756952D01*
X130036047Y-55804571D01*
X130012238Y-55828380D01*
X129964619Y-55852190D01*
X129821761Y-55852190D01*
X129774142Y-55828380D01*
X129750333Y-55804571D01*
G04 #@! TO.C,D4*
D10*
X129024142Y-65602380D02*
X128547952Y-65602380D01*
X128547952Y-64602380D01*
X129357476Y-65078571D02*
X129690809Y-65078571D01*
X129833666Y-65602380D02*
X129357476Y-65602380D01*
X129357476Y-64602380D01*
X129833666Y-64602380D01*
X130262238Y-65602380D02*
X130262238Y-64602380D01*
X130500333Y-64602380D01*
X130643190Y-64650000D01*
X130738428Y-64745238D01*
X130786047Y-64840476D01*
X130833666Y-65030952D01*
X130833666Y-65173809D01*
X130786047Y-65364285D01*
X130738428Y-65459523D01*
X130643190Y-65554761D01*
X130500333Y-65602380D01*
X130262238Y-65602380D01*
D12*
X129297952Y-63726190D02*
X129297952Y-63226190D01*
X129417000Y-63226190D01*
X129488428Y-63250000D01*
X129536047Y-63297619D01*
X129559857Y-63345238D01*
X129583666Y-63440476D01*
X129583666Y-63511904D01*
X129559857Y-63607142D01*
X129536047Y-63654761D01*
X129488428Y-63702380D01*
X129417000Y-63726190D01*
X129297952Y-63726190D01*
X130012238Y-63392857D02*
X130012238Y-63726190D01*
X129893190Y-63202380D02*
X129774142Y-63559523D01*
X130083666Y-63559523D01*
G04 #@! TO.C,D5*
D10*
X135833380Y-60214857D02*
X135833380Y-60691047D01*
X134833380Y-60691047D01*
X135309571Y-59881523D02*
X135309571Y-59548190D01*
X135833380Y-59405333D02*
X135833380Y-59881523D01*
X134833380Y-59881523D01*
X134833380Y-59405333D01*
X135833380Y-58976761D02*
X134833380Y-58976761D01*
X134833380Y-58738666D01*
X134881000Y-58595809D01*
X134976238Y-58500571D01*
X135071476Y-58452952D01*
X135261952Y-58405333D01*
X135404809Y-58405333D01*
X135595285Y-58452952D01*
X135690523Y-58500571D01*
X135785761Y-58595809D01*
X135833380Y-58738666D01*
X135833380Y-58976761D01*
D12*
X133957190Y-59941047D02*
X133457190Y-59941047D01*
X133457190Y-59822000D01*
X133481000Y-59750571D01*
X133528619Y-59702952D01*
X133576238Y-59679142D01*
X133671476Y-59655333D01*
X133742904Y-59655333D01*
X133838142Y-59679142D01*
X133885761Y-59702952D01*
X133933380Y-59750571D01*
X133957190Y-59822000D01*
X133957190Y-59941047D01*
X133457190Y-59202952D02*
X133457190Y-59441047D01*
X133695285Y-59464857D01*
X133671476Y-59441047D01*
X133647666Y-59393428D01*
X133647666Y-59274380D01*
X133671476Y-59226761D01*
X133695285Y-59202952D01*
X133742904Y-59179142D01*
X133861952Y-59179142D01*
X133909571Y-59202952D01*
X133933380Y-59226761D01*
X133957190Y-59274380D01*
X133957190Y-59393428D01*
X133933380Y-59441047D01*
X133909571Y-59464857D01*
G04 #@! TO.C,D6*
D10*
X160598380Y-60205857D02*
X160598380Y-60682047D01*
X159598380Y-60682047D01*
X160074571Y-59872523D02*
X160074571Y-59539190D01*
X160598380Y-59396333D02*
X160598380Y-59872523D01*
X159598380Y-59872523D01*
X159598380Y-59396333D01*
X160598380Y-58967761D02*
X159598380Y-58967761D01*
X159598380Y-58729666D01*
X159646000Y-58586809D01*
X159741238Y-58491571D01*
X159836476Y-58443952D01*
X160026952Y-58396333D01*
X160169809Y-58396333D01*
X160360285Y-58443952D01*
X160455523Y-58491571D01*
X160550761Y-58586809D01*
X160598380Y-58729666D01*
X160598380Y-58967761D01*
D12*
X158722190Y-59932047D02*
X158222190Y-59932047D01*
X158222190Y-59813000D01*
X158246000Y-59741571D01*
X158293619Y-59693952D01*
X158341238Y-59670142D01*
X158436476Y-59646333D01*
X158507904Y-59646333D01*
X158603142Y-59670142D01*
X158650761Y-59693952D01*
X158698380Y-59741571D01*
X158722190Y-59813000D01*
X158722190Y-59932047D01*
X158222190Y-59217761D02*
X158222190Y-59313000D01*
X158246000Y-59360619D01*
X158269809Y-59384428D01*
X158341238Y-59432047D01*
X158436476Y-59455857D01*
X158626952Y-59455857D01*
X158674571Y-59432047D01*
X158698380Y-59408238D01*
X158722190Y-59360619D01*
X158722190Y-59265380D01*
X158698380Y-59217761D01*
X158674571Y-59193952D01*
X158626952Y-59170142D01*
X158507904Y-59170142D01*
X158460285Y-59193952D01*
X158436476Y-59217761D01*
X158412666Y-59265380D01*
X158412666Y-59360619D01*
X158436476Y-59408238D01*
X158460285Y-59432047D01*
X158507904Y-59455857D01*
G04 #@! TO.C,D7*
D10*
X161790142Y-57728380D02*
X161313952Y-57728380D01*
X161313952Y-56728380D01*
X162123476Y-57204571D02*
X162456809Y-57204571D01*
X162599666Y-57728380D02*
X162123476Y-57728380D01*
X162123476Y-56728380D01*
X162599666Y-56728380D01*
X163028238Y-57728380D02*
X163028238Y-56728380D01*
X163266333Y-56728380D01*
X163409190Y-56776000D01*
X163504428Y-56871238D01*
X163552047Y-56966476D01*
X163599666Y-57156952D01*
X163599666Y-57299809D01*
X163552047Y-57490285D01*
X163504428Y-57585523D01*
X163409190Y-57680761D01*
X163266333Y-57728380D01*
X163028238Y-57728380D01*
D12*
X162063952Y-55852190D02*
X162063952Y-55352190D01*
X162183000Y-55352190D01*
X162254428Y-55376000D01*
X162302047Y-55423619D01*
X162325857Y-55471238D01*
X162349666Y-55566476D01*
X162349666Y-55637904D01*
X162325857Y-55733142D01*
X162302047Y-55780761D01*
X162254428Y-55828380D01*
X162183000Y-55852190D01*
X162063952Y-55852190D01*
X162516333Y-55352190D02*
X162849666Y-55352190D01*
X162635380Y-55852190D01*
G04 #@! TO.C,D10*
D10*
X165172380Y-60205857D02*
X165172380Y-60682047D01*
X164172380Y-60682047D01*
X164648571Y-59872523D02*
X164648571Y-59539190D01*
X165172380Y-59396333D02*
X165172380Y-59872523D01*
X164172380Y-59872523D01*
X164172380Y-59396333D01*
X165172380Y-58967761D02*
X164172380Y-58967761D01*
X164172380Y-58729666D01*
X164220000Y-58586809D01*
X164315238Y-58491571D01*
X164410476Y-58443952D01*
X164600952Y-58396333D01*
X164743809Y-58396333D01*
X164934285Y-58443952D01*
X165029523Y-58491571D01*
X165124761Y-58586809D01*
X165172380Y-58729666D01*
X165172380Y-58967761D01*
D12*
X166596190Y-60170142D02*
X166096190Y-60170142D01*
X166096190Y-60051095D01*
X166120000Y-59979666D01*
X166167619Y-59932047D01*
X166215238Y-59908238D01*
X166310476Y-59884428D01*
X166381904Y-59884428D01*
X166477142Y-59908238D01*
X166524761Y-59932047D01*
X166572380Y-59979666D01*
X166596190Y-60051095D01*
X166596190Y-60170142D01*
X166596190Y-59408238D02*
X166596190Y-59693952D01*
X166596190Y-59551095D02*
X166096190Y-59551095D01*
X166167619Y-59598714D01*
X166215238Y-59646333D01*
X166239047Y-59693952D01*
X166096190Y-59098714D02*
X166096190Y-59051095D01*
X166120000Y-59003476D01*
X166143809Y-58979666D01*
X166191428Y-58955857D01*
X166286666Y-58932047D01*
X166405714Y-58932047D01*
X166500952Y-58955857D01*
X166548571Y-58979666D01*
X166572380Y-59003476D01*
X166596190Y-59051095D01*
X166596190Y-59098714D01*
X166572380Y-59146333D01*
X166548571Y-59170142D01*
X166500952Y-59193952D01*
X166405714Y-59217761D01*
X166286666Y-59217761D01*
X166191428Y-59193952D01*
X166143809Y-59170142D01*
X166120000Y-59146333D01*
X166096190Y-59098714D01*
G04 #@! TO.C,D9*
D10*
X162171142Y-81477380D02*
X161694952Y-81477380D01*
X161694952Y-80477380D01*
X162504476Y-80953571D02*
X162837809Y-80953571D01*
X162980666Y-81477380D02*
X162504476Y-81477380D01*
X162504476Y-80477380D01*
X162980666Y-80477380D01*
X163409238Y-81477380D02*
X163409238Y-80477380D01*
X163647333Y-80477380D01*
X163790190Y-80525000D01*
X163885428Y-80620238D01*
X163933047Y-80715476D01*
X163980666Y-80905952D01*
X163980666Y-81048809D01*
X163933047Y-81239285D01*
X163885428Y-81334523D01*
X163790190Y-81429761D01*
X163647333Y-81477380D01*
X163409238Y-81477380D01*
D12*
X162444952Y-79601190D02*
X162444952Y-79101190D01*
X162564000Y-79101190D01*
X162635428Y-79125000D01*
X162683047Y-79172619D01*
X162706857Y-79220238D01*
X162730666Y-79315476D01*
X162730666Y-79386904D01*
X162706857Y-79482142D01*
X162683047Y-79529761D01*
X162635428Y-79577380D01*
X162564000Y-79601190D01*
X162444952Y-79601190D01*
X162968761Y-79601190D02*
X163064000Y-79601190D01*
X163111619Y-79577380D01*
X163135428Y-79553571D01*
X163183047Y-79482142D01*
X163206857Y-79386904D01*
X163206857Y-79196428D01*
X163183047Y-79148809D01*
X163159238Y-79125000D01*
X163111619Y-79101190D01*
X163016380Y-79101190D01*
X162968761Y-79125000D01*
X162944952Y-79148809D01*
X162921142Y-79196428D01*
X162921142Y-79315476D01*
X162944952Y-79363095D01*
X162968761Y-79386904D01*
X163016380Y-79410714D01*
X163111619Y-79410714D01*
X163159238Y-79386904D01*
X163183047Y-79363095D01*
X163206857Y-79315476D01*
G04 #@! TO.C,D2*
D10*
X128770142Y-81477380D02*
X128293952Y-81477380D01*
X128293952Y-80477380D01*
X129103476Y-80953571D02*
X129436809Y-80953571D01*
X129579666Y-81477380D02*
X129103476Y-81477380D01*
X129103476Y-80477380D01*
X129579666Y-80477380D01*
X130008238Y-81477380D02*
X130008238Y-80477380D01*
X130246333Y-80477380D01*
X130389190Y-80525000D01*
X130484428Y-80620238D01*
X130532047Y-80715476D01*
X130579666Y-80905952D01*
X130579666Y-81048809D01*
X130532047Y-81239285D01*
X130484428Y-81334523D01*
X130389190Y-81429761D01*
X130246333Y-81477380D01*
X130008238Y-81477380D01*
D12*
X129043952Y-79601190D02*
X129043952Y-79101190D01*
X129163000Y-79101190D01*
X129234428Y-79125000D01*
X129282047Y-79172619D01*
X129305857Y-79220238D01*
X129329666Y-79315476D01*
X129329666Y-79386904D01*
X129305857Y-79482142D01*
X129282047Y-79529761D01*
X129234428Y-79577380D01*
X129163000Y-79601190D01*
X129043952Y-79601190D01*
X129520142Y-79148809D02*
X129543952Y-79125000D01*
X129591571Y-79101190D01*
X129710619Y-79101190D01*
X129758238Y-79125000D01*
X129782047Y-79148809D01*
X129805857Y-79196428D01*
X129805857Y-79244047D01*
X129782047Y-79315476D01*
X129496333Y-79601190D01*
X129805857Y-79601190D01*
G04 #@! TO.C,J2*
D10*
X115166666Y-41952380D02*
X115166666Y-42666666D01*
X115119047Y-42809523D01*
X115023809Y-42904761D01*
X114880952Y-42952380D01*
X114785714Y-42952380D01*
X115595238Y-42047619D02*
X115642857Y-42000000D01*
X115738095Y-41952380D01*
X115976190Y-41952380D01*
X116071428Y-42000000D01*
X116119047Y-42047619D01*
X116166666Y-42142857D01*
X116166666Y-42238095D01*
X116119047Y-42380952D01*
X115547619Y-42952380D01*
X116166666Y-42952380D01*
X111738095Y-46485714D02*
X112452380Y-46485714D01*
X112023809Y-46057142D02*
X111738095Y-47342857D01*
X112357142Y-46914285D02*
X111642857Y-46914285D01*
X112071428Y-47342857D02*
X112357142Y-46057142D01*
X112785714Y-47152380D02*
X112785714Y-46152380D01*
X112785714Y-46533333D02*
X112880952Y-46485714D01*
X113071428Y-46485714D01*
X113166666Y-46533333D01*
X113214285Y-46580952D01*
X113261904Y-46676190D01*
X113261904Y-46961904D01*
X113214285Y-47057142D01*
X113166666Y-47104761D01*
X113071428Y-47152380D01*
X112880952Y-47152380D01*
X112785714Y-47104761D01*
X114119047Y-47152380D02*
X114119047Y-46628571D01*
X114071428Y-46533333D01*
X113976190Y-46485714D01*
X113785714Y-46485714D01*
X113690476Y-46533333D01*
X114119047Y-47104761D02*
X114023809Y-47152380D01*
X113785714Y-47152380D01*
X113690476Y-47104761D01*
X113642857Y-47009523D01*
X113642857Y-46914285D01*
X113690476Y-46819047D01*
X113785714Y-46771428D01*
X114023809Y-46771428D01*
X114119047Y-46723809D01*
X115023809Y-47152380D02*
X115023809Y-46152380D01*
X115023809Y-47104761D02*
X114928571Y-47152380D01*
X114738095Y-47152380D01*
X114642857Y-47104761D01*
X114595238Y-47057142D01*
X114547619Y-46961904D01*
X114547619Y-46676190D01*
X114595238Y-46580952D01*
X114642857Y-46533333D01*
X114738095Y-46485714D01*
X114928571Y-46485714D01*
X115023809Y-46533333D01*
X115928571Y-46485714D02*
X115928571Y-47295238D01*
X115880952Y-47390476D01*
X115833333Y-47438095D01*
X115738095Y-47485714D01*
X115595238Y-47485714D01*
X115500000Y-47438095D01*
X115928571Y-47104761D02*
X115833333Y-47152380D01*
X115642857Y-47152380D01*
X115547619Y-47104761D01*
X115500000Y-47057142D01*
X115452380Y-46961904D01*
X115452380Y-46676190D01*
X115500000Y-46580952D01*
X115547619Y-46533333D01*
X115642857Y-46485714D01*
X115833333Y-46485714D01*
X115928571Y-46533333D01*
X116785714Y-47104761D02*
X116690476Y-47152380D01*
X116500000Y-47152380D01*
X116404761Y-47104761D01*
X116357142Y-47009523D01*
X116357142Y-46628571D01*
X116404761Y-46533333D01*
X116500000Y-46485714D01*
X116690476Y-46485714D01*
X116785714Y-46533333D01*
X116833333Y-46628571D01*
X116833333Y-46723809D01*
X116357142Y-46819047D01*
X117404761Y-47152380D02*
X117309523Y-47104761D01*
X117261904Y-47009523D01*
X117261904Y-46152380D01*
X117785714Y-47152380D02*
X117785714Y-46485714D01*
X117785714Y-46152380D02*
X117738095Y-46200000D01*
X117785714Y-46247619D01*
X117833333Y-46200000D01*
X117785714Y-46152380D01*
X117785714Y-46247619D01*
X118119047Y-46485714D02*
X118500000Y-46485714D01*
X118261904Y-47152380D02*
X118261904Y-46295238D01*
X118309523Y-46200000D01*
X118404761Y-46152380D01*
X118500000Y-46152380D01*
X119214285Y-47104761D02*
X119119047Y-47152380D01*
X118928571Y-47152380D01*
X118833333Y-47104761D01*
X118785714Y-47009523D01*
X118785714Y-46628571D01*
X118833333Y-46533333D01*
X118928571Y-46485714D01*
X119119047Y-46485714D01*
X119214285Y-46533333D01*
X119261904Y-46628571D01*
X119261904Y-46723809D01*
X118785714Y-46819047D01*
X176566666Y-41852380D02*
X176566666Y-42566666D01*
X176519047Y-42709523D01*
X176423809Y-42804761D01*
X176280952Y-42852380D01*
X176185714Y-42852380D01*
X176995238Y-41947619D02*
X177042857Y-41900000D01*
X177138095Y-41852380D01*
X177376190Y-41852380D01*
X177471428Y-41900000D01*
X177519047Y-41947619D01*
X177566666Y-42042857D01*
X177566666Y-42138095D01*
X177519047Y-42280952D01*
X176947619Y-42852380D01*
X177566666Y-42852380D01*
X173138095Y-46385714D02*
X173852380Y-46385714D01*
X173423809Y-45957142D02*
X173138095Y-47242857D01*
X173757142Y-46814285D02*
X173042857Y-46814285D01*
X173471428Y-47242857D02*
X173757142Y-45957142D01*
X174185714Y-47052380D02*
X174185714Y-46052380D01*
X174185714Y-46433333D02*
X174280952Y-46385714D01*
X174471428Y-46385714D01*
X174566666Y-46433333D01*
X174614285Y-46480952D01*
X174661904Y-46576190D01*
X174661904Y-46861904D01*
X174614285Y-46957142D01*
X174566666Y-47004761D01*
X174471428Y-47052380D01*
X174280952Y-47052380D01*
X174185714Y-47004761D01*
X175519047Y-47052380D02*
X175519047Y-46528571D01*
X175471428Y-46433333D01*
X175376190Y-46385714D01*
X175185714Y-46385714D01*
X175090476Y-46433333D01*
X175519047Y-47004761D02*
X175423809Y-47052380D01*
X175185714Y-47052380D01*
X175090476Y-47004761D01*
X175042857Y-46909523D01*
X175042857Y-46814285D01*
X175090476Y-46719047D01*
X175185714Y-46671428D01*
X175423809Y-46671428D01*
X175519047Y-46623809D01*
X176423809Y-47052380D02*
X176423809Y-46052380D01*
X176423809Y-47004761D02*
X176328571Y-47052380D01*
X176138095Y-47052380D01*
X176042857Y-47004761D01*
X175995238Y-46957142D01*
X175947619Y-46861904D01*
X175947619Y-46576190D01*
X175995238Y-46480952D01*
X176042857Y-46433333D01*
X176138095Y-46385714D01*
X176328571Y-46385714D01*
X176423809Y-46433333D01*
X177328571Y-46385714D02*
X177328571Y-47195238D01*
X177280952Y-47290476D01*
X177233333Y-47338095D01*
X177138095Y-47385714D01*
X176995238Y-47385714D01*
X176900000Y-47338095D01*
X177328571Y-47004761D02*
X177233333Y-47052380D01*
X177042857Y-47052380D01*
X176947619Y-47004761D01*
X176900000Y-46957142D01*
X176852380Y-46861904D01*
X176852380Y-46576190D01*
X176900000Y-46480952D01*
X176947619Y-46433333D01*
X177042857Y-46385714D01*
X177233333Y-46385714D01*
X177328571Y-46433333D01*
X178185714Y-47004761D02*
X178090476Y-47052380D01*
X177900000Y-47052380D01*
X177804761Y-47004761D01*
X177757142Y-46909523D01*
X177757142Y-46528571D01*
X177804761Y-46433333D01*
X177900000Y-46385714D01*
X178090476Y-46385714D01*
X178185714Y-46433333D01*
X178233333Y-46528571D01*
X178233333Y-46623809D01*
X177757142Y-46719047D01*
X178804761Y-47052380D02*
X178709523Y-47004761D01*
X178661904Y-46909523D01*
X178661904Y-46052380D01*
X179185714Y-47052380D02*
X179185714Y-46385714D01*
X179185714Y-46052380D02*
X179138095Y-46100000D01*
X179185714Y-46147619D01*
X179233333Y-46100000D01*
X179185714Y-46052380D01*
X179185714Y-46147619D01*
X179519047Y-46385714D02*
X179900000Y-46385714D01*
X179661904Y-47052380D02*
X179661904Y-46195238D01*
X179709523Y-46100000D01*
X179804761Y-46052380D01*
X179900000Y-46052380D01*
X180614285Y-47004761D02*
X180519047Y-47052380D01*
X180328571Y-47052380D01*
X180233333Y-47004761D01*
X180185714Y-46909523D01*
X180185714Y-46528571D01*
X180233333Y-46433333D01*
X180328571Y-46385714D01*
X180519047Y-46385714D01*
X180614285Y-46433333D01*
X180661904Y-46528571D01*
X180661904Y-46623809D01*
X180185714Y-46719047D01*
G04 #@! TO.C,BLANKHOLE*
X134756380Y-45262380D02*
X135327809Y-45262380D01*
X135042095Y-46262380D02*
X135042095Y-45262380D01*
X136042095Y-46214761D02*
X135946857Y-46262380D01*
X135756380Y-46262380D01*
X135661142Y-46214761D01*
X135613523Y-46119523D01*
X135613523Y-45738571D01*
X135661142Y-45643333D01*
X135756380Y-45595714D01*
X135946857Y-45595714D01*
X136042095Y-45643333D01*
X136089714Y-45738571D01*
X136089714Y-45833809D01*
X135613523Y-45929047D01*
X136470666Y-46214761D02*
X136565904Y-46262380D01*
X136756380Y-46262380D01*
X136851619Y-46214761D01*
X136899238Y-46119523D01*
X136899238Y-46071904D01*
X136851619Y-45976666D01*
X136756380Y-45929047D01*
X136613523Y-45929047D01*
X136518285Y-45881428D01*
X136470666Y-45786190D01*
X136470666Y-45738571D01*
X136518285Y-45643333D01*
X136613523Y-45595714D01*
X136756380Y-45595714D01*
X136851619Y-45643333D01*
X137184952Y-45595714D02*
X137565904Y-45595714D01*
X137327809Y-45262380D02*
X137327809Y-46119523D01*
X137375428Y-46214761D01*
X137470666Y-46262380D01*
X137565904Y-46262380D01*
X137899238Y-46262380D02*
X137899238Y-45262380D01*
X138280190Y-45262380D01*
X138375428Y-45310000D01*
X138423047Y-45357619D01*
X138470666Y-45452857D01*
X138470666Y-45595714D01*
X138423047Y-45690952D01*
X138375428Y-45738571D01*
X138280190Y-45786190D01*
X137899238Y-45786190D01*
X139042095Y-46262380D02*
X138946857Y-46214761D01*
X138899238Y-46167142D01*
X138851619Y-46071904D01*
X138851619Y-45786190D01*
X138899238Y-45690952D01*
X138946857Y-45643333D01*
X139042095Y-45595714D01*
X139184952Y-45595714D01*
X139280190Y-45643333D01*
X139327809Y-45690952D01*
X139375428Y-45786190D01*
X139375428Y-46071904D01*
X139327809Y-46167142D01*
X139280190Y-46214761D01*
X139184952Y-46262380D01*
X139042095Y-46262380D01*
X139804000Y-46262380D02*
X139804000Y-45595714D01*
X139804000Y-45262380D02*
X139756380Y-45310000D01*
X139804000Y-45357619D01*
X139851619Y-45310000D01*
X139804000Y-45262380D01*
X139804000Y-45357619D01*
X140280190Y-45595714D02*
X140280190Y-46262380D01*
X140280190Y-45690952D02*
X140327809Y-45643333D01*
X140423047Y-45595714D01*
X140565904Y-45595714D01*
X140661142Y-45643333D01*
X140708761Y-45738571D01*
X140708761Y-46262380D01*
X141042095Y-45595714D02*
X141423047Y-45595714D01*
X141184952Y-45262380D02*
X141184952Y-46119523D01*
X141232571Y-46214761D01*
X141327809Y-46262380D01*
X141423047Y-46262380D01*
X141518285Y-46357619D02*
X142280190Y-46357619D01*
X142518285Y-46262380D02*
X142518285Y-45262380D01*
X142899238Y-45262380D01*
X142994476Y-45310000D01*
X143042095Y-45357619D01*
X143089714Y-45452857D01*
X143089714Y-45595714D01*
X143042095Y-45690952D01*
X142994476Y-45738571D01*
X142899238Y-45786190D01*
X142518285Y-45786190D01*
X143661142Y-46262380D02*
X143565904Y-46214761D01*
X143518285Y-46119523D01*
X143518285Y-45262380D01*
X144470666Y-46262380D02*
X144470666Y-45738571D01*
X144423047Y-45643333D01*
X144327809Y-45595714D01*
X144137333Y-45595714D01*
X144042095Y-45643333D01*
X144470666Y-46214761D02*
X144375428Y-46262380D01*
X144137333Y-46262380D01*
X144042095Y-46214761D01*
X143994476Y-46119523D01*
X143994476Y-46024285D01*
X144042095Y-45929047D01*
X144137333Y-45881428D01*
X144375428Y-45881428D01*
X144470666Y-45833809D01*
X144804000Y-45595714D02*
X145184952Y-45595714D01*
X144946857Y-45262380D02*
X144946857Y-46119523D01*
X144994476Y-46214761D01*
X145089714Y-46262380D01*
X145184952Y-46262380D01*
X145899238Y-46214761D02*
X145804000Y-46262380D01*
X145613523Y-46262380D01*
X145518285Y-46214761D01*
X145470666Y-46119523D01*
X145470666Y-45738571D01*
X145518285Y-45643333D01*
X145613523Y-45595714D01*
X145804000Y-45595714D01*
X145899238Y-45643333D01*
X145946857Y-45738571D01*
X145946857Y-45833809D01*
X145470666Y-45929047D01*
X146804000Y-46262380D02*
X146804000Y-45262380D01*
X146804000Y-46214761D02*
X146708761Y-46262380D01*
X146518285Y-46262380D01*
X146423047Y-46214761D01*
X146375428Y-46167142D01*
X146327809Y-46071904D01*
X146327809Y-45786190D01*
X146375428Y-45690952D01*
X146423047Y-45643333D01*
X146518285Y-45595714D01*
X146708761Y-45595714D01*
X146804000Y-45643333D01*
X147042095Y-46357619D02*
X147804000Y-46357619D01*
X148042095Y-46262380D02*
X148042095Y-45262380D01*
X148042095Y-45738571D02*
X148613523Y-45738571D01*
X148613523Y-46262380D02*
X148613523Y-45262380D01*
X149232571Y-46262380D02*
X149137333Y-46214761D01*
X149089714Y-46167142D01*
X149042095Y-46071904D01*
X149042095Y-45786190D01*
X149089714Y-45690952D01*
X149137333Y-45643333D01*
X149232571Y-45595714D01*
X149375428Y-45595714D01*
X149470666Y-45643333D01*
X149518285Y-45690952D01*
X149565904Y-45786190D01*
X149565904Y-46071904D01*
X149518285Y-46167142D01*
X149470666Y-46214761D01*
X149375428Y-46262380D01*
X149232571Y-46262380D01*
X150137333Y-46262380D02*
X150042095Y-46214761D01*
X149994476Y-46119523D01*
X149994476Y-45262380D01*
X150899238Y-46214761D02*
X150804000Y-46262380D01*
X150613523Y-46262380D01*
X150518285Y-46214761D01*
X150470666Y-46119523D01*
X150470666Y-45738571D01*
X150518285Y-45643333D01*
X150613523Y-45595714D01*
X150804000Y-45595714D01*
X150899238Y-45643333D01*
X150946857Y-45738571D01*
X150946857Y-45833809D01*
X150470666Y-45929047D01*
X151137333Y-46357619D02*
X151899238Y-46357619D01*
X152137333Y-46262380D02*
X152137333Y-45262380D01*
X152375428Y-45262380D01*
X152518285Y-45310000D01*
X152613523Y-45405238D01*
X152661142Y-45500476D01*
X152708761Y-45690952D01*
X152708761Y-45833809D01*
X152661142Y-46024285D01*
X152613523Y-46119523D01*
X152518285Y-46214761D01*
X152375428Y-46262380D01*
X152137333Y-46262380D01*
X153613523Y-45262380D02*
X153137333Y-45262380D01*
X153089714Y-45738571D01*
X153137333Y-45690952D01*
X153232571Y-45643333D01*
X153470666Y-45643333D01*
X153565904Y-45690952D01*
X153613523Y-45738571D01*
X153661142Y-45833809D01*
X153661142Y-46071904D01*
X153613523Y-46167142D01*
X153565904Y-46214761D01*
X153470666Y-46262380D01*
X153232571Y-46262380D01*
X153137333Y-46214761D01*
X153089714Y-46167142D01*
X154089714Y-46167142D02*
X154137333Y-46214761D01*
X154089714Y-46262380D01*
X154042095Y-46214761D01*
X154089714Y-46167142D01*
X154089714Y-46262380D01*
X154756380Y-45262380D02*
X154851619Y-45262380D01*
X154946857Y-45310000D01*
X154994476Y-45357619D01*
X155042095Y-45452857D01*
X155089714Y-45643333D01*
X155089714Y-45881428D01*
X155042095Y-46071904D01*
X154994476Y-46167142D01*
X154946857Y-46214761D01*
X154851619Y-46262380D01*
X154756380Y-46262380D01*
X154661142Y-46214761D01*
X154613523Y-46167142D01*
X154565904Y-46071904D01*
X154518285Y-45881428D01*
X154518285Y-45643333D01*
X154565904Y-45452857D01*
X154613523Y-45357619D01*
X154661142Y-45310000D01*
X154756380Y-45262380D01*
X155518285Y-46262380D02*
X155518285Y-45595714D01*
X155518285Y-45690952D02*
X155565904Y-45643333D01*
X155661142Y-45595714D01*
X155804000Y-45595714D01*
X155899238Y-45643333D01*
X155946857Y-45738571D01*
X155946857Y-46262380D01*
X155946857Y-45738571D02*
X155994476Y-45643333D01*
X156089714Y-45595714D01*
X156232571Y-45595714D01*
X156327809Y-45643333D01*
X156375428Y-45738571D01*
X156375428Y-46262380D01*
X156851619Y-46262380D02*
X156851619Y-45595714D01*
X156851619Y-45690952D02*
X156899238Y-45643333D01*
X156994476Y-45595714D01*
X157137333Y-45595714D01*
X157232571Y-45643333D01*
X157280190Y-45738571D01*
X157280190Y-46262380D01*
X157280190Y-45738571D02*
X157327809Y-45643333D01*
X157423047Y-45595714D01*
X157565904Y-45595714D01*
X157661142Y-45643333D01*
X157708761Y-45738571D01*
X157708761Y-46262380D01*
X142613523Y-37888571D02*
X142756380Y-37936190D01*
X142804000Y-37983809D01*
X142851619Y-38079047D01*
X142851619Y-38221904D01*
X142804000Y-38317142D01*
X142756380Y-38364761D01*
X142661142Y-38412380D01*
X142280190Y-38412380D01*
X142280190Y-37412380D01*
X142613523Y-37412380D01*
X142708761Y-37460000D01*
X142756380Y-37507619D01*
X142804000Y-37602857D01*
X142804000Y-37698095D01*
X142756380Y-37793333D01*
X142708761Y-37840952D01*
X142613523Y-37888571D01*
X142280190Y-37888571D01*
X143756380Y-38412380D02*
X143280190Y-38412380D01*
X143280190Y-37412380D01*
X144042095Y-38126666D02*
X144518285Y-38126666D01*
X143946857Y-38412380D02*
X144280190Y-37412380D01*
X144613523Y-38412380D01*
X144946857Y-38412380D02*
X144946857Y-37412380D01*
X145518285Y-38412380D01*
X145518285Y-37412380D01*
X145994476Y-38412380D02*
X145994476Y-37412380D01*
X146565904Y-38412380D02*
X146137333Y-37840952D01*
X146565904Y-37412380D02*
X145994476Y-37983809D01*
X146994476Y-38412380D02*
X146994476Y-37412380D01*
X146994476Y-37888571D02*
X147565904Y-37888571D01*
X147565904Y-38412380D02*
X147565904Y-37412380D01*
X148232571Y-37412380D02*
X148423047Y-37412380D01*
X148518285Y-37460000D01*
X148613523Y-37555238D01*
X148661142Y-37745714D01*
X148661142Y-38079047D01*
X148613523Y-38269523D01*
X148518285Y-38364761D01*
X148423047Y-38412380D01*
X148232571Y-38412380D01*
X148137333Y-38364761D01*
X148042095Y-38269523D01*
X147994476Y-38079047D01*
X147994476Y-37745714D01*
X148042095Y-37555238D01*
X148137333Y-37460000D01*
X148232571Y-37412380D01*
X149565904Y-38412380D02*
X149089714Y-38412380D01*
X149089714Y-37412380D01*
X149899238Y-37888571D02*
X150232571Y-37888571D01*
X150375428Y-38412380D02*
X149899238Y-38412380D01*
X149899238Y-37412380D01*
X150375428Y-37412380D01*
G04 #@! TD*
M02*
