M48
;DRILL file {KiCad (5.0.0)} date 11/20/18 12:56:57
;FORMAT={-:-/ absolute / metric / decimal}
FMAT,2
METRIC,TZ
T1C0.400
T2C1.000
T3C5.000
%
G90
G05
M71
T1
X128.651Y-58.547
X128.651Y-60.579
X129.4Y-80.7
X130.81Y-58.547
X130.81Y-60.579
X144.399Y-55.753
X144.399Y-57.023
X144.399Y-58.293
X144.399Y-59.563
X147.955Y-55.753
X147.955Y-57.023
X147.955Y-58.293
X147.955Y-59.563
X158.496Y-60.579
X161.29Y-55.626
X161.417Y-63.5
X162.8Y-80.7
X166.37Y-58.674
T2
X175.63Y-41.13
X175.63Y-43.67
X178.17Y-41.13
X178.17Y-43.67
X114.23Y-41.23
X114.23Y-43.77
X116.77Y-41.23
X116.77Y-43.77
T3
X146.304Y-41.91
T0
M30
