G04 #@! TF.GenerationSoftware,KiCad,Pcbnew,(5.0.0)*
G04 #@! TF.CreationDate,2018-11-20T12:56:54-05:00*
G04 #@! TF.ProjectId,BsidesRock2019,427369646573526F636B323031392E6B,rev?*
G04 #@! TF.SameCoordinates,Original*
G04 #@! TF.FileFunction,Legend,Bot*
G04 #@! TF.FilePolarity,Positive*
%FSLAX46Y46*%
G04 Gerber Fmt 4.6, Leading zero omitted, Abs format (unit mm)*
G04 Created by KiCad (PCBNEW (5.0.0)) date 11/20/18 12:56:54*
%MOMM*%
%LPD*%
G01*
G04 APERTURE LIST*
%ADD10C,0.075000*%
%ADD11C,0.300000*%
%ADD12C,0.100000*%
%ADD13C,0.120000*%
G04 APERTURE END LIST*
D10*
X131728571Y-90339285D02*
X132109523Y-90339285D01*
X131919047Y-90148809D02*
X131919047Y-90529761D01*
X132347619Y-90339285D02*
X132728571Y-90339285D01*
X132538095Y-90148809D02*
X132538095Y-90529761D01*
X132966666Y-90339285D02*
X133347619Y-90339285D01*
X133157142Y-90148809D02*
X133157142Y-90529761D01*
X133585714Y-90339285D02*
X133966666Y-90339285D01*
X133776190Y-90148809D02*
X133776190Y-90529761D01*
X134204761Y-90339285D02*
X134585714Y-90339285D01*
X134395238Y-90148809D02*
X134395238Y-90529761D01*
X134823809Y-90339285D02*
X135204761Y-90339285D01*
X135014285Y-90148809D02*
X135014285Y-90529761D01*
X135442857Y-90339285D02*
X135823809Y-90339285D01*
X135633333Y-90148809D02*
X135633333Y-90529761D01*
X136061904Y-90339285D02*
X136442857Y-90339285D01*
X136252380Y-90148809D02*
X136252380Y-90529761D01*
X136680952Y-90339285D02*
X137061904Y-90339285D01*
X136871428Y-90148809D02*
X136871428Y-90529761D01*
X137300000Y-90339285D02*
X137680952Y-90339285D01*
X137490476Y-90148809D02*
X137490476Y-90529761D01*
X138061904Y-89982142D02*
X137942857Y-89982142D01*
X137942857Y-90696428D01*
X138061904Y-90696428D01*
X138252380Y-90482142D02*
X138633333Y-90339285D01*
X138252380Y-90196428D01*
X138871428Y-90339285D02*
X139252380Y-90339285D01*
X139061904Y-90148809D02*
X139061904Y-90529761D01*
X139490476Y-90482142D02*
X139871428Y-90339285D01*
X139490476Y-90196428D01*
X140109523Y-90339285D02*
X140490476Y-90339285D01*
X140300000Y-90148809D02*
X140300000Y-90529761D01*
X140728571Y-90339285D02*
X141109523Y-90339285D01*
X140919047Y-90148809D02*
X140919047Y-90529761D01*
X141347619Y-90339285D02*
X141728571Y-90339285D01*
X141538095Y-90148809D02*
X141538095Y-90529761D01*
X141966666Y-90482142D02*
X142347619Y-90339285D01*
X141966666Y-90196428D01*
X142585714Y-90339285D02*
X142966666Y-90339285D01*
X142776190Y-90148809D02*
X142776190Y-90529761D01*
X143204761Y-90339285D02*
X143585714Y-90339285D01*
X143395238Y-90148809D02*
X143395238Y-90529761D01*
X143823809Y-90339285D02*
X144204761Y-90339285D01*
X144014285Y-90148809D02*
X144014285Y-90529761D01*
X144442857Y-90339285D02*
X144823809Y-90339285D01*
X144633333Y-90148809D02*
X144633333Y-90529761D01*
X145061904Y-90339285D02*
X145442857Y-90339285D01*
X145252380Y-90148809D02*
X145252380Y-90529761D01*
X145680952Y-90339285D02*
X146061904Y-90339285D01*
X145871428Y-90148809D02*
X145871428Y-90529761D01*
X146300000Y-90339285D02*
X146680952Y-90339285D01*
X146490476Y-90148809D02*
X146490476Y-90529761D01*
X146919047Y-90482142D02*
X147300000Y-90339285D01*
X146919047Y-90196428D01*
X147538095Y-90339285D02*
X147919047Y-90339285D01*
X147728571Y-90148809D02*
X147728571Y-90529761D01*
X148157142Y-90339285D02*
X148538095Y-90339285D01*
X148347619Y-90148809D02*
X148347619Y-90529761D01*
X148776190Y-90339285D02*
X149157142Y-90339285D01*
X148966666Y-90148809D02*
X148966666Y-90529761D01*
X149395238Y-90339285D02*
X149776190Y-90339285D01*
X149585714Y-90148809D02*
X149585714Y-90529761D01*
X150014285Y-90339285D02*
X150395238Y-90339285D01*
X150204761Y-90148809D02*
X150204761Y-90529761D01*
X150633333Y-90339285D02*
X151014285Y-90339285D01*
X150823809Y-90148809D02*
X150823809Y-90529761D01*
X151252380Y-90339285D02*
X151633333Y-90339285D01*
X151442857Y-90148809D02*
X151442857Y-90529761D01*
X151871428Y-90339285D02*
X152252380Y-90339285D01*
X152061904Y-90148809D02*
X152061904Y-90529761D01*
X152490476Y-90339285D02*
X152871428Y-90339285D01*
X152680952Y-90148809D02*
X152680952Y-90529761D01*
X153109523Y-90339285D02*
X153490476Y-90339285D01*
X153300000Y-90148809D02*
X153300000Y-90529761D01*
X154109523Y-90482142D02*
X153728571Y-90339285D01*
X154109523Y-90196428D01*
X154728571Y-90482142D02*
X154347619Y-90339285D01*
X154728571Y-90196428D01*
X155347619Y-90482142D02*
X154966666Y-90339285D01*
X155347619Y-90196428D01*
X155966666Y-90482142D02*
X155585714Y-90339285D01*
X155966666Y-90196428D01*
X156204761Y-90339285D02*
X156585714Y-90339285D01*
X156776190Y-89982142D02*
X156895238Y-89982142D01*
X156895238Y-90696428D01*
X156776190Y-90696428D01*
X157157142Y-90482142D02*
X157538095Y-90339285D01*
X157157142Y-90196428D01*
X157776190Y-90482142D02*
X158157142Y-90339285D01*
X157776190Y-90196428D01*
X158395238Y-90482142D02*
X158776190Y-90339285D01*
X158395238Y-90196428D01*
X159014285Y-90482142D02*
X159395238Y-90339285D01*
X159014285Y-90196428D01*
X159633333Y-90339285D02*
X160014285Y-90339285D01*
X160252380Y-90339285D02*
X160633333Y-90339285D01*
X160871428Y-90196428D02*
X160895238Y-90172619D01*
X160871428Y-90148809D01*
X160847619Y-90172619D01*
X160871428Y-90196428D01*
X160871428Y-90148809D01*
X132014285Y-89514285D02*
X132395238Y-89514285D01*
X132204761Y-89323809D02*
X132204761Y-89704761D01*
X132633333Y-89514285D02*
X133014285Y-89514285D01*
X132823809Y-89323809D02*
X132823809Y-89704761D01*
X133252380Y-89514285D02*
X133633333Y-89514285D01*
X133442857Y-89323809D02*
X133442857Y-89704761D01*
X133871428Y-89514285D02*
X134252380Y-89514285D01*
X134061904Y-89323809D02*
X134061904Y-89704761D01*
X134490476Y-89514285D02*
X134871428Y-89514285D01*
X134680952Y-89323809D02*
X134680952Y-89704761D01*
X135109523Y-89514285D02*
X135490476Y-89514285D01*
X135300000Y-89323809D02*
X135300000Y-89704761D01*
X135728571Y-89514285D02*
X136109523Y-89514285D01*
X135919047Y-89323809D02*
X135919047Y-89704761D01*
X136347619Y-89514285D02*
X136728571Y-89514285D01*
X136538095Y-89323809D02*
X136538095Y-89704761D01*
X136966666Y-89514285D02*
X137347619Y-89514285D01*
X137157142Y-89323809D02*
X137157142Y-89704761D01*
X137585714Y-89514285D02*
X137966666Y-89514285D01*
X137776190Y-89323809D02*
X137776190Y-89704761D01*
X138204761Y-89514285D02*
X138585714Y-89514285D01*
X138395238Y-89323809D02*
X138395238Y-89704761D01*
X138823809Y-89514285D02*
X139204761Y-89514285D01*
X139014285Y-89323809D02*
X139014285Y-89704761D01*
X139442857Y-89514285D02*
X139823809Y-89514285D01*
X139633333Y-89323809D02*
X139633333Y-89704761D01*
X140061904Y-89514285D02*
X140442857Y-89514285D01*
X140252380Y-89323809D02*
X140252380Y-89704761D01*
X140680952Y-89514285D02*
X141061904Y-89514285D01*
X140871428Y-89323809D02*
X140871428Y-89704761D01*
X141300000Y-89514285D02*
X141680952Y-89514285D01*
X141490476Y-89323809D02*
X141490476Y-89704761D01*
X141919047Y-89514285D02*
X142300000Y-89514285D01*
X142109523Y-89323809D02*
X142109523Y-89704761D01*
X142538095Y-89371428D02*
X142561904Y-89347619D01*
X142538095Y-89323809D01*
X142514285Y-89347619D01*
X142538095Y-89371428D01*
X142538095Y-89323809D01*
X142776190Y-89514285D02*
X143157142Y-89514285D01*
X143395238Y-89514285D02*
X143776190Y-89514285D01*
X144014285Y-89514285D02*
X144395238Y-89514285D01*
X144633333Y-89514285D02*
X145014285Y-89514285D01*
X145252380Y-89514285D02*
X145633333Y-89514285D01*
X145871428Y-89514285D02*
X146252380Y-89514285D01*
X146490476Y-89514285D02*
X146871428Y-89514285D01*
X147109523Y-89514285D02*
X147490476Y-89514285D01*
X147728571Y-89514285D02*
X148109523Y-89514285D01*
X148347619Y-89514285D02*
X148728571Y-89514285D01*
X148966666Y-89371428D02*
X148990476Y-89347619D01*
X148966666Y-89323809D01*
X148942857Y-89347619D01*
X148966666Y-89371428D01*
X148966666Y-89323809D01*
X149204761Y-89514285D02*
X149585714Y-89514285D01*
X149823809Y-89514285D02*
X150204761Y-89514285D01*
X150442857Y-89514285D02*
X150823809Y-89514285D01*
X151061904Y-89514285D02*
X151442857Y-89514285D01*
X151680952Y-89514285D02*
X152061904Y-89514285D01*
X152300000Y-89371428D02*
X152323809Y-89347619D01*
X152300000Y-89323809D01*
X152276190Y-89347619D01*
X152300000Y-89371428D01*
X152300000Y-89323809D01*
X152538095Y-89514285D02*
X152919047Y-89514285D01*
X152728571Y-89323809D02*
X152728571Y-89704761D01*
X153157142Y-89371428D02*
X153180952Y-89347619D01*
X153157142Y-89323809D01*
X153133333Y-89347619D01*
X153157142Y-89371428D01*
X153157142Y-89323809D01*
X153395238Y-89514285D02*
X153776190Y-89514285D01*
X153585714Y-89323809D02*
X153585714Y-89704761D01*
X154014285Y-89514285D02*
X154395238Y-89514285D01*
X154204761Y-89323809D02*
X154204761Y-89704761D01*
X154633333Y-89514285D02*
X155014285Y-89514285D01*
X154823809Y-89323809D02*
X154823809Y-89704761D01*
X155252380Y-89514285D02*
X155633333Y-89514285D01*
X155442857Y-89323809D02*
X155442857Y-89704761D01*
X155871428Y-89514285D02*
X156252380Y-89514285D01*
X156061904Y-89323809D02*
X156061904Y-89704761D01*
X156490476Y-89514285D02*
X156871428Y-89514285D01*
X156680952Y-89323809D02*
X156680952Y-89704761D01*
X157109523Y-89514285D02*
X157490476Y-89514285D01*
X157300000Y-89323809D02*
X157300000Y-89704761D01*
X157728571Y-89514285D02*
X158109523Y-89514285D01*
X157919047Y-89323809D02*
X157919047Y-89704761D01*
X158347619Y-89514285D02*
X158728571Y-89514285D01*
X158538095Y-89323809D02*
X158538095Y-89704761D01*
X158966666Y-89514285D02*
X159347619Y-89514285D01*
X159157142Y-89323809D02*
X159157142Y-89704761D01*
X159585714Y-89514285D02*
X159966666Y-89514285D01*
X159776190Y-89323809D02*
X159776190Y-89704761D01*
X160204761Y-89514285D02*
X160585714Y-89514285D01*
X160395238Y-89323809D02*
X160395238Y-89704761D01*
X132585714Y-88689285D02*
X132966666Y-88689285D01*
X132776190Y-88498809D02*
X132776190Y-88879761D01*
X133204761Y-88689285D02*
X133585714Y-88689285D01*
X133395238Y-88498809D02*
X133395238Y-88879761D01*
X133823809Y-88546428D02*
X133847619Y-88522619D01*
X133823809Y-88498809D01*
X133800000Y-88522619D01*
X133823809Y-88546428D01*
X133823809Y-88498809D01*
X134442857Y-88832142D02*
X134061904Y-88689285D01*
X134442857Y-88546428D01*
X135061904Y-88832142D02*
X134680952Y-88689285D01*
X135061904Y-88546428D01*
X135300000Y-88689285D02*
X135680952Y-88689285D01*
X135490476Y-88498809D02*
X135490476Y-88879761D01*
X135919047Y-88689285D02*
X136300000Y-88689285D01*
X136109523Y-88498809D02*
X136109523Y-88879761D01*
X136538095Y-88546428D02*
X136561904Y-88522619D01*
X136538095Y-88498809D01*
X136514285Y-88522619D01*
X136538095Y-88546428D01*
X136538095Y-88498809D01*
X136776190Y-88832142D02*
X137157142Y-88689285D01*
X136776190Y-88546428D01*
X137395238Y-88832142D02*
X137776190Y-88689285D01*
X137395238Y-88546428D01*
X138014285Y-88689285D02*
X138395238Y-88689285D01*
X138633333Y-88546428D02*
X138657142Y-88522619D01*
X138633333Y-88498809D01*
X138609523Y-88522619D01*
X138633333Y-88546428D01*
X138633333Y-88498809D01*
X138871428Y-88689285D02*
X139252380Y-88689285D01*
X139490476Y-88689285D02*
X139871428Y-88689285D01*
X140109523Y-88689285D02*
X140490476Y-88689285D01*
X140728571Y-88546428D02*
X140752380Y-88522619D01*
X140728571Y-88498809D01*
X140704761Y-88522619D01*
X140728571Y-88546428D01*
X140728571Y-88498809D01*
X140966666Y-88689285D02*
X141347619Y-88689285D01*
X141585714Y-88689285D02*
X141966666Y-88689285D01*
X142204761Y-88689285D02*
X142585714Y-88689285D01*
X142823809Y-88689285D02*
X143204761Y-88689285D01*
X143442857Y-88689285D02*
X143823809Y-88689285D01*
X144061904Y-88689285D02*
X144442857Y-88689285D01*
X144680952Y-88689285D02*
X145061904Y-88689285D01*
X145300000Y-88689285D02*
X145680952Y-88689285D01*
X145919047Y-88689285D02*
X146300000Y-88689285D01*
X146538095Y-88689285D02*
X146919047Y-88689285D01*
X147157142Y-88689285D02*
X147538095Y-88689285D01*
X147776190Y-88689285D02*
X148157142Y-88689285D01*
X148395238Y-88546428D02*
X148419047Y-88522619D01*
X148395238Y-88498809D01*
X148371428Y-88522619D01*
X148395238Y-88546428D01*
X148395238Y-88498809D01*
X148633333Y-88689285D02*
X149014285Y-88689285D01*
X148823809Y-88498809D02*
X148823809Y-88879761D01*
X149252380Y-88689285D02*
X149633333Y-88689285D01*
X149442857Y-88498809D02*
X149442857Y-88879761D01*
X149871428Y-88689285D02*
X150252380Y-88689285D01*
X150061904Y-88498809D02*
X150061904Y-88879761D01*
X150490476Y-88689285D02*
X150871428Y-88689285D01*
X150680952Y-88498809D02*
X150680952Y-88879761D01*
X151109523Y-88689285D02*
X151490476Y-88689285D01*
X151300000Y-88498809D02*
X151300000Y-88879761D01*
X151728571Y-88546428D02*
X151752380Y-88522619D01*
X151728571Y-88498809D01*
X151704761Y-88522619D01*
X151728571Y-88546428D01*
X151728571Y-88498809D01*
X151966666Y-88689285D02*
X152347619Y-88689285D01*
X152585714Y-88689285D02*
X152966666Y-88689285D01*
X153204761Y-88689285D02*
X153585714Y-88689285D01*
X153823809Y-88546428D02*
X153847619Y-88522619D01*
X153823809Y-88498809D01*
X153800000Y-88522619D01*
X153823809Y-88546428D01*
X153823809Y-88498809D01*
X154061904Y-88689285D02*
X154442857Y-88689285D01*
X154252380Y-88498809D02*
X154252380Y-88879761D01*
X154680952Y-88689285D02*
X155061904Y-88689285D01*
X154871428Y-88498809D02*
X154871428Y-88879761D01*
X155300000Y-88689285D02*
X155680952Y-88689285D01*
X155490476Y-88498809D02*
X155490476Y-88879761D01*
X155919047Y-88689285D02*
X156300000Y-88689285D01*
X156109523Y-88498809D02*
X156109523Y-88879761D01*
X156538095Y-88689285D02*
X156919047Y-88689285D01*
X156728571Y-88498809D02*
X156728571Y-88879761D01*
X157157142Y-88689285D02*
X157538095Y-88689285D01*
X157347619Y-88498809D02*
X157347619Y-88879761D01*
X157776190Y-88689285D02*
X158157142Y-88689285D01*
X157966666Y-88498809D02*
X157966666Y-88879761D01*
X158395238Y-88689285D02*
X158776190Y-88689285D01*
X158585714Y-88498809D02*
X158585714Y-88879761D01*
X159014285Y-88689285D02*
X159395238Y-88689285D01*
X159204761Y-88498809D02*
X159204761Y-88879761D01*
X159633333Y-88689285D02*
X160014285Y-88689285D01*
X159823809Y-88498809D02*
X159823809Y-88879761D01*
X132204761Y-87864285D02*
X132585714Y-87864285D01*
X132395238Y-87673809D02*
X132395238Y-88054761D01*
X132823809Y-87864285D02*
X133204761Y-87864285D01*
X133014285Y-87673809D02*
X133014285Y-88054761D01*
X133442857Y-87864285D02*
X133823809Y-87864285D01*
X133633333Y-87673809D02*
X133633333Y-88054761D01*
X134061904Y-87864285D02*
X134442857Y-87864285D01*
X134252380Y-87673809D02*
X134252380Y-88054761D01*
X134680952Y-87721428D02*
X134704761Y-87697619D01*
X134680952Y-87673809D01*
X134657142Y-87697619D01*
X134680952Y-87721428D01*
X134680952Y-87673809D01*
X134919047Y-87864285D02*
X135300000Y-87864285D01*
X135109523Y-87673809D02*
X135109523Y-88054761D01*
X135538095Y-87721428D02*
X135561904Y-87697619D01*
X135538095Y-87673809D01*
X135514285Y-87697619D01*
X135538095Y-87721428D01*
X135538095Y-87673809D01*
X135776190Y-87864285D02*
X136157142Y-87864285D01*
X136395238Y-87864285D02*
X136776190Y-87864285D01*
X137014285Y-87864285D02*
X137395238Y-87864285D01*
X137633333Y-87864285D02*
X138014285Y-87864285D01*
X138252380Y-87864285D02*
X138633333Y-87864285D01*
X138871428Y-87864285D02*
X139252380Y-87864285D01*
X139490476Y-87864285D02*
X139871428Y-87864285D01*
X140109523Y-87864285D02*
X140490476Y-87864285D01*
X140728571Y-87864285D02*
X141109523Y-87864285D01*
X141347619Y-87864285D02*
X141728571Y-87864285D01*
X141966666Y-87864285D02*
X142347619Y-87864285D01*
X142585714Y-87864285D02*
X142966666Y-87864285D01*
X143204761Y-87864285D02*
X143585714Y-87864285D01*
X143823809Y-87864285D02*
X144204761Y-87864285D01*
X144442857Y-87864285D02*
X144823809Y-87864285D01*
X145061904Y-87721428D02*
X145085714Y-87697619D01*
X145061904Y-87673809D01*
X145038095Y-87697619D01*
X145061904Y-87721428D01*
X145061904Y-87673809D01*
X145300000Y-87864285D02*
X145680952Y-87864285D01*
X145490476Y-87673809D02*
X145490476Y-88054761D01*
X145919047Y-87864285D02*
X146300000Y-87864285D01*
X146109523Y-87673809D02*
X146109523Y-88054761D01*
X146538095Y-87864285D02*
X146919047Y-87864285D01*
X146728571Y-87673809D02*
X146728571Y-88054761D01*
X147157142Y-87864285D02*
X147538095Y-87864285D01*
X147347619Y-87673809D02*
X147347619Y-88054761D01*
X147776190Y-87864285D02*
X148157142Y-87864285D01*
X147966666Y-87673809D02*
X147966666Y-88054761D01*
X148395238Y-87864285D02*
X148776190Y-87864285D01*
X148585714Y-87673809D02*
X148585714Y-88054761D01*
X149014285Y-87864285D02*
X149395238Y-87864285D01*
X149204761Y-87673809D02*
X149204761Y-88054761D01*
X149633333Y-87864285D02*
X150014285Y-87864285D01*
X149823809Y-87673809D02*
X149823809Y-88054761D01*
X150252380Y-87864285D02*
X150633333Y-87864285D01*
X150442857Y-87673809D02*
X150442857Y-88054761D01*
X150871428Y-87864285D02*
X151252380Y-87864285D01*
X151061904Y-87673809D02*
X151061904Y-88054761D01*
X151490476Y-87864285D02*
X151871428Y-87864285D01*
X151680952Y-87673809D02*
X151680952Y-88054761D01*
X152109523Y-87864285D02*
X152490476Y-87864285D01*
X152300000Y-87673809D02*
X152300000Y-88054761D01*
X152728571Y-87864285D02*
X153109523Y-87864285D01*
X152919047Y-87673809D02*
X152919047Y-88054761D01*
X153347619Y-87721428D02*
X153371428Y-87697619D01*
X153347619Y-87673809D01*
X153323809Y-87697619D01*
X153347619Y-87721428D01*
X153347619Y-87673809D01*
X153966666Y-88007142D02*
X153585714Y-87864285D01*
X153966666Y-87721428D01*
X154585714Y-88007142D02*
X154204761Y-87864285D01*
X154585714Y-87721428D01*
X154823809Y-87721428D02*
X154847619Y-87697619D01*
X154823809Y-87673809D01*
X154800000Y-87697619D01*
X154823809Y-87721428D01*
X154823809Y-87673809D01*
X155061904Y-87864285D02*
X155442857Y-87864285D01*
X155252380Y-87673809D02*
X155252380Y-88054761D01*
X155680952Y-87864285D02*
X156061904Y-87864285D01*
X155871428Y-87673809D02*
X155871428Y-88054761D01*
X156300000Y-87864285D02*
X156680952Y-87864285D01*
X156490476Y-87673809D02*
X156490476Y-88054761D01*
X156919047Y-87864285D02*
X157300000Y-87864285D01*
X157109523Y-87673809D02*
X157109523Y-88054761D01*
X157538095Y-87864285D02*
X157919047Y-87864285D01*
X157728571Y-87673809D02*
X157728571Y-88054761D01*
X158157142Y-87864285D02*
X158538095Y-87864285D01*
X158347619Y-87673809D02*
X158347619Y-88054761D01*
X158776190Y-87864285D02*
X159157142Y-87864285D01*
X158966666Y-87673809D02*
X158966666Y-88054761D01*
X159395238Y-87864285D02*
X159776190Y-87864285D01*
X159585714Y-87673809D02*
X159585714Y-88054761D01*
X160014285Y-87864285D02*
X160395238Y-87864285D01*
X160204761Y-87673809D02*
X160204761Y-88054761D01*
X132204761Y-87039285D02*
X132585714Y-87039285D01*
X132395238Y-86848809D02*
X132395238Y-87229761D01*
X132823809Y-87039285D02*
X133204761Y-87039285D01*
X133014285Y-86848809D02*
X133014285Y-87229761D01*
X133442857Y-87039285D02*
X133823809Y-87039285D01*
X133633333Y-86848809D02*
X133633333Y-87229761D01*
X134061904Y-87039285D02*
X134442857Y-87039285D01*
X134252380Y-86848809D02*
X134252380Y-87229761D01*
X134680952Y-87039285D02*
X135061904Y-87039285D01*
X134871428Y-86848809D02*
X134871428Y-87229761D01*
X135300000Y-87039285D02*
X135680952Y-87039285D01*
X135490476Y-86848809D02*
X135490476Y-87229761D01*
X135919047Y-87039285D02*
X136300000Y-87039285D01*
X136109523Y-86848809D02*
X136109523Y-87229761D01*
X136538095Y-87039285D02*
X136919047Y-87039285D01*
X136728571Y-86848809D02*
X136728571Y-87229761D01*
X137157142Y-87039285D02*
X137538095Y-87039285D01*
X137347619Y-86848809D02*
X137347619Y-87229761D01*
X137776190Y-86896428D02*
X137800000Y-86872619D01*
X137776190Y-86848809D01*
X137752380Y-86872619D01*
X137776190Y-86896428D01*
X137776190Y-86848809D01*
X138014285Y-87039285D02*
X138395238Y-87039285D01*
X138633333Y-87039285D02*
X139014285Y-87039285D01*
X139252380Y-86896428D02*
X139276190Y-86872619D01*
X139252380Y-86848809D01*
X139228571Y-86872619D01*
X139252380Y-86896428D01*
X139252380Y-86848809D01*
X139490476Y-87039285D02*
X139871428Y-87039285D01*
X139680952Y-86848809D02*
X139680952Y-87229761D01*
X140109523Y-86896428D02*
X140133333Y-86872619D01*
X140109523Y-86848809D01*
X140085714Y-86872619D01*
X140109523Y-86896428D01*
X140109523Y-86848809D01*
X140347619Y-87039285D02*
X140728571Y-87039285D01*
X140538095Y-86848809D02*
X140538095Y-87229761D01*
X140966666Y-87039285D02*
X141347619Y-87039285D01*
X141157142Y-86848809D02*
X141157142Y-87229761D01*
X141585714Y-87039285D02*
X141966666Y-87039285D01*
X141776190Y-86848809D02*
X141776190Y-87229761D01*
X142204761Y-87039285D02*
X142585714Y-87039285D01*
X142395238Y-86848809D02*
X142395238Y-87229761D01*
X142823809Y-87039285D02*
X143204761Y-87039285D01*
X143014285Y-86848809D02*
X143014285Y-87229761D01*
X143442857Y-87039285D02*
X143823809Y-87039285D01*
X143633333Y-86848809D02*
X143633333Y-87229761D01*
X144061904Y-87039285D02*
X144442857Y-87039285D01*
X144252380Y-86848809D02*
X144252380Y-87229761D01*
X144680952Y-87039285D02*
X145061904Y-87039285D01*
X144871428Y-86848809D02*
X144871428Y-87229761D01*
X145300000Y-86896428D02*
X145323809Y-86872619D01*
X145300000Y-86848809D01*
X145276190Y-86872619D01*
X145300000Y-86896428D01*
X145300000Y-86848809D01*
X145919047Y-87182142D02*
X145538095Y-87039285D01*
X145919047Y-86896428D01*
X146157142Y-87039285D02*
X146538095Y-87039285D01*
X146347619Y-86848809D02*
X146347619Y-87229761D01*
X146776190Y-87039285D02*
X147157142Y-87039285D01*
X146966666Y-86848809D02*
X146966666Y-87229761D01*
X147395238Y-87039285D02*
X147776190Y-87039285D01*
X147585714Y-86848809D02*
X147585714Y-87229761D01*
X148014285Y-87039285D02*
X148395238Y-87039285D01*
X148204761Y-86848809D02*
X148204761Y-87229761D01*
X148633333Y-87039285D02*
X149014285Y-87039285D01*
X148823809Y-86848809D02*
X148823809Y-87229761D01*
X149252380Y-87039285D02*
X149633333Y-87039285D01*
X149442857Y-86848809D02*
X149442857Y-87229761D01*
X149871428Y-87039285D02*
X150252380Y-87039285D01*
X150061904Y-86848809D02*
X150061904Y-87229761D01*
X150490476Y-87039285D02*
X150871428Y-87039285D01*
X150680952Y-86848809D02*
X150680952Y-87229761D01*
X151109523Y-87039285D02*
X151490476Y-87039285D01*
X151300000Y-86848809D02*
X151300000Y-87229761D01*
X151728571Y-87039285D02*
X152109523Y-87039285D01*
X151919047Y-86848809D02*
X151919047Y-87229761D01*
X152347619Y-87039285D02*
X152728571Y-87039285D01*
X152538095Y-86848809D02*
X152538095Y-87229761D01*
X152966666Y-87039285D02*
X153347619Y-87039285D01*
X153157142Y-86848809D02*
X153157142Y-87229761D01*
X153585714Y-87039285D02*
X153966666Y-87039285D01*
X153776190Y-86848809D02*
X153776190Y-87229761D01*
X154204761Y-87039285D02*
X154585714Y-87039285D01*
X154395238Y-86848809D02*
X154395238Y-87229761D01*
X154823809Y-87039285D02*
X155204761Y-87039285D01*
X155014285Y-86848809D02*
X155014285Y-87229761D01*
X155442857Y-87039285D02*
X155823809Y-87039285D01*
X155633333Y-86848809D02*
X155633333Y-87229761D01*
X156061904Y-87039285D02*
X156442857Y-87039285D01*
X156252380Y-86848809D02*
X156252380Y-87229761D01*
X156680952Y-87039285D02*
X157061904Y-87039285D01*
X156871428Y-86848809D02*
X156871428Y-87229761D01*
X157300000Y-87039285D02*
X157680952Y-87039285D01*
X157490476Y-86848809D02*
X157490476Y-87229761D01*
X157919047Y-87039285D02*
X158300000Y-87039285D01*
X158109523Y-86848809D02*
X158109523Y-87229761D01*
X158538095Y-87039285D02*
X158919047Y-87039285D01*
X158728571Y-86848809D02*
X158728571Y-87229761D01*
X159157142Y-87039285D02*
X159538095Y-87039285D01*
X159347619Y-86848809D02*
X159347619Y-87229761D01*
X159776190Y-86896428D02*
X159800000Y-86872619D01*
X159776190Y-86848809D01*
X159752380Y-86872619D01*
X159776190Y-86896428D01*
X159776190Y-86848809D01*
X160014285Y-87182142D02*
X160395238Y-87039285D01*
X160014285Y-86896428D01*
X131633333Y-86214285D02*
X132014285Y-86214285D01*
X132252380Y-86214285D02*
X132633333Y-86214285D01*
X132871428Y-86214285D02*
X133252380Y-86214285D01*
X133490476Y-86214285D02*
X133871428Y-86214285D01*
X134109523Y-86214285D02*
X134490476Y-86214285D01*
X134728571Y-86214285D02*
X135109523Y-86214285D01*
X135347619Y-86214285D02*
X135728571Y-86214285D01*
X135966666Y-86214285D02*
X136347619Y-86214285D01*
X136585714Y-86214285D02*
X136966666Y-86214285D01*
X137204761Y-86214285D02*
X137585714Y-86214285D01*
X137823809Y-86214285D02*
X138204761Y-86214285D01*
X138442857Y-86214285D02*
X138823809Y-86214285D01*
X139061904Y-86071428D02*
X139085714Y-86047619D01*
X139061904Y-86023809D01*
X139038095Y-86047619D01*
X139061904Y-86071428D01*
X139061904Y-86023809D01*
X139680952Y-86357142D02*
X139300000Y-86214285D01*
X139680952Y-86071428D01*
X139919047Y-86214285D02*
X140300000Y-86214285D01*
X140109523Y-86023809D02*
X140109523Y-86404761D01*
X140538095Y-86214285D02*
X140919047Y-86214285D01*
X140728571Y-86023809D02*
X140728571Y-86404761D01*
X141157142Y-86214285D02*
X141538095Y-86214285D01*
X141347619Y-86023809D02*
X141347619Y-86404761D01*
X141776190Y-86214285D02*
X142157142Y-86214285D01*
X141966666Y-86023809D02*
X141966666Y-86404761D01*
X142395238Y-86214285D02*
X142776190Y-86214285D01*
X142585714Y-86023809D02*
X142585714Y-86404761D01*
X143014285Y-86214285D02*
X143395238Y-86214285D01*
X143204761Y-86023809D02*
X143204761Y-86404761D01*
X143633333Y-86214285D02*
X144014285Y-86214285D01*
X143823809Y-86023809D02*
X143823809Y-86404761D01*
X144252380Y-86214285D02*
X144633333Y-86214285D01*
X144442857Y-86023809D02*
X144442857Y-86404761D01*
X144871428Y-86214285D02*
X145252380Y-86214285D01*
X145061904Y-86023809D02*
X145061904Y-86404761D01*
X145490476Y-86214285D02*
X145871428Y-86214285D01*
X145680952Y-86023809D02*
X145680952Y-86404761D01*
X146109523Y-86214285D02*
X146490476Y-86214285D01*
X146300000Y-86023809D02*
X146300000Y-86404761D01*
X146728571Y-86214285D02*
X147109523Y-86214285D01*
X146919047Y-86023809D02*
X146919047Y-86404761D01*
X147347619Y-86214285D02*
X147728571Y-86214285D01*
X147538095Y-86023809D02*
X147538095Y-86404761D01*
X147966666Y-86214285D02*
X148347619Y-86214285D01*
X148157142Y-86023809D02*
X148157142Y-86404761D01*
X148585714Y-86214285D02*
X148966666Y-86214285D01*
X148776190Y-86023809D02*
X148776190Y-86404761D01*
X149204761Y-86214285D02*
X149585714Y-86214285D01*
X149395238Y-86023809D02*
X149395238Y-86404761D01*
X149823809Y-86214285D02*
X150204761Y-86214285D01*
X150014285Y-86023809D02*
X150014285Y-86404761D01*
X150442857Y-86214285D02*
X150823809Y-86214285D01*
X150633333Y-86023809D02*
X150633333Y-86404761D01*
X151061904Y-86214285D02*
X151442857Y-86214285D01*
X151252380Y-86023809D02*
X151252380Y-86404761D01*
X151680952Y-86214285D02*
X152061904Y-86214285D01*
X151871428Y-86023809D02*
X151871428Y-86404761D01*
X152300000Y-86214285D02*
X152680952Y-86214285D01*
X152490476Y-86023809D02*
X152490476Y-86404761D01*
X152919047Y-86214285D02*
X153300000Y-86214285D01*
X153109523Y-86023809D02*
X153109523Y-86404761D01*
X153538095Y-86214285D02*
X153919047Y-86214285D01*
X153728571Y-86023809D02*
X153728571Y-86404761D01*
X154157142Y-86214285D02*
X154538095Y-86214285D01*
X154347619Y-86023809D02*
X154347619Y-86404761D01*
X154776190Y-86214285D02*
X155157142Y-86214285D01*
X154966666Y-86023809D02*
X154966666Y-86404761D01*
X155395238Y-86214285D02*
X155776190Y-86214285D01*
X155585714Y-86023809D02*
X155585714Y-86404761D01*
X156014285Y-86214285D02*
X156395238Y-86214285D01*
X156204761Y-86023809D02*
X156204761Y-86404761D01*
X156633333Y-86214285D02*
X157014285Y-86214285D01*
X156823809Y-86023809D02*
X156823809Y-86404761D01*
X157252380Y-86214285D02*
X157633333Y-86214285D01*
X157442857Y-86023809D02*
X157442857Y-86404761D01*
X157871428Y-86214285D02*
X158252380Y-86214285D01*
X158061904Y-86023809D02*
X158061904Y-86404761D01*
X158490476Y-86214285D02*
X158871428Y-86214285D01*
X158680952Y-86023809D02*
X158680952Y-86404761D01*
X159109523Y-86214285D02*
X159490476Y-86214285D01*
X159300000Y-86023809D02*
X159300000Y-86404761D01*
X159728571Y-86071428D02*
X159752380Y-86047619D01*
X159728571Y-86023809D01*
X159704761Y-86047619D01*
X159728571Y-86071428D01*
X159728571Y-86023809D01*
X159966666Y-86357142D02*
X160347619Y-86214285D01*
X159966666Y-86071428D01*
X160585714Y-86357142D02*
X160966666Y-86214285D01*
X160585714Y-86071428D01*
X137585714Y-85532142D02*
X137966666Y-85389285D01*
X137585714Y-85246428D01*
X138204761Y-85389285D02*
X138585714Y-85389285D01*
X138823809Y-85389285D02*
X139204761Y-85389285D01*
X139442857Y-85389285D02*
X139823809Y-85389285D01*
X140061904Y-85389285D02*
X140442857Y-85389285D01*
X140680952Y-85389285D02*
X141061904Y-85389285D01*
X141300000Y-85389285D02*
X141680952Y-85389285D01*
X141919047Y-85389285D02*
X142300000Y-85389285D01*
X142538095Y-85389285D02*
X142919047Y-85389285D01*
X143157142Y-85246428D02*
X143180952Y-85222619D01*
X143157142Y-85198809D01*
X143133333Y-85222619D01*
X143157142Y-85246428D01*
X143157142Y-85198809D01*
X143395238Y-85389285D02*
X143776190Y-85389285D01*
X143585714Y-85198809D02*
X143585714Y-85579761D01*
X144014285Y-85389285D02*
X144395238Y-85389285D01*
X144204761Y-85198809D02*
X144204761Y-85579761D01*
X144633333Y-85389285D02*
X145014285Y-85389285D01*
X144823809Y-85198809D02*
X144823809Y-85579761D01*
X145252380Y-85389285D02*
X145633333Y-85389285D01*
X145442857Y-85198809D02*
X145442857Y-85579761D01*
X145871428Y-85389285D02*
X146252380Y-85389285D01*
X146061904Y-85198809D02*
X146061904Y-85579761D01*
X146490476Y-85389285D02*
X146871428Y-85389285D01*
X146680952Y-85198809D02*
X146680952Y-85579761D01*
X147109523Y-85389285D02*
X147490476Y-85389285D01*
X147300000Y-85198809D02*
X147300000Y-85579761D01*
X147728571Y-85389285D02*
X148109523Y-85389285D01*
X147919047Y-85198809D02*
X147919047Y-85579761D01*
X148347619Y-85246428D02*
X148371428Y-85222619D01*
X148347619Y-85198809D01*
X148323809Y-85222619D01*
X148347619Y-85246428D01*
X148347619Y-85198809D01*
X148585714Y-85389285D02*
X148966666Y-85389285D01*
X148776190Y-85198809D02*
X148776190Y-85579761D01*
X149204761Y-85389285D02*
X149585714Y-85389285D01*
X149395238Y-85198809D02*
X149395238Y-85579761D01*
X149823809Y-85389285D02*
X150204761Y-85389285D01*
X150014285Y-85198809D02*
X150014285Y-85579761D01*
X150442857Y-85389285D02*
X150823809Y-85389285D01*
X150633333Y-85198809D02*
X150633333Y-85579761D01*
X151061904Y-85389285D02*
X151442857Y-85389285D01*
X151252380Y-85198809D02*
X151252380Y-85579761D01*
X151680952Y-85246428D02*
X151704761Y-85222619D01*
X151680952Y-85198809D01*
X151657142Y-85222619D01*
X151680952Y-85246428D01*
X151680952Y-85198809D01*
X151919047Y-85389285D02*
X152300000Y-85389285D01*
X152538095Y-85389285D02*
X152919047Y-85389285D01*
X153157142Y-85389285D02*
X153538095Y-85389285D01*
X153776190Y-85389285D02*
X154157142Y-85389285D01*
X154395238Y-85389285D02*
X154776190Y-85389285D01*
X155014285Y-85246428D02*
X155038095Y-85222619D01*
X155014285Y-85198809D01*
X154990476Y-85222619D01*
X155014285Y-85246428D01*
X155014285Y-85198809D01*
X142531285Y-55888714D02*
X142631285Y-55745857D01*
X142702714Y-55888714D02*
X142702714Y-55588714D01*
X142588428Y-55588714D01*
X142559857Y-55603000D01*
X142545571Y-55617285D01*
X142531285Y-55645857D01*
X142531285Y-55688714D01*
X142545571Y-55717285D01*
X142559857Y-55731571D01*
X142588428Y-55745857D01*
X142702714Y-55745857D01*
X142417000Y-55874428D02*
X142374142Y-55888714D01*
X142302714Y-55888714D01*
X142274142Y-55874428D01*
X142259857Y-55860142D01*
X142245571Y-55831571D01*
X142245571Y-55803000D01*
X142259857Y-55774428D01*
X142274142Y-55760142D01*
X142302714Y-55745857D01*
X142359857Y-55731571D01*
X142388428Y-55717285D01*
X142402714Y-55703000D01*
X142417000Y-55674428D01*
X142417000Y-55645857D01*
X142402714Y-55617285D01*
X142388428Y-55603000D01*
X142359857Y-55588714D01*
X142288428Y-55588714D01*
X142245571Y-55603000D01*
X142159857Y-55588714D02*
X141988428Y-55588714D01*
X142074142Y-55888714D02*
X142074142Y-55588714D01*
X142721000Y-56858714D02*
X142535285Y-56858714D01*
X142635285Y-56973000D01*
X142592428Y-56973000D01*
X142563857Y-56987285D01*
X142549571Y-57001571D01*
X142535285Y-57030142D01*
X142535285Y-57101571D01*
X142549571Y-57130142D01*
X142563857Y-57144428D01*
X142592428Y-57158714D01*
X142678142Y-57158714D01*
X142706714Y-57144428D01*
X142721000Y-57130142D01*
X142563857Y-58228714D02*
X142563857Y-58428714D01*
X142635285Y-58114428D02*
X142706714Y-58328714D01*
X142521000Y-58328714D01*
X142468571Y-59413000D02*
X142497142Y-59398714D01*
X142540000Y-59398714D01*
X142582857Y-59413000D01*
X142611428Y-59441571D01*
X142625714Y-59470142D01*
X142640000Y-59527285D01*
X142640000Y-59570142D01*
X142625714Y-59627285D01*
X142611428Y-59655857D01*
X142582857Y-59684428D01*
X142540000Y-59698714D01*
X142511428Y-59698714D01*
X142468571Y-59684428D01*
X142454285Y-59670142D01*
X142454285Y-59570142D01*
X142511428Y-59570142D01*
X142325714Y-59698714D02*
X142325714Y-59398714D01*
X142154285Y-59698714D01*
X142154285Y-59398714D01*
X142011428Y-59698714D02*
X142011428Y-59398714D01*
X141940000Y-59398714D01*
X141897142Y-59413000D01*
X141868571Y-59441571D01*
X141854285Y-59470142D01*
X141840000Y-59527285D01*
X141840000Y-59570142D01*
X141854285Y-59627285D01*
X141868571Y-59655857D01*
X141897142Y-59684428D01*
X141940000Y-59698714D01*
X142011428Y-59698714D01*
X149747285Y-59398714D02*
X149718714Y-59398714D01*
X149690142Y-59413000D01*
X149675857Y-59427285D01*
X149661571Y-59455857D01*
X149647285Y-59513000D01*
X149647285Y-59584428D01*
X149661571Y-59641571D01*
X149675857Y-59670142D01*
X149690142Y-59684428D01*
X149718714Y-59698714D01*
X149747285Y-59698714D01*
X149775857Y-59684428D01*
X149790142Y-59670142D01*
X149804428Y-59641571D01*
X149818714Y-59584428D01*
X149818714Y-59513000D01*
X149804428Y-59455857D01*
X149790142Y-59427285D01*
X149775857Y-59413000D01*
X149747285Y-59398714D01*
X149647285Y-58428714D02*
X149818714Y-58428714D01*
X149733000Y-58428714D02*
X149733000Y-58128714D01*
X149761571Y-58171571D01*
X149790142Y-58200142D01*
X149818714Y-58214428D01*
X149818714Y-56887285D02*
X149804428Y-56873000D01*
X149775857Y-56858714D01*
X149704428Y-56858714D01*
X149675857Y-56873000D01*
X149661571Y-56887285D01*
X149647285Y-56915857D01*
X149647285Y-56944428D01*
X149661571Y-56987285D01*
X149833000Y-57158714D01*
X149647285Y-57158714D01*
X150514000Y-55588714D02*
X150414000Y-55888714D01*
X150314000Y-55588714D01*
X150042571Y-55860142D02*
X150056857Y-55874428D01*
X150099714Y-55888714D01*
X150128285Y-55888714D01*
X150171142Y-55874428D01*
X150199714Y-55845857D01*
X150214000Y-55817285D01*
X150228285Y-55760142D01*
X150228285Y-55717285D01*
X150214000Y-55660142D01*
X150199714Y-55631571D01*
X150171142Y-55603000D01*
X150128285Y-55588714D01*
X150099714Y-55588714D01*
X150056857Y-55603000D01*
X150042571Y-55617285D01*
X149742571Y-55860142D02*
X149756857Y-55874428D01*
X149799714Y-55888714D01*
X149828285Y-55888714D01*
X149871142Y-55874428D01*
X149899714Y-55845857D01*
X149914000Y-55817285D01*
X149928285Y-55760142D01*
X149928285Y-55717285D01*
X149914000Y-55660142D01*
X149899714Y-55631571D01*
X149871142Y-55603000D01*
X149828285Y-55588714D01*
X149799714Y-55588714D01*
X149756857Y-55603000D01*
X149742571Y-55617285D01*
X147084142Y-53508500D02*
X146941285Y-53508500D01*
X147112714Y-53594214D02*
X147012714Y-53294214D01*
X146912714Y-53594214D01*
X146855571Y-53294214D02*
X146684142Y-53294214D01*
X146769857Y-53594214D02*
X146769857Y-53294214D01*
X146627000Y-53294214D02*
X146455571Y-53294214D01*
X146541285Y-53594214D02*
X146541285Y-53294214D01*
X146355571Y-53594214D02*
X146355571Y-53394214D01*
X146355571Y-53294214D02*
X146369857Y-53308500D01*
X146355571Y-53322785D01*
X146341285Y-53308500D01*
X146355571Y-53294214D01*
X146355571Y-53322785D01*
X146212714Y-53394214D02*
X146212714Y-53594214D01*
X146212714Y-53422785D02*
X146198428Y-53408500D01*
X146169857Y-53394214D01*
X146127000Y-53394214D01*
X146098428Y-53408500D01*
X146084142Y-53437071D01*
X146084142Y-53594214D01*
X145969857Y-53394214D02*
X145898428Y-53594214D01*
X145827000Y-53394214D02*
X145898428Y-53594214D01*
X145927000Y-53665642D01*
X145941285Y-53679928D01*
X145969857Y-53694214D01*
X145669857Y-53422785D02*
X145698428Y-53408500D01*
X145712714Y-53394214D01*
X145727000Y-53365642D01*
X145727000Y-53351357D01*
X145712714Y-53322785D01*
X145698428Y-53308500D01*
X145669857Y-53294214D01*
X145612714Y-53294214D01*
X145584142Y-53308500D01*
X145569857Y-53322785D01*
X145555571Y-53351357D01*
X145555571Y-53365642D01*
X145569857Y-53394214D01*
X145584142Y-53408500D01*
X145612714Y-53422785D01*
X145669857Y-53422785D01*
X145698428Y-53437071D01*
X145712714Y-53451357D01*
X145727000Y-53479928D01*
X145727000Y-53537071D01*
X145712714Y-53565642D01*
X145698428Y-53579928D01*
X145669857Y-53594214D01*
X145612714Y-53594214D01*
X145584142Y-53579928D01*
X145569857Y-53565642D01*
X145555571Y-53537071D01*
X145555571Y-53479928D01*
X145569857Y-53451357D01*
X145584142Y-53437071D01*
X145612714Y-53422785D01*
X145284142Y-53294214D02*
X145427000Y-53294214D01*
X145441285Y-53437071D01*
X145427000Y-53422785D01*
X145398428Y-53408500D01*
X145327000Y-53408500D01*
X145298428Y-53422785D01*
X145284142Y-53437071D01*
X145269857Y-53465642D01*
X145269857Y-53537071D01*
X145284142Y-53565642D01*
X145298428Y-53579928D01*
X145327000Y-53594214D01*
X145398428Y-53594214D01*
X145427000Y-53579928D01*
X145441285Y-53565642D01*
X148648428Y-54119214D02*
X148648428Y-53819214D01*
X148519857Y-54104928D02*
X148477000Y-54119214D01*
X148405571Y-54119214D01*
X148377000Y-54104928D01*
X148362714Y-54090642D01*
X148348428Y-54062071D01*
X148348428Y-54033500D01*
X148362714Y-54004928D01*
X148377000Y-53990642D01*
X148405571Y-53976357D01*
X148462714Y-53962071D01*
X148491285Y-53947785D01*
X148505571Y-53933500D01*
X148519857Y-53904928D01*
X148519857Y-53876357D01*
X148505571Y-53847785D01*
X148491285Y-53833500D01*
X148462714Y-53819214D01*
X148391285Y-53819214D01*
X148348428Y-53833500D01*
X148219857Y-54119214D02*
X148219857Y-53819214D01*
X148105571Y-53819214D01*
X148077000Y-53833500D01*
X148062714Y-53847785D01*
X148048428Y-53876357D01*
X148048428Y-53919214D01*
X148062714Y-53947785D01*
X148077000Y-53962071D01*
X148105571Y-53976357D01*
X148219857Y-53976357D01*
X147691285Y-54119214D02*
X147691285Y-53819214D01*
X147577000Y-53819214D01*
X147548428Y-53833500D01*
X147534142Y-53847785D01*
X147519857Y-53876357D01*
X147519857Y-53919214D01*
X147534142Y-53947785D01*
X147548428Y-53962071D01*
X147577000Y-53976357D01*
X147691285Y-53976357D01*
X147391285Y-54119214D02*
X147391285Y-53919214D01*
X147391285Y-53976357D02*
X147377000Y-53947785D01*
X147362714Y-53933500D01*
X147334142Y-53919214D01*
X147305571Y-53919214D01*
X147162714Y-54119214D02*
X147191285Y-54104928D01*
X147205571Y-54090642D01*
X147219857Y-54062071D01*
X147219857Y-53976357D01*
X147205571Y-53947785D01*
X147191285Y-53933500D01*
X147162714Y-53919214D01*
X147119857Y-53919214D01*
X147091285Y-53933500D01*
X147077000Y-53947785D01*
X147062714Y-53976357D01*
X147062714Y-54062071D01*
X147077000Y-54090642D01*
X147091285Y-54104928D01*
X147119857Y-54119214D01*
X147162714Y-54119214D01*
X146805571Y-53919214D02*
X146805571Y-54162071D01*
X146819857Y-54190642D01*
X146834142Y-54204928D01*
X146862714Y-54219214D01*
X146905571Y-54219214D01*
X146934142Y-54204928D01*
X146805571Y-54104928D02*
X146834142Y-54119214D01*
X146891285Y-54119214D01*
X146919857Y-54104928D01*
X146934142Y-54090642D01*
X146948428Y-54062071D01*
X146948428Y-53976357D01*
X146934142Y-53947785D01*
X146919857Y-53933500D01*
X146891285Y-53919214D01*
X146834142Y-53919214D01*
X146805571Y-53933500D01*
X146662714Y-54119214D02*
X146662714Y-53919214D01*
X146662714Y-53976357D02*
X146648428Y-53947785D01*
X146634142Y-53933500D01*
X146605571Y-53919214D01*
X146577000Y-53919214D01*
X146348428Y-54119214D02*
X146348428Y-53962071D01*
X146362714Y-53933500D01*
X146391285Y-53919214D01*
X146448428Y-53919214D01*
X146477000Y-53933500D01*
X146348428Y-54104928D02*
X146377000Y-54119214D01*
X146448428Y-54119214D01*
X146477000Y-54104928D01*
X146491285Y-54076357D01*
X146491285Y-54047785D01*
X146477000Y-54019214D01*
X146448428Y-54004928D01*
X146377000Y-54004928D01*
X146348428Y-53990642D01*
X146205571Y-54119214D02*
X146205571Y-53919214D01*
X146205571Y-53947785D02*
X146191285Y-53933500D01*
X146162714Y-53919214D01*
X146119857Y-53919214D01*
X146091285Y-53933500D01*
X146077000Y-53962071D01*
X146077000Y-54119214D01*
X146077000Y-53962071D02*
X146062714Y-53933500D01*
X146034142Y-53919214D01*
X145991285Y-53919214D01*
X145962714Y-53933500D01*
X145948428Y-53962071D01*
X145948428Y-54119214D01*
X145805571Y-54119214D02*
X145805571Y-53919214D01*
X145805571Y-53947785D02*
X145791285Y-53933500D01*
X145762714Y-53919214D01*
X145719857Y-53919214D01*
X145691285Y-53933500D01*
X145677000Y-53962071D01*
X145677000Y-54119214D01*
X145677000Y-53962071D02*
X145662714Y-53933500D01*
X145634142Y-53919214D01*
X145591285Y-53919214D01*
X145562714Y-53933500D01*
X145548428Y-53962071D01*
X145548428Y-54119214D01*
X145405571Y-54119214D02*
X145405571Y-53919214D01*
X145405571Y-53819214D02*
X145419857Y-53833500D01*
X145405571Y-53847785D01*
X145391285Y-53833500D01*
X145405571Y-53819214D01*
X145405571Y-53847785D01*
X145262714Y-53919214D02*
X145262714Y-54119214D01*
X145262714Y-53947785D02*
X145248428Y-53933500D01*
X145219857Y-53919214D01*
X145177000Y-53919214D01*
X145148428Y-53933500D01*
X145134142Y-53962071D01*
X145134142Y-54119214D01*
X144862714Y-53919214D02*
X144862714Y-54162071D01*
X144877000Y-54190642D01*
X144891285Y-54204928D01*
X144919857Y-54219214D01*
X144962714Y-54219214D01*
X144991285Y-54204928D01*
X144862714Y-54104928D02*
X144891285Y-54119214D01*
X144948428Y-54119214D01*
X144977000Y-54104928D01*
X144991285Y-54090642D01*
X145005571Y-54062071D01*
X145005571Y-53976357D01*
X144991285Y-53947785D01*
X144977000Y-53933500D01*
X144948428Y-53919214D01*
X144891285Y-53919214D01*
X144862714Y-53933500D01*
X144491285Y-54119214D02*
X144491285Y-53819214D01*
X144377000Y-53819214D01*
X144348428Y-53833500D01*
X144334142Y-53847785D01*
X144319857Y-53876357D01*
X144319857Y-53919214D01*
X144334142Y-53947785D01*
X144348428Y-53962071D01*
X144377000Y-53976357D01*
X144491285Y-53976357D01*
X144148428Y-54119214D02*
X144177000Y-54104928D01*
X144191285Y-54090642D01*
X144205571Y-54062071D01*
X144205571Y-53976357D01*
X144191285Y-53947785D01*
X144177000Y-53933500D01*
X144148428Y-53919214D01*
X144105571Y-53919214D01*
X144077000Y-53933500D01*
X144062714Y-53947785D01*
X144048428Y-53976357D01*
X144048428Y-54062071D01*
X144062714Y-54090642D01*
X144077000Y-54104928D01*
X144105571Y-54119214D01*
X144148428Y-54119214D01*
X143919857Y-54119214D02*
X143919857Y-53919214D01*
X143919857Y-53976357D02*
X143905571Y-53947785D01*
X143891285Y-53933500D01*
X143862714Y-53919214D01*
X143834142Y-53919214D01*
X143777000Y-53919214D02*
X143662714Y-53919214D01*
X143734142Y-53819214D02*
X143734142Y-54076357D01*
X143719857Y-54104928D01*
X143691285Y-54119214D01*
X143662714Y-54119214D01*
X178842857Y-45758928D02*
X178800000Y-45773214D01*
X178728571Y-45773214D01*
X178700000Y-45758928D01*
X178685714Y-45744642D01*
X178671428Y-45716071D01*
X178671428Y-45687500D01*
X178685714Y-45658928D01*
X178700000Y-45644642D01*
X178728571Y-45630357D01*
X178785714Y-45616071D01*
X178814285Y-45601785D01*
X178828571Y-45587500D01*
X178842857Y-45558928D01*
X178842857Y-45530357D01*
X178828571Y-45501785D01*
X178814285Y-45487500D01*
X178785714Y-45473214D01*
X178714285Y-45473214D01*
X178671428Y-45487500D01*
X178542857Y-45773214D02*
X178542857Y-45473214D01*
X178414285Y-45773214D02*
X178414285Y-45616071D01*
X178428571Y-45587500D01*
X178457142Y-45573214D01*
X178500000Y-45573214D01*
X178528571Y-45587500D01*
X178542857Y-45601785D01*
X178271428Y-45773214D02*
X178271428Y-45573214D01*
X178271428Y-45473214D02*
X178285714Y-45487500D01*
X178271428Y-45501785D01*
X178257142Y-45487500D01*
X178271428Y-45473214D01*
X178271428Y-45501785D01*
X178171428Y-45573214D02*
X178057142Y-45573214D01*
X178128571Y-45473214D02*
X178128571Y-45730357D01*
X178114285Y-45758928D01*
X178085714Y-45773214D01*
X178057142Y-45773214D01*
X178000000Y-45573214D02*
X177885714Y-45573214D01*
X177957142Y-45473214D02*
X177957142Y-45730357D01*
X177942857Y-45758928D01*
X177914285Y-45773214D01*
X177885714Y-45773214D01*
X177814285Y-45573214D02*
X177742857Y-45773214D01*
X177671428Y-45573214D02*
X177742857Y-45773214D01*
X177771428Y-45844642D01*
X177785714Y-45858928D01*
X177814285Y-45873214D01*
X177342857Y-45687500D02*
X177200000Y-45687500D01*
X177371428Y-45773214D02*
X177271428Y-45473214D01*
X177171428Y-45773214D01*
X176942857Y-45773214D02*
X176942857Y-45473214D01*
X176942857Y-45758928D02*
X176971428Y-45773214D01*
X177028571Y-45773214D01*
X177057142Y-45758928D01*
X177071428Y-45744642D01*
X177085714Y-45716071D01*
X177085714Y-45630357D01*
X177071428Y-45601785D01*
X177057142Y-45587500D01*
X177028571Y-45573214D01*
X176971428Y-45573214D01*
X176942857Y-45587500D01*
X176671428Y-45773214D02*
X176671428Y-45473214D01*
X176671428Y-45758928D02*
X176700000Y-45773214D01*
X176757142Y-45773214D01*
X176785714Y-45758928D01*
X176800000Y-45744642D01*
X176814285Y-45716071D01*
X176814285Y-45630357D01*
X176800000Y-45601785D01*
X176785714Y-45587500D01*
X176757142Y-45573214D01*
X176700000Y-45573214D01*
X176671428Y-45587500D01*
X176485714Y-45773214D02*
X176514285Y-45758928D01*
X176528571Y-45744642D01*
X176542857Y-45716071D01*
X176542857Y-45630357D01*
X176528571Y-45601785D01*
X176514285Y-45587500D01*
X176485714Y-45573214D01*
X176442857Y-45573214D01*
X176414285Y-45587500D01*
X176400000Y-45601785D01*
X176385714Y-45630357D01*
X176385714Y-45716071D01*
X176400000Y-45744642D01*
X176414285Y-45758928D01*
X176442857Y-45773214D01*
X176485714Y-45773214D01*
X176257142Y-45573214D02*
X176257142Y-45773214D01*
X176257142Y-45601785D02*
X176242857Y-45587500D01*
X176214285Y-45573214D01*
X176171428Y-45573214D01*
X176142857Y-45587500D01*
X176128571Y-45616071D01*
X176128571Y-45773214D01*
X175757142Y-45773214D02*
X175757142Y-45473214D01*
X175642857Y-45473214D01*
X175614285Y-45487500D01*
X175600000Y-45501785D01*
X175585714Y-45530357D01*
X175585714Y-45573214D01*
X175600000Y-45601785D01*
X175614285Y-45616071D01*
X175642857Y-45630357D01*
X175757142Y-45630357D01*
X175414285Y-45773214D02*
X175442857Y-45758928D01*
X175457142Y-45744642D01*
X175471428Y-45716071D01*
X175471428Y-45630357D01*
X175457142Y-45601785D01*
X175442857Y-45587500D01*
X175414285Y-45573214D01*
X175371428Y-45573214D01*
X175342857Y-45587500D01*
X175328571Y-45601785D01*
X175314285Y-45630357D01*
X175314285Y-45716071D01*
X175328571Y-45744642D01*
X175342857Y-45758928D01*
X175371428Y-45773214D01*
X175414285Y-45773214D01*
X175185714Y-45773214D02*
X175185714Y-45573214D01*
X175185714Y-45630357D02*
X175171428Y-45601785D01*
X175157142Y-45587500D01*
X175128571Y-45573214D01*
X175100000Y-45573214D01*
X175042857Y-45573214D02*
X174928571Y-45573214D01*
X175000000Y-45473214D02*
X175000000Y-45730357D01*
X174985714Y-45758928D01*
X174957142Y-45773214D01*
X174928571Y-45773214D01*
X178164285Y-46098214D02*
X177950000Y-46098214D01*
X178078571Y-45969642D02*
X178164285Y-46355357D01*
X177978571Y-46226785D02*
X178192857Y-46226785D01*
X178064285Y-46355357D02*
X177978571Y-45969642D01*
X177750000Y-46141071D02*
X177707142Y-46155357D01*
X177692857Y-46169642D01*
X177678571Y-46198214D01*
X177678571Y-46241071D01*
X177692857Y-46269642D01*
X177707142Y-46283928D01*
X177735714Y-46298214D01*
X177850000Y-46298214D01*
X177850000Y-45998214D01*
X177750000Y-45998214D01*
X177721428Y-46012500D01*
X177707142Y-46026785D01*
X177692857Y-46055357D01*
X177692857Y-46083928D01*
X177707142Y-46112500D01*
X177721428Y-46126785D01*
X177750000Y-46141071D01*
X177850000Y-46141071D01*
X177564285Y-46212500D02*
X177421428Y-46212500D01*
X177592857Y-46298214D02*
X177492857Y-45998214D01*
X177392857Y-46298214D01*
X177292857Y-46298214D02*
X177292857Y-45998214D01*
X177221428Y-45998214D01*
X177178571Y-46012500D01*
X177150000Y-46041071D01*
X177135714Y-46069642D01*
X177121428Y-46126785D01*
X177121428Y-46169642D01*
X177135714Y-46226785D01*
X177150000Y-46255357D01*
X177178571Y-46283928D01*
X177221428Y-46298214D01*
X177292857Y-46298214D01*
X176835714Y-46012500D02*
X176864285Y-45998214D01*
X176907142Y-45998214D01*
X176950000Y-46012500D01*
X176978571Y-46041071D01*
X176992857Y-46069642D01*
X177007142Y-46126785D01*
X177007142Y-46169642D01*
X176992857Y-46226785D01*
X176978571Y-46255357D01*
X176950000Y-46283928D01*
X176907142Y-46298214D01*
X176878571Y-46298214D01*
X176835714Y-46283928D01*
X176821428Y-46269642D01*
X176821428Y-46169642D01*
X176878571Y-46169642D01*
X176692857Y-46141071D02*
X176592857Y-46141071D01*
X176550000Y-46298214D02*
X176692857Y-46298214D01*
X176692857Y-45998214D01*
X176550000Y-45998214D01*
X176278571Y-46298214D02*
X176421428Y-46298214D01*
X176421428Y-45998214D01*
X176178571Y-46298214D02*
X176178571Y-45998214D01*
X175935714Y-46141071D02*
X176035714Y-46141071D01*
X176035714Y-46298214D02*
X176035714Y-45998214D01*
X175892857Y-45998214D01*
X175778571Y-46141071D02*
X175678571Y-46141071D01*
X175635714Y-46298214D02*
X175778571Y-46298214D01*
X175778571Y-45998214D01*
X175635714Y-45998214D01*
X117442857Y-45958928D02*
X117400000Y-45973214D01*
X117328571Y-45973214D01*
X117300000Y-45958928D01*
X117285714Y-45944642D01*
X117271428Y-45916071D01*
X117271428Y-45887500D01*
X117285714Y-45858928D01*
X117300000Y-45844642D01*
X117328571Y-45830357D01*
X117385714Y-45816071D01*
X117414285Y-45801785D01*
X117428571Y-45787500D01*
X117442857Y-45758928D01*
X117442857Y-45730357D01*
X117428571Y-45701785D01*
X117414285Y-45687500D01*
X117385714Y-45673214D01*
X117314285Y-45673214D01*
X117271428Y-45687500D01*
X117142857Y-45973214D02*
X117142857Y-45673214D01*
X117014285Y-45973214D02*
X117014285Y-45816071D01*
X117028571Y-45787500D01*
X117057142Y-45773214D01*
X117100000Y-45773214D01*
X117128571Y-45787500D01*
X117142857Y-45801785D01*
X116871428Y-45973214D02*
X116871428Y-45773214D01*
X116871428Y-45673214D02*
X116885714Y-45687500D01*
X116871428Y-45701785D01*
X116857142Y-45687500D01*
X116871428Y-45673214D01*
X116871428Y-45701785D01*
X116771428Y-45773214D02*
X116657142Y-45773214D01*
X116728571Y-45673214D02*
X116728571Y-45930357D01*
X116714285Y-45958928D01*
X116685714Y-45973214D01*
X116657142Y-45973214D01*
X116600000Y-45773214D02*
X116485714Y-45773214D01*
X116557142Y-45673214D02*
X116557142Y-45930357D01*
X116542857Y-45958928D01*
X116514285Y-45973214D01*
X116485714Y-45973214D01*
X116414285Y-45773214D02*
X116342857Y-45973214D01*
X116271428Y-45773214D02*
X116342857Y-45973214D01*
X116371428Y-46044642D01*
X116385714Y-46058928D01*
X116414285Y-46073214D01*
X115942857Y-45887500D02*
X115800000Y-45887500D01*
X115971428Y-45973214D02*
X115871428Y-45673214D01*
X115771428Y-45973214D01*
X115542857Y-45973214D02*
X115542857Y-45673214D01*
X115542857Y-45958928D02*
X115571428Y-45973214D01*
X115628571Y-45973214D01*
X115657142Y-45958928D01*
X115671428Y-45944642D01*
X115685714Y-45916071D01*
X115685714Y-45830357D01*
X115671428Y-45801785D01*
X115657142Y-45787500D01*
X115628571Y-45773214D01*
X115571428Y-45773214D01*
X115542857Y-45787500D01*
X115271428Y-45973214D02*
X115271428Y-45673214D01*
X115271428Y-45958928D02*
X115300000Y-45973214D01*
X115357142Y-45973214D01*
X115385714Y-45958928D01*
X115400000Y-45944642D01*
X115414285Y-45916071D01*
X115414285Y-45830357D01*
X115400000Y-45801785D01*
X115385714Y-45787500D01*
X115357142Y-45773214D01*
X115300000Y-45773214D01*
X115271428Y-45787500D01*
X115085714Y-45973214D02*
X115114285Y-45958928D01*
X115128571Y-45944642D01*
X115142857Y-45916071D01*
X115142857Y-45830357D01*
X115128571Y-45801785D01*
X115114285Y-45787500D01*
X115085714Y-45773214D01*
X115042857Y-45773214D01*
X115014285Y-45787500D01*
X115000000Y-45801785D01*
X114985714Y-45830357D01*
X114985714Y-45916071D01*
X115000000Y-45944642D01*
X115014285Y-45958928D01*
X115042857Y-45973214D01*
X115085714Y-45973214D01*
X114857142Y-45773214D02*
X114857142Y-45973214D01*
X114857142Y-45801785D02*
X114842857Y-45787500D01*
X114814285Y-45773214D01*
X114771428Y-45773214D01*
X114742857Y-45787500D01*
X114728571Y-45816071D01*
X114728571Y-45973214D01*
X114357142Y-45973214D02*
X114357142Y-45673214D01*
X114242857Y-45673214D01*
X114214285Y-45687500D01*
X114200000Y-45701785D01*
X114185714Y-45730357D01*
X114185714Y-45773214D01*
X114200000Y-45801785D01*
X114214285Y-45816071D01*
X114242857Y-45830357D01*
X114357142Y-45830357D01*
X114014285Y-45973214D02*
X114042857Y-45958928D01*
X114057142Y-45944642D01*
X114071428Y-45916071D01*
X114071428Y-45830357D01*
X114057142Y-45801785D01*
X114042857Y-45787500D01*
X114014285Y-45773214D01*
X113971428Y-45773214D01*
X113942857Y-45787500D01*
X113928571Y-45801785D01*
X113914285Y-45830357D01*
X113914285Y-45916071D01*
X113928571Y-45944642D01*
X113942857Y-45958928D01*
X113971428Y-45973214D01*
X114014285Y-45973214D01*
X113785714Y-45973214D02*
X113785714Y-45773214D01*
X113785714Y-45830357D02*
X113771428Y-45801785D01*
X113757142Y-45787500D01*
X113728571Y-45773214D01*
X113700000Y-45773214D01*
X113642857Y-45773214D02*
X113528571Y-45773214D01*
X113600000Y-45673214D02*
X113600000Y-45930357D01*
X113585714Y-45958928D01*
X113557142Y-45973214D01*
X113528571Y-45973214D01*
X116764285Y-46298214D02*
X116550000Y-46298214D01*
X116678571Y-46169642D02*
X116764285Y-46555357D01*
X116578571Y-46426785D02*
X116792857Y-46426785D01*
X116664285Y-46555357D02*
X116578571Y-46169642D01*
X116350000Y-46341071D02*
X116307142Y-46355357D01*
X116292857Y-46369642D01*
X116278571Y-46398214D01*
X116278571Y-46441071D01*
X116292857Y-46469642D01*
X116307142Y-46483928D01*
X116335714Y-46498214D01*
X116450000Y-46498214D01*
X116450000Y-46198214D01*
X116350000Y-46198214D01*
X116321428Y-46212500D01*
X116307142Y-46226785D01*
X116292857Y-46255357D01*
X116292857Y-46283928D01*
X116307142Y-46312500D01*
X116321428Y-46326785D01*
X116350000Y-46341071D01*
X116450000Y-46341071D01*
X116164285Y-46412500D02*
X116021428Y-46412500D01*
X116192857Y-46498214D02*
X116092857Y-46198214D01*
X115992857Y-46498214D01*
X115892857Y-46498214D02*
X115892857Y-46198214D01*
X115821428Y-46198214D01*
X115778571Y-46212500D01*
X115750000Y-46241071D01*
X115735714Y-46269642D01*
X115721428Y-46326785D01*
X115721428Y-46369642D01*
X115735714Y-46426785D01*
X115750000Y-46455357D01*
X115778571Y-46483928D01*
X115821428Y-46498214D01*
X115892857Y-46498214D01*
X115435714Y-46212500D02*
X115464285Y-46198214D01*
X115507142Y-46198214D01*
X115550000Y-46212500D01*
X115578571Y-46241071D01*
X115592857Y-46269642D01*
X115607142Y-46326785D01*
X115607142Y-46369642D01*
X115592857Y-46426785D01*
X115578571Y-46455357D01*
X115550000Y-46483928D01*
X115507142Y-46498214D01*
X115478571Y-46498214D01*
X115435714Y-46483928D01*
X115421428Y-46469642D01*
X115421428Y-46369642D01*
X115478571Y-46369642D01*
X115292857Y-46341071D02*
X115192857Y-46341071D01*
X115150000Y-46498214D02*
X115292857Y-46498214D01*
X115292857Y-46198214D01*
X115150000Y-46198214D01*
X114878571Y-46498214D02*
X115021428Y-46498214D01*
X115021428Y-46198214D01*
X114778571Y-46498214D02*
X114778571Y-46198214D01*
X114535714Y-46341071D02*
X114635714Y-46341071D01*
X114635714Y-46498214D02*
X114635714Y-46198214D01*
X114492857Y-46198214D01*
X114378571Y-46341071D02*
X114278571Y-46341071D01*
X114235714Y-46498214D02*
X114378571Y-46498214D01*
X114378571Y-46198214D01*
X114235714Y-46198214D01*
D11*
X172871428Y-96978571D02*
X172871428Y-95478571D01*
X172514285Y-95478571D01*
X172300000Y-95550000D01*
X172157142Y-95692857D01*
X172085714Y-95835714D01*
X172014285Y-96121428D01*
X172014285Y-96335714D01*
X172085714Y-96621428D01*
X172157142Y-96764285D01*
X172300000Y-96907142D01*
X172514285Y-96978571D01*
X172871428Y-96978571D01*
X170800000Y-96907142D02*
X170942857Y-96978571D01*
X171228571Y-96978571D01*
X171371428Y-96907142D01*
X171442857Y-96764285D01*
X171442857Y-96192857D01*
X171371428Y-96050000D01*
X171228571Y-95978571D01*
X170942857Y-95978571D01*
X170800000Y-96050000D01*
X170728571Y-96192857D01*
X170728571Y-96335714D01*
X171442857Y-96478571D01*
X170157142Y-96907142D02*
X170014285Y-96978571D01*
X169728571Y-96978571D01*
X169585714Y-96907142D01*
X169514285Y-96764285D01*
X169514285Y-96692857D01*
X169585714Y-96550000D01*
X169728571Y-96478571D01*
X169942857Y-96478571D01*
X170085714Y-96407142D01*
X170157142Y-96264285D01*
X170157142Y-96192857D01*
X170085714Y-96050000D01*
X169942857Y-95978571D01*
X169728571Y-95978571D01*
X169585714Y-96050000D01*
X168871428Y-96978571D02*
X168871428Y-95978571D01*
X168871428Y-95478571D02*
X168942857Y-95550000D01*
X168871428Y-95621428D01*
X168800000Y-95550000D01*
X168871428Y-95478571D01*
X168871428Y-95621428D01*
X167514285Y-95978571D02*
X167514285Y-97192857D01*
X167585714Y-97335714D01*
X167657142Y-97407142D01*
X167800000Y-97478571D01*
X168014285Y-97478571D01*
X168157142Y-97407142D01*
X167514285Y-96907142D02*
X167657142Y-96978571D01*
X167942857Y-96978571D01*
X168085714Y-96907142D01*
X168157142Y-96835714D01*
X168228571Y-96692857D01*
X168228571Y-96264285D01*
X168157142Y-96121428D01*
X168085714Y-96050000D01*
X167942857Y-95978571D01*
X167657142Y-95978571D01*
X167514285Y-96050000D01*
X166800000Y-95978571D02*
X166800000Y-96978571D01*
X166800000Y-96121428D02*
X166728571Y-96050000D01*
X166585714Y-95978571D01*
X166371428Y-95978571D01*
X166228571Y-96050000D01*
X166157142Y-96192857D01*
X166157142Y-96978571D01*
X164871428Y-96907142D02*
X165014285Y-96978571D01*
X165300000Y-96978571D01*
X165442857Y-96907142D01*
X165514285Y-96764285D01*
X165514285Y-96192857D01*
X165442857Y-96050000D01*
X165300000Y-95978571D01*
X165014285Y-95978571D01*
X164871428Y-96050000D01*
X164800000Y-96192857D01*
X164800000Y-96335714D01*
X165514285Y-96478571D01*
X163514285Y-96978571D02*
X163514285Y-95478571D01*
X163514285Y-96907142D02*
X163657142Y-96978571D01*
X163942857Y-96978571D01*
X164085714Y-96907142D01*
X164157142Y-96835714D01*
X164228571Y-96692857D01*
X164228571Y-96264285D01*
X164157142Y-96121428D01*
X164085714Y-96050000D01*
X163942857Y-95978571D01*
X163657142Y-95978571D01*
X163514285Y-96050000D01*
X161657142Y-96978571D02*
X161657142Y-95478571D01*
X161657142Y-96050000D02*
X161514285Y-95978571D01*
X161228571Y-95978571D01*
X161085714Y-96050000D01*
X161014285Y-96121428D01*
X160942857Y-96264285D01*
X160942857Y-96692857D01*
X161014285Y-96835714D01*
X161085714Y-96907142D01*
X161228571Y-96978571D01*
X161514285Y-96978571D01*
X161657142Y-96907142D01*
X160442857Y-95978571D02*
X160085714Y-96978571D01*
X159728571Y-95978571D02*
X160085714Y-96978571D01*
X160228571Y-97335714D01*
X160300000Y-97407142D01*
X160442857Y-97478571D01*
X159157142Y-96835714D02*
X159085714Y-96907142D01*
X159157142Y-96978571D01*
X159228571Y-96907142D01*
X159157142Y-96835714D01*
X159157142Y-96978571D01*
X159157142Y-96050000D02*
X159085714Y-96121428D01*
X159157142Y-96192857D01*
X159228571Y-96121428D01*
X159157142Y-96050000D01*
X159157142Y-96192857D01*
X156871428Y-95478571D02*
X156871428Y-96550000D01*
X156942857Y-96764285D01*
X157085714Y-96907142D01*
X157300000Y-96978571D01*
X157442857Y-96978571D01*
X155300000Y-96978571D02*
X155800000Y-96264285D01*
X156157142Y-96978571D02*
X156157142Y-95478571D01*
X155585714Y-95478571D01*
X155442857Y-95550000D01*
X155371428Y-95621428D01*
X155300000Y-95764285D01*
X155300000Y-95978571D01*
X155371428Y-96121428D01*
X155442857Y-96192857D01*
X155585714Y-96264285D01*
X156157142Y-96264285D01*
X154800000Y-95478571D02*
X154442857Y-96978571D01*
X154157142Y-95907142D01*
X153871428Y-96978571D01*
X153514285Y-95478571D01*
X152085714Y-96978571D02*
X152585714Y-96264285D01*
X152942857Y-96978571D02*
X152942857Y-95478571D01*
X152371428Y-95478571D01*
X152228571Y-95550000D01*
X152157142Y-95621428D01*
X152085714Y-95764285D01*
X152085714Y-95978571D01*
X152157142Y-96121428D01*
X152228571Y-96192857D01*
X152371428Y-96264285D01*
X152942857Y-96264285D01*
X150085714Y-96978571D02*
X150228571Y-96907142D01*
X150300000Y-96835714D01*
X150371428Y-96692857D01*
X150371428Y-96264285D01*
X150300000Y-96121428D01*
X150228571Y-96050000D01*
X150085714Y-95978571D01*
X149871428Y-95978571D01*
X149728571Y-96050000D01*
X149657142Y-96121428D01*
X149585714Y-96264285D01*
X149585714Y-96692857D01*
X149657142Y-96835714D01*
X149728571Y-96907142D01*
X149871428Y-96978571D01*
X150085714Y-96978571D01*
X149157142Y-95978571D02*
X148585714Y-95978571D01*
X148942857Y-96978571D02*
X148942857Y-95692857D01*
X148871428Y-95550000D01*
X148728571Y-95478571D01*
X148585714Y-95478571D01*
X147157142Y-95478571D02*
X146300000Y-95478571D01*
X146728571Y-96978571D02*
X146728571Y-95478571D01*
X145228571Y-96907142D02*
X145371428Y-96978571D01*
X145657142Y-96978571D01*
X145800000Y-96907142D01*
X145871428Y-96764285D01*
X145871428Y-96192857D01*
X145800000Y-96050000D01*
X145657142Y-95978571D01*
X145371428Y-95978571D01*
X145228571Y-96050000D01*
X145157142Y-96192857D01*
X145157142Y-96335714D01*
X145871428Y-96478571D01*
X143871428Y-96978571D02*
X143871428Y-96192857D01*
X143942857Y-96050000D01*
X144085714Y-95978571D01*
X144371428Y-95978571D01*
X144514285Y-96050000D01*
X143871428Y-96907142D02*
X144014285Y-96978571D01*
X144371428Y-96978571D01*
X144514285Y-96907142D01*
X144585714Y-96764285D01*
X144585714Y-96621428D01*
X144514285Y-96478571D01*
X144371428Y-96407142D01*
X144014285Y-96407142D01*
X143871428Y-96335714D01*
X143157142Y-96978571D02*
X143157142Y-95978571D01*
X143157142Y-96121428D02*
X143085714Y-96050000D01*
X142942857Y-95978571D01*
X142728571Y-95978571D01*
X142585714Y-96050000D01*
X142514285Y-96192857D01*
X142514285Y-96978571D01*
X142514285Y-96192857D02*
X142442857Y-96050000D01*
X142300000Y-95978571D01*
X142085714Y-95978571D01*
X141942857Y-96050000D01*
X141871428Y-96192857D01*
X141871428Y-96978571D01*
X140014285Y-96978571D02*
X140014285Y-95478571D01*
X139300000Y-95978571D02*
X139300000Y-96978571D01*
X139300000Y-96121428D02*
X139228571Y-96050000D01*
X139085714Y-95978571D01*
X138871428Y-95978571D01*
X138728571Y-96050000D01*
X138657142Y-96192857D01*
X138657142Y-96978571D01*
X138157142Y-95978571D02*
X137585714Y-95978571D01*
X137942857Y-95478571D02*
X137942857Y-96764285D01*
X137871428Y-96907142D01*
X137728571Y-96978571D01*
X137585714Y-96978571D01*
X136514285Y-96907142D02*
X136657142Y-96978571D01*
X136942857Y-96978571D01*
X137085714Y-96907142D01*
X137157142Y-96764285D01*
X137157142Y-96192857D01*
X137085714Y-96050000D01*
X136942857Y-95978571D01*
X136657142Y-95978571D01*
X136514285Y-96050000D01*
X136442857Y-96192857D01*
X136442857Y-96335714D01*
X137157142Y-96478571D01*
X135799999Y-96978571D02*
X135799999Y-95978571D01*
X135799999Y-96264285D02*
X135728571Y-96121428D01*
X135657142Y-96050000D01*
X135514285Y-95978571D01*
X135371428Y-95978571D01*
X134657142Y-96978571D02*
X134799999Y-96907142D01*
X134871428Y-96764285D01*
X134871428Y-95478571D01*
X133871428Y-96978571D02*
X134014285Y-96907142D01*
X134085714Y-96835714D01*
X134157142Y-96692857D01*
X134157142Y-96264285D01*
X134085714Y-96121428D01*
X134014285Y-96050000D01*
X133871428Y-95978571D01*
X133657142Y-95978571D01*
X133514285Y-96050000D01*
X133442857Y-96121428D01*
X133371428Y-96264285D01*
X133371428Y-96692857D01*
X133442857Y-96835714D01*
X133514285Y-96907142D01*
X133657142Y-96978571D01*
X133871428Y-96978571D01*
X132085714Y-96907142D02*
X132228571Y-96978571D01*
X132514285Y-96978571D01*
X132657142Y-96907142D01*
X132728571Y-96835714D01*
X132799999Y-96692857D01*
X132799999Y-96264285D01*
X132728571Y-96121428D01*
X132657142Y-96050000D01*
X132514285Y-95978571D01*
X132228571Y-95978571D01*
X132085714Y-96050000D01*
X131442857Y-96978571D02*
X131442857Y-95478571D01*
X131299999Y-96407142D02*
X130871428Y-96978571D01*
X130871428Y-95978571D02*
X131442857Y-96550000D01*
X128228571Y-96978571D02*
X128728571Y-96264285D01*
X129085714Y-96978571D02*
X129085714Y-95478571D01*
X128514285Y-95478571D01*
X128371428Y-95550000D01*
X128299999Y-95621428D01*
X128228571Y-95764285D01*
X128228571Y-95978571D01*
X128299999Y-96121428D01*
X128371428Y-96192857D01*
X128514285Y-96264285D01*
X129085714Y-96264285D01*
X127371428Y-96978571D02*
X127514285Y-96907142D01*
X127585714Y-96835714D01*
X127657142Y-96692857D01*
X127657142Y-96264285D01*
X127585714Y-96121428D01*
X127514285Y-96050000D01*
X127371428Y-95978571D01*
X127157142Y-95978571D01*
X127014285Y-96050000D01*
X126942857Y-96121428D01*
X126871428Y-96264285D01*
X126871428Y-96692857D01*
X126942857Y-96835714D01*
X127014285Y-96907142D01*
X127157142Y-96978571D01*
X127371428Y-96978571D01*
X125585714Y-96907142D02*
X125728571Y-96978571D01*
X126014285Y-96978571D01*
X126157142Y-96907142D01*
X126228571Y-96835714D01*
X126299999Y-96692857D01*
X126299999Y-96264285D01*
X126228571Y-96121428D01*
X126157142Y-96050000D01*
X126014285Y-95978571D01*
X125728571Y-95978571D01*
X125585714Y-96050000D01*
X124942857Y-96978571D02*
X124942857Y-95478571D01*
X124299999Y-96978571D02*
X124299999Y-96192857D01*
X124371428Y-96050000D01*
X124514285Y-95978571D01*
X124728571Y-95978571D01*
X124871428Y-96050000D01*
X124942857Y-96121428D01*
X123014285Y-96907142D02*
X123157142Y-96978571D01*
X123442857Y-96978571D01*
X123585714Y-96907142D01*
X123657142Y-96764285D01*
X123657142Y-96192857D01*
X123585714Y-96050000D01*
X123442857Y-95978571D01*
X123157142Y-95978571D01*
X123014285Y-96050000D01*
X122942857Y-96192857D01*
X122942857Y-96335714D01*
X123657142Y-96478571D01*
X122371428Y-96907142D02*
X122228571Y-96978571D01*
X121942857Y-96978571D01*
X121799999Y-96907142D01*
X121728571Y-96764285D01*
X121728571Y-96692857D01*
X121799999Y-96550000D01*
X121942857Y-96478571D01*
X122157142Y-96478571D01*
X122299999Y-96407142D01*
X122371428Y-96264285D01*
X122371428Y-96192857D01*
X122299999Y-96050000D01*
X122157142Y-95978571D01*
X121942857Y-95978571D01*
X121799999Y-96050000D01*
X121299999Y-95978571D02*
X120728571Y-95978571D01*
X121085714Y-95478571D02*
X121085714Y-96764285D01*
X121014285Y-96907142D01*
X120871428Y-96978571D01*
X120728571Y-96978571D01*
X119657142Y-96907142D02*
X119799999Y-96978571D01*
X120085714Y-96978571D01*
X120228571Y-96907142D01*
X120299999Y-96764285D01*
X120299999Y-96192857D01*
X120228571Y-96050000D01*
X120085714Y-95978571D01*
X119799999Y-95978571D01*
X119657142Y-96050000D01*
X119585714Y-96192857D01*
X119585714Y-96335714D01*
X120299999Y-96478571D01*
X118942857Y-96978571D02*
X118942857Y-95978571D01*
X118942857Y-96264285D02*
X118871428Y-96121428D01*
X118799999Y-96050000D01*
X118657142Y-95978571D01*
X118514285Y-95978571D01*
D12*
G04 #@! TO.C,BT-2032-1*
X169890399Y-79076464D02*
G75*
G03X181895000Y-79080000I6004601J7806464D01*
G01*
X169891646Y-79063470D02*
G75*
G03X166555000Y-80050000I-1306646J-1716530D01*
G01*
X165115000Y-84000000D02*
X166555000Y-80050000D01*
X167195000Y-95170000D02*
X165115000Y-93090000D01*
X184595000Y-95170000D02*
X167195000Y-95170000D01*
X184595000Y-95170000D02*
X186675000Y-93090000D01*
X186675000Y-84000000D02*
X185235000Y-80050000D01*
X185220244Y-80041831D02*
G75*
G03X181895000Y-79080000I-2015244J-738169D01*
G01*
X165115000Y-93090000D02*
X165115000Y-90630000D01*
X165115000Y-84630000D02*
X165115000Y-84000000D01*
X186675000Y-93090000D02*
X186675000Y-90630000D01*
X186675000Y-84630000D02*
X186675000Y-84000000D01*
G04 #@! TO.C,BT-2032-2*
X127747000Y-84630000D02*
X127747000Y-84000000D01*
X127747000Y-93090000D02*
X127747000Y-90630000D01*
X106187000Y-84630000D02*
X106187000Y-84000000D01*
X106187000Y-93090000D02*
X106187000Y-90630000D01*
X126292244Y-80041831D02*
G75*
G03X122967000Y-79080000I-2015244J-738169D01*
G01*
X127747000Y-84000000D02*
X126307000Y-80050000D01*
X125667000Y-95170000D02*
X127747000Y-93090000D01*
X125667000Y-95170000D02*
X108267000Y-95170000D01*
X108267000Y-95170000D02*
X106187000Y-93090000D01*
X106187000Y-84000000D02*
X107627000Y-80050000D01*
X110963646Y-79063470D02*
G75*
G03X107627000Y-80050000I-1306646J-1716530D01*
G01*
X110962399Y-79076464D02*
G75*
G03X122967000Y-79080000I6004601J7806464D01*
G01*
D13*
G04 #@! TO.C,R56-Ohm10*
X167153000Y-58833936D02*
X167153000Y-60038064D01*
X165333000Y-58833936D02*
X165333000Y-60038064D01*
G04 #@! TO.C,R56-Ohm8*
X161449936Y-56663000D02*
X162654064Y-56663000D01*
X161449936Y-54843000D02*
X162654064Y-54843000D01*
G04 #@! TO.C,R56-Ohm9*
X161703936Y-62590000D02*
X162908064Y-62590000D01*
X161703936Y-64410000D02*
X162908064Y-64410000D01*
G04 #@! TO.C,R56-Ohm1*
X126386000Y-60292064D02*
X126386000Y-59087936D01*
X124566000Y-60292064D02*
X124566000Y-59087936D01*
G04 #@! TO.C,R56-Ohm2*
X132948000Y-60165064D02*
X132948000Y-58960936D01*
X134768000Y-60165064D02*
X134768000Y-58960936D01*
G04 #@! TO.C,R56-Ohm3*
X128810936Y-56536000D02*
X130015064Y-56536000D01*
X128810936Y-54716000D02*
X130015064Y-54716000D01*
G04 #@! TO.C,R56-Ohm4*
X128810936Y-78465000D02*
X130015064Y-78465000D01*
X128810936Y-80285000D02*
X130015064Y-80285000D01*
G04 #@! TO.C,R56-Ohm5*
X129064936Y-64029000D02*
X130269064Y-64029000D01*
X129064936Y-62209000D02*
X130269064Y-62209000D01*
G04 #@! TO.C,R56-Ohm6*
X162211936Y-78465000D02*
X163416064Y-78465000D01*
X162211936Y-80285000D02*
X163416064Y-80285000D01*
G04 #@! TO.C,R56-Ohm7*
X159533000Y-60292064D02*
X159533000Y-59087936D01*
X157713000Y-60292064D02*
X157713000Y-59087936D01*
G04 #@! TO.C,SMDPROGCONN*
X147380000Y-60198000D02*
X148840000Y-60198000D01*
X144720000Y-55118000D02*
X144720000Y-55058000D01*
X144720000Y-60258000D02*
X144720000Y-60198000D01*
X144720000Y-55058000D02*
X147380000Y-55058000D01*
X147380000Y-55118000D02*
X147380000Y-55058000D01*
X147380000Y-60258000D02*
X147380000Y-60198000D01*
X144720000Y-60258000D02*
X147380000Y-60258000D01*
G04 #@! TO.C,J2*
D12*
X113893333Y-39576666D02*
X113660000Y-40276666D01*
X113426666Y-39576666D01*
X112793333Y-40210000D02*
X112826666Y-40243333D01*
X112926666Y-40276666D01*
X112993333Y-40276666D01*
X113093333Y-40243333D01*
X113160000Y-40176666D01*
X113193333Y-40110000D01*
X113226666Y-39976666D01*
X113226666Y-39876666D01*
X113193333Y-39743333D01*
X113160000Y-39676666D01*
X113093333Y-39610000D01*
X112993333Y-39576666D01*
X112926666Y-39576666D01*
X112826666Y-39610000D01*
X112793333Y-39643333D01*
X112093333Y-40210000D02*
X112126666Y-40243333D01*
X112226666Y-40276666D01*
X112293333Y-40276666D01*
X112393333Y-40243333D01*
X112460000Y-40176666D01*
X112493333Y-40110000D01*
X112526666Y-39976666D01*
X112526666Y-39876666D01*
X112493333Y-39743333D01*
X112460000Y-39676666D01*
X112393333Y-39610000D01*
X112293333Y-39576666D01*
X112226666Y-39576666D01*
X112126666Y-39610000D01*
X112093333Y-39643333D01*
X113493333Y-44690000D02*
X113560000Y-44656666D01*
X113660000Y-44656666D01*
X113760000Y-44690000D01*
X113826666Y-44756666D01*
X113860000Y-44823333D01*
X113893333Y-44956666D01*
X113893333Y-45056666D01*
X113860000Y-45190000D01*
X113826666Y-45256666D01*
X113760000Y-45323333D01*
X113660000Y-45356666D01*
X113593333Y-45356666D01*
X113493333Y-45323333D01*
X113460000Y-45290000D01*
X113460000Y-45056666D01*
X113593333Y-45056666D01*
X113160000Y-45356666D02*
X113160000Y-44656666D01*
X112760000Y-45356666D01*
X112760000Y-44656666D01*
X112426666Y-45356666D02*
X112426666Y-44656666D01*
X112260000Y-44656666D01*
X112160000Y-44690000D01*
X112093333Y-44756666D01*
X112060000Y-44823333D01*
X112026666Y-44956666D01*
X112026666Y-45056666D01*
X112060000Y-45190000D01*
X112093333Y-45256666D01*
X112160000Y-45323333D01*
X112260000Y-45356666D01*
X112426666Y-45356666D01*
X118073333Y-44656666D02*
X118006666Y-44656666D01*
X117940000Y-44690000D01*
X117906666Y-44723333D01*
X117873333Y-44790000D01*
X117840000Y-44923333D01*
X117840000Y-45090000D01*
X117873333Y-45223333D01*
X117906666Y-45290000D01*
X117940000Y-45323333D01*
X118006666Y-45356666D01*
X118073333Y-45356666D01*
X118140000Y-45323333D01*
X118173333Y-45290000D01*
X118206666Y-45223333D01*
X118240000Y-45090000D01*
X118240000Y-44923333D01*
X118206666Y-44790000D01*
X118173333Y-44723333D01*
X118140000Y-44690000D01*
X118073333Y-44656666D01*
X118240000Y-39643333D02*
X118206666Y-39610000D01*
X118140000Y-39576666D01*
X117973333Y-39576666D01*
X117906666Y-39610000D01*
X117873333Y-39643333D01*
X117840000Y-39710000D01*
X117840000Y-39776666D01*
X117873333Y-39876666D01*
X118273333Y-40276666D01*
X117840000Y-40276666D01*
X175293333Y-39476666D02*
X175060000Y-40176666D01*
X174826666Y-39476666D01*
X174193333Y-40110000D02*
X174226666Y-40143333D01*
X174326666Y-40176666D01*
X174393333Y-40176666D01*
X174493333Y-40143333D01*
X174560000Y-40076666D01*
X174593333Y-40010000D01*
X174626666Y-39876666D01*
X174626666Y-39776666D01*
X174593333Y-39643333D01*
X174560000Y-39576666D01*
X174493333Y-39510000D01*
X174393333Y-39476666D01*
X174326666Y-39476666D01*
X174226666Y-39510000D01*
X174193333Y-39543333D01*
X173493333Y-40110000D02*
X173526666Y-40143333D01*
X173626666Y-40176666D01*
X173693333Y-40176666D01*
X173793333Y-40143333D01*
X173860000Y-40076666D01*
X173893333Y-40010000D01*
X173926666Y-39876666D01*
X173926666Y-39776666D01*
X173893333Y-39643333D01*
X173860000Y-39576666D01*
X173793333Y-39510000D01*
X173693333Y-39476666D01*
X173626666Y-39476666D01*
X173526666Y-39510000D01*
X173493333Y-39543333D01*
X174893333Y-44590000D02*
X174960000Y-44556666D01*
X175060000Y-44556666D01*
X175160000Y-44590000D01*
X175226666Y-44656666D01*
X175260000Y-44723333D01*
X175293333Y-44856666D01*
X175293333Y-44956666D01*
X175260000Y-45090000D01*
X175226666Y-45156666D01*
X175160000Y-45223333D01*
X175060000Y-45256666D01*
X174993333Y-45256666D01*
X174893333Y-45223333D01*
X174860000Y-45190000D01*
X174860000Y-44956666D01*
X174993333Y-44956666D01*
X174560000Y-45256666D02*
X174560000Y-44556666D01*
X174160000Y-45256666D01*
X174160000Y-44556666D01*
X173826666Y-45256666D02*
X173826666Y-44556666D01*
X173660000Y-44556666D01*
X173560000Y-44590000D01*
X173493333Y-44656666D01*
X173460000Y-44723333D01*
X173426666Y-44856666D01*
X173426666Y-44956666D01*
X173460000Y-45090000D01*
X173493333Y-45156666D01*
X173560000Y-45223333D01*
X173660000Y-45256666D01*
X173826666Y-45256666D01*
X179473333Y-44556666D02*
X179406666Y-44556666D01*
X179340000Y-44590000D01*
X179306666Y-44623333D01*
X179273333Y-44690000D01*
X179240000Y-44823333D01*
X179240000Y-44990000D01*
X179273333Y-45123333D01*
X179306666Y-45190000D01*
X179340000Y-45223333D01*
X179406666Y-45256666D01*
X179473333Y-45256666D01*
X179540000Y-45223333D01*
X179573333Y-45190000D01*
X179606666Y-45123333D01*
X179640000Y-44990000D01*
X179640000Y-44823333D01*
X179606666Y-44690000D01*
X179573333Y-44623333D01*
X179540000Y-44590000D01*
X179473333Y-44556666D01*
X179640000Y-39543333D02*
X179606666Y-39510000D01*
X179540000Y-39476666D01*
X179373333Y-39476666D01*
X179306666Y-39510000D01*
X179273333Y-39543333D01*
X179240000Y-39610000D01*
X179240000Y-39676666D01*
X179273333Y-39776666D01*
X179673333Y-40176666D01*
X179240000Y-40176666D01*
G04 #@! TD*
M02*
