G04 #@! TF.GenerationSoftware,KiCad,Pcbnew,(5.0.0)*
G04 #@! TF.CreationDate,2018-11-20T12:56:54-05:00*
G04 #@! TF.ProjectId,BsidesRock2019,427369646573526F636B323031392E6B,rev?*
G04 #@! TF.SameCoordinates,Original*
G04 #@! TF.FileFunction,Other,Fab,Bot*
%FSLAX46Y46*%
G04 Gerber Fmt 4.6, Leading zero omitted, Abs format (unit mm)*
G04 Created by KiCad (PCBNEW (5.0.0)) date 11/20/18 12:56:54*
%MOMM*%
%LPD*%
G01*
G04 APERTURE LIST*
%ADD10C,0.100000*%
%ADD11C,0.150000*%
%ADD12C,0.120000*%
G04 APERTURE END LIST*
D10*
G04 #@! TO.C,BT-2032-1*
X166705000Y-80100000D02*
X165265000Y-84030000D01*
X165265000Y-84030000D02*
X165265000Y-93030000D01*
X165265000Y-93030000D02*
X167255000Y-95020000D01*
X167255000Y-95020000D02*
X184535000Y-95020000D01*
X184535000Y-95020000D02*
X186525000Y-93030000D01*
X186525000Y-93030000D02*
X186525000Y-84030000D01*
X186525000Y-84030000D02*
X185085000Y-80100000D01*
X185075726Y-80101118D02*
G75*
G03X181995000Y-79200000I-1870726J-678882D01*
G01*
X169800148Y-79203957D02*
G75*
G03X181995000Y-79200000I6094852J7933957D01*
G01*
X169798855Y-79191492D02*
G75*
G03X166705000Y-80100000I-1213855J-1588508D01*
G01*
G04 #@! TO.C,BT-2032-2*
X110870855Y-79191492D02*
G75*
G03X107777000Y-80100000I-1213855J-1588508D01*
G01*
X110872148Y-79203957D02*
G75*
G03X123067000Y-79200000I6094852J7933957D01*
G01*
X126147726Y-80101118D02*
G75*
G03X123067000Y-79200000I-1870726J-678882D01*
G01*
X127597000Y-84030000D02*
X126157000Y-80100000D01*
X127597000Y-93030000D02*
X127597000Y-84030000D01*
X125607000Y-95020000D02*
X127597000Y-93030000D01*
X108327000Y-95020000D02*
X125607000Y-95020000D01*
X106337000Y-93030000D02*
X108327000Y-95020000D01*
X106337000Y-84030000D02*
X106337000Y-93030000D01*
X107777000Y-80100000D02*
X106337000Y-84030000D01*
G04 #@! TO.C,R56-Ohm10*
X167043000Y-61036000D02*
X167043000Y-57836000D01*
X165443000Y-61036000D02*
X167043000Y-61036000D01*
X165443000Y-57836000D02*
X165443000Y-61036000D01*
X167043000Y-57836000D02*
X165443000Y-57836000D01*
G04 #@! TO.C,R56-Ohm8*
X160452000Y-54953000D02*
X160452000Y-56553000D01*
X160452000Y-56553000D02*
X163652000Y-56553000D01*
X163652000Y-56553000D02*
X163652000Y-54953000D01*
X163652000Y-54953000D02*
X160452000Y-54953000D01*
G04 #@! TO.C,R56-Ohm9*
X163906000Y-62700000D02*
X160706000Y-62700000D01*
X163906000Y-64300000D02*
X163906000Y-62700000D01*
X160706000Y-64300000D02*
X163906000Y-64300000D01*
X160706000Y-62700000D02*
X160706000Y-64300000D01*
G04 #@! TO.C,R56-Ohm1*
X124676000Y-61290000D02*
X126276000Y-61290000D01*
X126276000Y-61290000D02*
X126276000Y-58090000D01*
X126276000Y-58090000D02*
X124676000Y-58090000D01*
X124676000Y-58090000D02*
X124676000Y-61290000D01*
G04 #@! TO.C,R56-Ohm2*
X133058000Y-57963000D02*
X133058000Y-61163000D01*
X134658000Y-57963000D02*
X133058000Y-57963000D01*
X134658000Y-61163000D02*
X134658000Y-57963000D01*
X133058000Y-61163000D02*
X134658000Y-61163000D01*
G04 #@! TO.C,R56-Ohm3*
X127813000Y-54826000D02*
X127813000Y-56426000D01*
X127813000Y-56426000D02*
X131013000Y-56426000D01*
X131013000Y-56426000D02*
X131013000Y-54826000D01*
X131013000Y-54826000D02*
X127813000Y-54826000D01*
G04 #@! TO.C,R56-Ohm4*
X131013000Y-78575000D02*
X127813000Y-78575000D01*
X131013000Y-80175000D02*
X131013000Y-78575000D01*
X127813000Y-80175000D02*
X131013000Y-80175000D01*
X127813000Y-78575000D02*
X127813000Y-80175000D01*
G04 #@! TO.C,R56-Ohm5*
X128067000Y-62319000D02*
X128067000Y-63919000D01*
X128067000Y-63919000D02*
X131267000Y-63919000D01*
X131267000Y-63919000D02*
X131267000Y-62319000D01*
X131267000Y-62319000D02*
X128067000Y-62319000D01*
G04 #@! TO.C,R56-Ohm6*
X164414000Y-78575000D02*
X161214000Y-78575000D01*
X164414000Y-80175000D02*
X164414000Y-78575000D01*
X161214000Y-80175000D02*
X164414000Y-80175000D01*
X161214000Y-78575000D02*
X161214000Y-80175000D01*
G04 #@! TO.C,R56-Ohm7*
X157823000Y-61290000D02*
X159423000Y-61290000D01*
X159423000Y-61290000D02*
X159423000Y-58090000D01*
X159423000Y-58090000D02*
X157823000Y-58090000D01*
X157823000Y-58090000D02*
X157823000Y-61290000D01*
G04 #@! TO.C,SMDPROGCONN*
X148605000Y-55553000D02*
X147320000Y-55553000D01*
X148605000Y-55953000D02*
X148605000Y-55553000D01*
X147320000Y-55953000D02*
X148605000Y-55953000D01*
X143495000Y-55553000D02*
X143495000Y-55953000D01*
X144780000Y-55553000D02*
X143495000Y-55553000D01*
X143495000Y-55953000D02*
X144780000Y-55953000D01*
X148605000Y-56823000D02*
X147320000Y-56823000D01*
X148605000Y-57223000D02*
X148605000Y-56823000D01*
X147320000Y-57223000D02*
X148605000Y-57223000D01*
X143495000Y-56823000D02*
X143495000Y-57223000D01*
X144780000Y-56823000D02*
X143495000Y-56823000D01*
X143495000Y-57223000D02*
X144780000Y-57223000D01*
X148605000Y-58093000D02*
X147320000Y-58093000D01*
X148605000Y-58493000D02*
X148605000Y-58093000D01*
X147320000Y-58493000D02*
X148605000Y-58493000D01*
X143495000Y-58093000D02*
X143495000Y-58493000D01*
X144780000Y-58093000D02*
X143495000Y-58093000D01*
X143495000Y-58493000D02*
X144780000Y-58493000D01*
X148605000Y-59363000D02*
X147320000Y-59363000D01*
X148605000Y-59763000D02*
X148605000Y-59363000D01*
X147320000Y-59763000D02*
X148605000Y-59763000D01*
X143495000Y-59363000D02*
X143495000Y-59763000D01*
X144780000Y-59363000D02*
X143495000Y-59363000D01*
X143495000Y-59763000D02*
X144780000Y-59763000D01*
X144780000Y-55118000D02*
X144780000Y-60198000D01*
X147320000Y-55118000D02*
X144780000Y-55118000D01*
X147320000Y-59563000D02*
X147320000Y-55118000D01*
X146685000Y-60198000D02*
X147320000Y-59563000D01*
X144780000Y-60198000D02*
X146685000Y-60198000D01*
G04 #@! TD*
G04 #@! TO.C,BT-2032-1*
D11*
X179799761Y-76058571D02*
X179656904Y-76106190D01*
X179609285Y-76153809D01*
X179561666Y-76249047D01*
X179561666Y-76391904D01*
X179609285Y-76487142D01*
X179656904Y-76534761D01*
X179752142Y-76582380D01*
X180133095Y-76582380D01*
X180133095Y-75582380D01*
X179799761Y-75582380D01*
X179704523Y-75630000D01*
X179656904Y-75677619D01*
X179609285Y-75772857D01*
X179609285Y-75868095D01*
X179656904Y-75963333D01*
X179704523Y-76010952D01*
X179799761Y-76058571D01*
X180133095Y-76058571D01*
X178704523Y-76582380D02*
X178704523Y-76058571D01*
X178752142Y-75963333D01*
X178847380Y-75915714D01*
X179037857Y-75915714D01*
X179133095Y-75963333D01*
X178704523Y-76534761D02*
X178799761Y-76582380D01*
X179037857Y-76582380D01*
X179133095Y-76534761D01*
X179180714Y-76439523D01*
X179180714Y-76344285D01*
X179133095Y-76249047D01*
X179037857Y-76201428D01*
X178799761Y-76201428D01*
X178704523Y-76153809D01*
X178371190Y-75915714D02*
X177990238Y-75915714D01*
X178228333Y-75582380D02*
X178228333Y-76439523D01*
X178180714Y-76534761D01*
X178085476Y-76582380D01*
X177990238Y-76582380D01*
X177799761Y-75915714D02*
X177418809Y-75915714D01*
X177656904Y-75582380D02*
X177656904Y-76439523D01*
X177609285Y-76534761D01*
X177514047Y-76582380D01*
X177418809Y-76582380D01*
X176704523Y-76534761D02*
X176799761Y-76582380D01*
X176990238Y-76582380D01*
X177085476Y-76534761D01*
X177133095Y-76439523D01*
X177133095Y-76058571D01*
X177085476Y-75963333D01*
X176990238Y-75915714D01*
X176799761Y-75915714D01*
X176704523Y-75963333D01*
X176656904Y-76058571D01*
X176656904Y-76153809D01*
X177133095Y-76249047D01*
X176228333Y-76582380D02*
X176228333Y-75915714D01*
X176228333Y-76106190D02*
X176180714Y-76010952D01*
X176133095Y-75963333D01*
X176037857Y-75915714D01*
X175942619Y-75915714D01*
X175704523Y-75915714D02*
X175466428Y-76582380D01*
X175228333Y-75915714D02*
X175466428Y-76582380D01*
X175561666Y-76820476D01*
X175609285Y-76868095D01*
X175704523Y-76915714D01*
X175085476Y-76677619D02*
X174323571Y-76677619D01*
X173514047Y-76487142D02*
X173561666Y-76534761D01*
X173704523Y-76582380D01*
X173799761Y-76582380D01*
X173942619Y-76534761D01*
X174037857Y-76439523D01*
X174085476Y-76344285D01*
X174133095Y-76153809D01*
X174133095Y-76010952D01*
X174085476Y-75820476D01*
X174037857Y-75725238D01*
X173942619Y-75630000D01*
X173799761Y-75582380D01*
X173704523Y-75582380D01*
X173561666Y-75630000D01*
X173514047Y-75677619D01*
X172704523Y-76534761D02*
X172799761Y-76582380D01*
X172990238Y-76582380D01*
X173085476Y-76534761D01*
X173133095Y-76439523D01*
X173133095Y-76058571D01*
X173085476Y-75963333D01*
X172990238Y-75915714D01*
X172799761Y-75915714D01*
X172704523Y-75963333D01*
X172656904Y-76058571D01*
X172656904Y-76153809D01*
X173133095Y-76249047D01*
X172085476Y-76582380D02*
X172180714Y-76534761D01*
X172228333Y-76439523D01*
X172228333Y-75582380D01*
X171561666Y-76582380D02*
X171656904Y-76534761D01*
X171704523Y-76439523D01*
X171704523Y-75582380D01*
X179823571Y-90458571D02*
X179680714Y-90506190D01*
X179633095Y-90553809D01*
X179585476Y-90649047D01*
X179585476Y-90791904D01*
X179633095Y-90887142D01*
X179680714Y-90934761D01*
X179775952Y-90982380D01*
X180156904Y-90982380D01*
X180156904Y-89982380D01*
X179823571Y-89982380D01*
X179728333Y-90030000D01*
X179680714Y-90077619D01*
X179633095Y-90172857D01*
X179633095Y-90268095D01*
X179680714Y-90363333D01*
X179728333Y-90410952D01*
X179823571Y-90458571D01*
X180156904Y-90458571D01*
X179299761Y-89982380D02*
X178728333Y-89982380D01*
X179014047Y-90982380D02*
X179014047Y-89982380D01*
X178395000Y-90601428D02*
X177633095Y-90601428D01*
X177204523Y-90077619D02*
X177156904Y-90030000D01*
X177061666Y-89982380D01*
X176823571Y-89982380D01*
X176728333Y-90030000D01*
X176680714Y-90077619D01*
X176633095Y-90172857D01*
X176633095Y-90268095D01*
X176680714Y-90410952D01*
X177252142Y-90982380D01*
X176633095Y-90982380D01*
X176014047Y-89982380D02*
X175918809Y-89982380D01*
X175823571Y-90030000D01*
X175775952Y-90077619D01*
X175728333Y-90172857D01*
X175680714Y-90363333D01*
X175680714Y-90601428D01*
X175728333Y-90791904D01*
X175775952Y-90887142D01*
X175823571Y-90934761D01*
X175918809Y-90982380D01*
X176014047Y-90982380D01*
X176109285Y-90934761D01*
X176156904Y-90887142D01*
X176204523Y-90791904D01*
X176252142Y-90601428D01*
X176252142Y-90363333D01*
X176204523Y-90172857D01*
X176156904Y-90077619D01*
X176109285Y-90030000D01*
X176014047Y-89982380D01*
X175347380Y-89982380D02*
X174728333Y-89982380D01*
X175061666Y-90363333D01*
X174918809Y-90363333D01*
X174823571Y-90410952D01*
X174775952Y-90458571D01*
X174728333Y-90553809D01*
X174728333Y-90791904D01*
X174775952Y-90887142D01*
X174823571Y-90934761D01*
X174918809Y-90982380D01*
X175204523Y-90982380D01*
X175299761Y-90934761D01*
X175347380Y-90887142D01*
X174347380Y-90077619D02*
X174299761Y-90030000D01*
X174204523Y-89982380D01*
X173966428Y-89982380D01*
X173871190Y-90030000D01*
X173823571Y-90077619D01*
X173775952Y-90172857D01*
X173775952Y-90268095D01*
X173823571Y-90410952D01*
X174395000Y-90982380D01*
X173775952Y-90982380D01*
X173347380Y-90601428D02*
X172585476Y-90601428D01*
X171585476Y-90982380D02*
X172156904Y-90982380D01*
X171871190Y-90982380D02*
X171871190Y-89982380D01*
X171966428Y-90125238D01*
X172061666Y-90220476D01*
X172156904Y-90268095D01*
G04 #@! TO.C,BT-2032-2*
X120871761Y-76058571D02*
X120728904Y-76106190D01*
X120681285Y-76153809D01*
X120633666Y-76249047D01*
X120633666Y-76391904D01*
X120681285Y-76487142D01*
X120728904Y-76534761D01*
X120824142Y-76582380D01*
X121205095Y-76582380D01*
X121205095Y-75582380D01*
X120871761Y-75582380D01*
X120776523Y-75630000D01*
X120728904Y-75677619D01*
X120681285Y-75772857D01*
X120681285Y-75868095D01*
X120728904Y-75963333D01*
X120776523Y-76010952D01*
X120871761Y-76058571D01*
X121205095Y-76058571D01*
X119776523Y-76582380D02*
X119776523Y-76058571D01*
X119824142Y-75963333D01*
X119919380Y-75915714D01*
X120109857Y-75915714D01*
X120205095Y-75963333D01*
X119776523Y-76534761D02*
X119871761Y-76582380D01*
X120109857Y-76582380D01*
X120205095Y-76534761D01*
X120252714Y-76439523D01*
X120252714Y-76344285D01*
X120205095Y-76249047D01*
X120109857Y-76201428D01*
X119871761Y-76201428D01*
X119776523Y-76153809D01*
X119443190Y-75915714D02*
X119062238Y-75915714D01*
X119300333Y-75582380D02*
X119300333Y-76439523D01*
X119252714Y-76534761D01*
X119157476Y-76582380D01*
X119062238Y-76582380D01*
X118871761Y-75915714D02*
X118490809Y-75915714D01*
X118728904Y-75582380D02*
X118728904Y-76439523D01*
X118681285Y-76534761D01*
X118586047Y-76582380D01*
X118490809Y-76582380D01*
X117776523Y-76534761D02*
X117871761Y-76582380D01*
X118062238Y-76582380D01*
X118157476Y-76534761D01*
X118205095Y-76439523D01*
X118205095Y-76058571D01*
X118157476Y-75963333D01*
X118062238Y-75915714D01*
X117871761Y-75915714D01*
X117776523Y-75963333D01*
X117728904Y-76058571D01*
X117728904Y-76153809D01*
X118205095Y-76249047D01*
X117300333Y-76582380D02*
X117300333Y-75915714D01*
X117300333Y-76106190D02*
X117252714Y-76010952D01*
X117205095Y-75963333D01*
X117109857Y-75915714D01*
X117014619Y-75915714D01*
X116776523Y-75915714D02*
X116538428Y-76582380D01*
X116300333Y-75915714D02*
X116538428Y-76582380D01*
X116633666Y-76820476D01*
X116681285Y-76868095D01*
X116776523Y-76915714D01*
X116157476Y-76677619D02*
X115395571Y-76677619D01*
X114586047Y-76487142D02*
X114633666Y-76534761D01*
X114776523Y-76582380D01*
X114871761Y-76582380D01*
X115014619Y-76534761D01*
X115109857Y-76439523D01*
X115157476Y-76344285D01*
X115205095Y-76153809D01*
X115205095Y-76010952D01*
X115157476Y-75820476D01*
X115109857Y-75725238D01*
X115014619Y-75630000D01*
X114871761Y-75582380D01*
X114776523Y-75582380D01*
X114633666Y-75630000D01*
X114586047Y-75677619D01*
X113776523Y-76534761D02*
X113871761Y-76582380D01*
X114062238Y-76582380D01*
X114157476Y-76534761D01*
X114205095Y-76439523D01*
X114205095Y-76058571D01*
X114157476Y-75963333D01*
X114062238Y-75915714D01*
X113871761Y-75915714D01*
X113776523Y-75963333D01*
X113728904Y-76058571D01*
X113728904Y-76153809D01*
X114205095Y-76249047D01*
X113157476Y-76582380D02*
X113252714Y-76534761D01*
X113300333Y-76439523D01*
X113300333Y-75582380D01*
X112633666Y-76582380D02*
X112728904Y-76534761D01*
X112776523Y-76439523D01*
X112776523Y-75582380D01*
X120895571Y-90458571D02*
X120752714Y-90506190D01*
X120705095Y-90553809D01*
X120657476Y-90649047D01*
X120657476Y-90791904D01*
X120705095Y-90887142D01*
X120752714Y-90934761D01*
X120847952Y-90982380D01*
X121228904Y-90982380D01*
X121228904Y-89982380D01*
X120895571Y-89982380D01*
X120800333Y-90030000D01*
X120752714Y-90077619D01*
X120705095Y-90172857D01*
X120705095Y-90268095D01*
X120752714Y-90363333D01*
X120800333Y-90410952D01*
X120895571Y-90458571D01*
X121228904Y-90458571D01*
X120371761Y-89982380D02*
X119800333Y-89982380D01*
X120086047Y-90982380D02*
X120086047Y-89982380D01*
X119467000Y-90601428D02*
X118705095Y-90601428D01*
X118276523Y-90077619D02*
X118228904Y-90030000D01*
X118133666Y-89982380D01*
X117895571Y-89982380D01*
X117800333Y-90030000D01*
X117752714Y-90077619D01*
X117705095Y-90172857D01*
X117705095Y-90268095D01*
X117752714Y-90410952D01*
X118324142Y-90982380D01*
X117705095Y-90982380D01*
X117086047Y-89982380D02*
X116990809Y-89982380D01*
X116895571Y-90030000D01*
X116847952Y-90077619D01*
X116800333Y-90172857D01*
X116752714Y-90363333D01*
X116752714Y-90601428D01*
X116800333Y-90791904D01*
X116847952Y-90887142D01*
X116895571Y-90934761D01*
X116990809Y-90982380D01*
X117086047Y-90982380D01*
X117181285Y-90934761D01*
X117228904Y-90887142D01*
X117276523Y-90791904D01*
X117324142Y-90601428D01*
X117324142Y-90363333D01*
X117276523Y-90172857D01*
X117228904Y-90077619D01*
X117181285Y-90030000D01*
X117086047Y-89982380D01*
X116419380Y-89982380D02*
X115800333Y-89982380D01*
X116133666Y-90363333D01*
X115990809Y-90363333D01*
X115895571Y-90410952D01*
X115847952Y-90458571D01*
X115800333Y-90553809D01*
X115800333Y-90791904D01*
X115847952Y-90887142D01*
X115895571Y-90934761D01*
X115990809Y-90982380D01*
X116276523Y-90982380D01*
X116371761Y-90934761D01*
X116419380Y-90887142D01*
X115419380Y-90077619D02*
X115371761Y-90030000D01*
X115276523Y-89982380D01*
X115038428Y-89982380D01*
X114943190Y-90030000D01*
X114895571Y-90077619D01*
X114847952Y-90172857D01*
X114847952Y-90268095D01*
X114895571Y-90410952D01*
X115467000Y-90982380D01*
X114847952Y-90982380D01*
X114419380Y-90601428D02*
X113657476Y-90601428D01*
X113228904Y-90077619D02*
X113181285Y-90030000D01*
X113086047Y-89982380D01*
X112847952Y-89982380D01*
X112752714Y-90030000D01*
X112705095Y-90077619D01*
X112657476Y-90172857D01*
X112657476Y-90268095D01*
X112705095Y-90410952D01*
X113276523Y-90982380D01*
X112657476Y-90982380D01*
G04 #@! TO.C,R56-Ohm10*
X168515380Y-57245523D02*
X168039190Y-56912190D01*
X168515380Y-56674095D02*
X167515380Y-56674095D01*
X167515380Y-57055047D01*
X167563000Y-57150285D01*
X167610619Y-57197904D01*
X167705857Y-57245523D01*
X167848714Y-57245523D01*
X167943952Y-57197904D01*
X167991571Y-57150285D01*
X168039190Y-57055047D01*
X168039190Y-56674095D01*
X168610619Y-57436000D02*
X168610619Y-58197904D01*
X168467761Y-58388380D02*
X168515380Y-58531238D01*
X168515380Y-58769333D01*
X168467761Y-58864571D01*
X168420142Y-58912190D01*
X168324904Y-58959809D01*
X168229666Y-58959809D01*
X168134428Y-58912190D01*
X168086809Y-58864571D01*
X168039190Y-58769333D01*
X167991571Y-58578857D01*
X167943952Y-58483619D01*
X167896333Y-58436000D01*
X167801095Y-58388380D01*
X167705857Y-58388380D01*
X167610619Y-58436000D01*
X167563000Y-58483619D01*
X167515380Y-58578857D01*
X167515380Y-58816952D01*
X167563000Y-58959809D01*
X168515380Y-59388380D02*
X167848714Y-59388380D01*
X167943952Y-59388380D02*
X167896333Y-59436000D01*
X167848714Y-59531238D01*
X167848714Y-59674095D01*
X167896333Y-59769333D01*
X167991571Y-59816952D01*
X168515380Y-59816952D01*
X167991571Y-59816952D02*
X167896333Y-59864571D01*
X167848714Y-59959809D01*
X167848714Y-60102666D01*
X167896333Y-60197904D01*
X167991571Y-60245523D01*
X168515380Y-60245523D01*
X168515380Y-61150285D02*
X167991571Y-61150285D01*
X167896333Y-61102666D01*
X167848714Y-61007428D01*
X167848714Y-60816952D01*
X167896333Y-60721714D01*
X168467761Y-61150285D02*
X168515380Y-61055047D01*
X168515380Y-60816952D01*
X168467761Y-60721714D01*
X168372523Y-60674095D01*
X168277285Y-60674095D01*
X168182047Y-60721714D01*
X168134428Y-60816952D01*
X168134428Y-61055047D01*
X168086809Y-61150285D01*
X168515380Y-61769333D02*
X168467761Y-61674095D01*
X168372523Y-61626476D01*
X167515380Y-61626476D01*
X168515380Y-62293142D02*
X168467761Y-62197904D01*
X168372523Y-62150285D01*
X167515380Y-62150285D01*
D12*
X166604904Y-56350285D02*
X166223952Y-56083619D01*
X166604904Y-55893142D02*
X165804904Y-55893142D01*
X165804904Y-56197904D01*
X165843000Y-56274095D01*
X165881095Y-56312190D01*
X165957285Y-56350285D01*
X166071571Y-56350285D01*
X166147761Y-56312190D01*
X166185857Y-56274095D01*
X166223952Y-56197904D01*
X166223952Y-55893142D01*
X165804904Y-57074095D02*
X165804904Y-56693142D01*
X166185857Y-56655047D01*
X166147761Y-56693142D01*
X166109666Y-56769333D01*
X166109666Y-56959809D01*
X166147761Y-57036000D01*
X166185857Y-57074095D01*
X166262047Y-57112190D01*
X166452523Y-57112190D01*
X166528714Y-57074095D01*
X166566809Y-57036000D01*
X166604904Y-56959809D01*
X166604904Y-56769333D01*
X166566809Y-56693142D01*
X166528714Y-56655047D01*
X165804904Y-57797904D02*
X165804904Y-57645523D01*
X165843000Y-57569333D01*
X165881095Y-57531238D01*
X165995380Y-57455047D01*
X166147761Y-57416952D01*
X166452523Y-57416952D01*
X166528714Y-57455047D01*
X166566809Y-57493142D01*
X166604904Y-57569333D01*
X166604904Y-57721714D01*
X166566809Y-57797904D01*
X166528714Y-57836000D01*
X166452523Y-57874095D01*
X166262047Y-57874095D01*
X166185857Y-57836000D01*
X166147761Y-57797904D01*
X166109666Y-57721714D01*
X166109666Y-57569333D01*
X166147761Y-57493142D01*
X166185857Y-57455047D01*
X166262047Y-57416952D01*
X166300142Y-58216952D02*
X166300142Y-58826476D01*
X165804904Y-59359809D02*
X165804904Y-59512190D01*
X165843000Y-59588380D01*
X165919190Y-59664571D01*
X166071571Y-59702666D01*
X166338238Y-59702666D01*
X166490619Y-59664571D01*
X166566809Y-59588380D01*
X166604904Y-59512190D01*
X166604904Y-59359809D01*
X166566809Y-59283619D01*
X166490619Y-59207428D01*
X166338238Y-59169333D01*
X166071571Y-59169333D01*
X165919190Y-59207428D01*
X165843000Y-59283619D01*
X165804904Y-59359809D01*
X166604904Y-60045523D02*
X165804904Y-60045523D01*
X166604904Y-60388380D02*
X166185857Y-60388380D01*
X166109666Y-60350285D01*
X166071571Y-60274095D01*
X166071571Y-60159809D01*
X166109666Y-60083619D01*
X166147761Y-60045523D01*
X166604904Y-60769333D02*
X166071571Y-60769333D01*
X166147761Y-60769333D02*
X166109666Y-60807428D01*
X166071571Y-60883619D01*
X166071571Y-60997904D01*
X166109666Y-61074095D01*
X166185857Y-61112190D01*
X166604904Y-61112190D01*
X166185857Y-61112190D02*
X166109666Y-61150285D01*
X166071571Y-61226476D01*
X166071571Y-61340761D01*
X166109666Y-61416952D01*
X166185857Y-61455047D01*
X166604904Y-61455047D01*
X166604904Y-62255047D02*
X166604904Y-61797904D01*
X166604904Y-62026476D02*
X165804904Y-62026476D01*
X165919190Y-61950285D01*
X165995380Y-61874095D01*
X166033476Y-61797904D01*
X165804904Y-62750285D02*
X165804904Y-62826476D01*
X165843000Y-62902666D01*
X165881095Y-62940761D01*
X165957285Y-62978857D01*
X166109666Y-63016952D01*
X166300142Y-63016952D01*
X166452523Y-62978857D01*
X166528714Y-62940761D01*
X166566809Y-62902666D01*
X166604904Y-62826476D01*
X166604904Y-62750285D01*
X166566809Y-62674095D01*
X166528714Y-62636000D01*
X166452523Y-62597904D01*
X166300142Y-62559809D01*
X166109666Y-62559809D01*
X165957285Y-62597904D01*
X165881095Y-62636000D01*
X165843000Y-62674095D01*
X165804904Y-62750285D01*
G04 #@! TO.C,R56-Ohm8*
D11*
X164242476Y-54385380D02*
X164575809Y-53909190D01*
X164813904Y-54385380D02*
X164813904Y-53385380D01*
X164432952Y-53385380D01*
X164337714Y-53433000D01*
X164290095Y-53480619D01*
X164242476Y-53575857D01*
X164242476Y-53718714D01*
X164290095Y-53813952D01*
X164337714Y-53861571D01*
X164432952Y-53909190D01*
X164813904Y-53909190D01*
X164052000Y-54480619D02*
X163290095Y-54480619D01*
X163099619Y-54337761D02*
X162956761Y-54385380D01*
X162718666Y-54385380D01*
X162623428Y-54337761D01*
X162575809Y-54290142D01*
X162528190Y-54194904D01*
X162528190Y-54099666D01*
X162575809Y-54004428D01*
X162623428Y-53956809D01*
X162718666Y-53909190D01*
X162909142Y-53861571D01*
X163004380Y-53813952D01*
X163052000Y-53766333D01*
X163099619Y-53671095D01*
X163099619Y-53575857D01*
X163052000Y-53480619D01*
X163004380Y-53433000D01*
X162909142Y-53385380D01*
X162671047Y-53385380D01*
X162528190Y-53433000D01*
X162099619Y-54385380D02*
X162099619Y-53718714D01*
X162099619Y-53813952D02*
X162052000Y-53766333D01*
X161956761Y-53718714D01*
X161813904Y-53718714D01*
X161718666Y-53766333D01*
X161671047Y-53861571D01*
X161671047Y-54385380D01*
X161671047Y-53861571D02*
X161623428Y-53766333D01*
X161528190Y-53718714D01*
X161385333Y-53718714D01*
X161290095Y-53766333D01*
X161242476Y-53861571D01*
X161242476Y-54385380D01*
X160337714Y-54385380D02*
X160337714Y-53861571D01*
X160385333Y-53766333D01*
X160480571Y-53718714D01*
X160671047Y-53718714D01*
X160766285Y-53766333D01*
X160337714Y-54337761D02*
X160432952Y-54385380D01*
X160671047Y-54385380D01*
X160766285Y-54337761D01*
X160813904Y-54242523D01*
X160813904Y-54147285D01*
X160766285Y-54052047D01*
X160671047Y-54004428D01*
X160432952Y-54004428D01*
X160337714Y-53956809D01*
X159718666Y-54385380D02*
X159813904Y-54337761D01*
X159861523Y-54242523D01*
X159861523Y-53385380D01*
X159194857Y-54385380D02*
X159290095Y-54337761D01*
X159337714Y-54242523D01*
X159337714Y-53385380D01*
D12*
X164756761Y-56114904D02*
X165023428Y-55733952D01*
X165213904Y-56114904D02*
X165213904Y-55314904D01*
X164909142Y-55314904D01*
X164832952Y-55353000D01*
X164794857Y-55391095D01*
X164756761Y-55467285D01*
X164756761Y-55581571D01*
X164794857Y-55657761D01*
X164832952Y-55695857D01*
X164909142Y-55733952D01*
X165213904Y-55733952D01*
X164032952Y-55314904D02*
X164413904Y-55314904D01*
X164452000Y-55695857D01*
X164413904Y-55657761D01*
X164337714Y-55619666D01*
X164147238Y-55619666D01*
X164071047Y-55657761D01*
X164032952Y-55695857D01*
X163994857Y-55772047D01*
X163994857Y-55962523D01*
X164032952Y-56038714D01*
X164071047Y-56076809D01*
X164147238Y-56114904D01*
X164337714Y-56114904D01*
X164413904Y-56076809D01*
X164452000Y-56038714D01*
X163309142Y-55314904D02*
X163461523Y-55314904D01*
X163537714Y-55353000D01*
X163575809Y-55391095D01*
X163652000Y-55505380D01*
X163690095Y-55657761D01*
X163690095Y-55962523D01*
X163652000Y-56038714D01*
X163613904Y-56076809D01*
X163537714Y-56114904D01*
X163385333Y-56114904D01*
X163309142Y-56076809D01*
X163271047Y-56038714D01*
X163232952Y-55962523D01*
X163232952Y-55772047D01*
X163271047Y-55695857D01*
X163309142Y-55657761D01*
X163385333Y-55619666D01*
X163537714Y-55619666D01*
X163613904Y-55657761D01*
X163652000Y-55695857D01*
X163690095Y-55772047D01*
X162890095Y-55810142D02*
X162280571Y-55810142D01*
X161747238Y-55314904D02*
X161594857Y-55314904D01*
X161518666Y-55353000D01*
X161442476Y-55429190D01*
X161404380Y-55581571D01*
X161404380Y-55848238D01*
X161442476Y-56000619D01*
X161518666Y-56076809D01*
X161594857Y-56114904D01*
X161747238Y-56114904D01*
X161823428Y-56076809D01*
X161899619Y-56000619D01*
X161937714Y-55848238D01*
X161937714Y-55581571D01*
X161899619Y-55429190D01*
X161823428Y-55353000D01*
X161747238Y-55314904D01*
X161061523Y-56114904D02*
X161061523Y-55314904D01*
X160718666Y-56114904D02*
X160718666Y-55695857D01*
X160756761Y-55619666D01*
X160832952Y-55581571D01*
X160947238Y-55581571D01*
X161023428Y-55619666D01*
X161061523Y-55657761D01*
X160337714Y-56114904D02*
X160337714Y-55581571D01*
X160337714Y-55657761D02*
X160299619Y-55619666D01*
X160223428Y-55581571D01*
X160109142Y-55581571D01*
X160032952Y-55619666D01*
X159994857Y-55695857D01*
X159994857Y-56114904D01*
X159994857Y-55695857D02*
X159956761Y-55619666D01*
X159880571Y-55581571D01*
X159766285Y-55581571D01*
X159690095Y-55619666D01*
X159652000Y-55695857D01*
X159652000Y-56114904D01*
X159156761Y-55657761D02*
X159232952Y-55619666D01*
X159271047Y-55581571D01*
X159309142Y-55505380D01*
X159309142Y-55467285D01*
X159271047Y-55391095D01*
X159232952Y-55353000D01*
X159156761Y-55314904D01*
X159004380Y-55314904D01*
X158928190Y-55353000D01*
X158890095Y-55391095D01*
X158852000Y-55467285D01*
X158852000Y-55505380D01*
X158890095Y-55581571D01*
X158928190Y-55619666D01*
X159004380Y-55657761D01*
X159156761Y-55657761D01*
X159232952Y-55695857D01*
X159271047Y-55733952D01*
X159309142Y-55810142D01*
X159309142Y-55962523D01*
X159271047Y-56038714D01*
X159232952Y-56076809D01*
X159156761Y-56114904D01*
X159004380Y-56114904D01*
X158928190Y-56076809D01*
X158890095Y-56038714D01*
X158852000Y-55962523D01*
X158852000Y-55810142D01*
X158890095Y-55733952D01*
X158928190Y-55695857D01*
X159004380Y-55657761D01*
G04 #@! TO.C,R56-Ohm9*
D11*
X164496476Y-62132380D02*
X164829809Y-61656190D01*
X165067904Y-62132380D02*
X165067904Y-61132380D01*
X164686952Y-61132380D01*
X164591714Y-61180000D01*
X164544095Y-61227619D01*
X164496476Y-61322857D01*
X164496476Y-61465714D01*
X164544095Y-61560952D01*
X164591714Y-61608571D01*
X164686952Y-61656190D01*
X165067904Y-61656190D01*
X164306000Y-62227619D02*
X163544095Y-62227619D01*
X163353619Y-62084761D02*
X163210761Y-62132380D01*
X162972666Y-62132380D01*
X162877428Y-62084761D01*
X162829809Y-62037142D01*
X162782190Y-61941904D01*
X162782190Y-61846666D01*
X162829809Y-61751428D01*
X162877428Y-61703809D01*
X162972666Y-61656190D01*
X163163142Y-61608571D01*
X163258380Y-61560952D01*
X163306000Y-61513333D01*
X163353619Y-61418095D01*
X163353619Y-61322857D01*
X163306000Y-61227619D01*
X163258380Y-61180000D01*
X163163142Y-61132380D01*
X162925047Y-61132380D01*
X162782190Y-61180000D01*
X162353619Y-62132380D02*
X162353619Y-61465714D01*
X162353619Y-61560952D02*
X162306000Y-61513333D01*
X162210761Y-61465714D01*
X162067904Y-61465714D01*
X161972666Y-61513333D01*
X161925047Y-61608571D01*
X161925047Y-62132380D01*
X161925047Y-61608571D02*
X161877428Y-61513333D01*
X161782190Y-61465714D01*
X161639333Y-61465714D01*
X161544095Y-61513333D01*
X161496476Y-61608571D01*
X161496476Y-62132380D01*
X160591714Y-62132380D02*
X160591714Y-61608571D01*
X160639333Y-61513333D01*
X160734571Y-61465714D01*
X160925047Y-61465714D01*
X161020285Y-61513333D01*
X160591714Y-62084761D02*
X160686952Y-62132380D01*
X160925047Y-62132380D01*
X161020285Y-62084761D01*
X161067904Y-61989523D01*
X161067904Y-61894285D01*
X161020285Y-61799047D01*
X160925047Y-61751428D01*
X160686952Y-61751428D01*
X160591714Y-61703809D01*
X159972666Y-62132380D02*
X160067904Y-62084761D01*
X160115523Y-61989523D01*
X160115523Y-61132380D01*
X159448857Y-62132380D02*
X159544095Y-62084761D01*
X159591714Y-61989523D01*
X159591714Y-61132380D01*
D12*
X165010761Y-63861904D02*
X165277428Y-63480952D01*
X165467904Y-63861904D02*
X165467904Y-63061904D01*
X165163142Y-63061904D01*
X165086952Y-63100000D01*
X165048857Y-63138095D01*
X165010761Y-63214285D01*
X165010761Y-63328571D01*
X165048857Y-63404761D01*
X165086952Y-63442857D01*
X165163142Y-63480952D01*
X165467904Y-63480952D01*
X164286952Y-63061904D02*
X164667904Y-63061904D01*
X164706000Y-63442857D01*
X164667904Y-63404761D01*
X164591714Y-63366666D01*
X164401238Y-63366666D01*
X164325047Y-63404761D01*
X164286952Y-63442857D01*
X164248857Y-63519047D01*
X164248857Y-63709523D01*
X164286952Y-63785714D01*
X164325047Y-63823809D01*
X164401238Y-63861904D01*
X164591714Y-63861904D01*
X164667904Y-63823809D01*
X164706000Y-63785714D01*
X163563142Y-63061904D02*
X163715523Y-63061904D01*
X163791714Y-63100000D01*
X163829809Y-63138095D01*
X163906000Y-63252380D01*
X163944095Y-63404761D01*
X163944095Y-63709523D01*
X163906000Y-63785714D01*
X163867904Y-63823809D01*
X163791714Y-63861904D01*
X163639333Y-63861904D01*
X163563142Y-63823809D01*
X163525047Y-63785714D01*
X163486952Y-63709523D01*
X163486952Y-63519047D01*
X163525047Y-63442857D01*
X163563142Y-63404761D01*
X163639333Y-63366666D01*
X163791714Y-63366666D01*
X163867904Y-63404761D01*
X163906000Y-63442857D01*
X163944095Y-63519047D01*
X163144095Y-63557142D02*
X162534571Y-63557142D01*
X162001238Y-63061904D02*
X161848857Y-63061904D01*
X161772666Y-63100000D01*
X161696476Y-63176190D01*
X161658380Y-63328571D01*
X161658380Y-63595238D01*
X161696476Y-63747619D01*
X161772666Y-63823809D01*
X161848857Y-63861904D01*
X162001238Y-63861904D01*
X162077428Y-63823809D01*
X162153619Y-63747619D01*
X162191714Y-63595238D01*
X162191714Y-63328571D01*
X162153619Y-63176190D01*
X162077428Y-63100000D01*
X162001238Y-63061904D01*
X161315523Y-63861904D02*
X161315523Y-63061904D01*
X160972666Y-63861904D02*
X160972666Y-63442857D01*
X161010761Y-63366666D01*
X161086952Y-63328571D01*
X161201238Y-63328571D01*
X161277428Y-63366666D01*
X161315523Y-63404761D01*
X160591714Y-63861904D02*
X160591714Y-63328571D01*
X160591714Y-63404761D02*
X160553619Y-63366666D01*
X160477428Y-63328571D01*
X160363142Y-63328571D01*
X160286952Y-63366666D01*
X160248857Y-63442857D01*
X160248857Y-63861904D01*
X160248857Y-63442857D02*
X160210761Y-63366666D01*
X160134571Y-63328571D01*
X160020285Y-63328571D01*
X159944095Y-63366666D01*
X159906000Y-63442857D01*
X159906000Y-63861904D01*
X159486952Y-63861904D02*
X159334571Y-63861904D01*
X159258380Y-63823809D01*
X159220285Y-63785714D01*
X159144095Y-63671428D01*
X159106000Y-63519047D01*
X159106000Y-63214285D01*
X159144095Y-63138095D01*
X159182190Y-63100000D01*
X159258380Y-63061904D01*
X159410761Y-63061904D01*
X159486952Y-63100000D01*
X159525047Y-63138095D01*
X159563142Y-63214285D01*
X159563142Y-63404761D01*
X159525047Y-63480952D01*
X159486952Y-63519047D01*
X159410761Y-63557142D01*
X159258380Y-63557142D01*
X159182190Y-63519047D01*
X159144095Y-63480952D01*
X159106000Y-63404761D01*
G04 #@! TO.C,R56-Ohm1*
D11*
X124108380Y-57499523D02*
X123632190Y-57166190D01*
X124108380Y-56928095D02*
X123108380Y-56928095D01*
X123108380Y-57309047D01*
X123156000Y-57404285D01*
X123203619Y-57451904D01*
X123298857Y-57499523D01*
X123441714Y-57499523D01*
X123536952Y-57451904D01*
X123584571Y-57404285D01*
X123632190Y-57309047D01*
X123632190Y-56928095D01*
X124203619Y-57690000D02*
X124203619Y-58451904D01*
X124060761Y-58642380D02*
X124108380Y-58785238D01*
X124108380Y-59023333D01*
X124060761Y-59118571D01*
X124013142Y-59166190D01*
X123917904Y-59213809D01*
X123822666Y-59213809D01*
X123727428Y-59166190D01*
X123679809Y-59118571D01*
X123632190Y-59023333D01*
X123584571Y-58832857D01*
X123536952Y-58737619D01*
X123489333Y-58690000D01*
X123394095Y-58642380D01*
X123298857Y-58642380D01*
X123203619Y-58690000D01*
X123156000Y-58737619D01*
X123108380Y-58832857D01*
X123108380Y-59070952D01*
X123156000Y-59213809D01*
X124108380Y-59642380D02*
X123441714Y-59642380D01*
X123536952Y-59642380D02*
X123489333Y-59690000D01*
X123441714Y-59785238D01*
X123441714Y-59928095D01*
X123489333Y-60023333D01*
X123584571Y-60070952D01*
X124108380Y-60070952D01*
X123584571Y-60070952D02*
X123489333Y-60118571D01*
X123441714Y-60213809D01*
X123441714Y-60356666D01*
X123489333Y-60451904D01*
X123584571Y-60499523D01*
X124108380Y-60499523D01*
X124108380Y-61404285D02*
X123584571Y-61404285D01*
X123489333Y-61356666D01*
X123441714Y-61261428D01*
X123441714Y-61070952D01*
X123489333Y-60975714D01*
X124060761Y-61404285D02*
X124108380Y-61309047D01*
X124108380Y-61070952D01*
X124060761Y-60975714D01*
X123965523Y-60928095D01*
X123870285Y-60928095D01*
X123775047Y-60975714D01*
X123727428Y-61070952D01*
X123727428Y-61309047D01*
X123679809Y-61404285D01*
X124108380Y-62023333D02*
X124060761Y-61928095D01*
X123965523Y-61880476D01*
X123108380Y-61880476D01*
X124108380Y-62547142D02*
X124060761Y-62451904D01*
X123965523Y-62404285D01*
X123108380Y-62404285D01*
D12*
X125837904Y-56985238D02*
X125456952Y-56718571D01*
X125837904Y-56528095D02*
X125037904Y-56528095D01*
X125037904Y-56832857D01*
X125076000Y-56909047D01*
X125114095Y-56947142D01*
X125190285Y-56985238D01*
X125304571Y-56985238D01*
X125380761Y-56947142D01*
X125418857Y-56909047D01*
X125456952Y-56832857D01*
X125456952Y-56528095D01*
X125037904Y-57709047D02*
X125037904Y-57328095D01*
X125418857Y-57290000D01*
X125380761Y-57328095D01*
X125342666Y-57404285D01*
X125342666Y-57594761D01*
X125380761Y-57670952D01*
X125418857Y-57709047D01*
X125495047Y-57747142D01*
X125685523Y-57747142D01*
X125761714Y-57709047D01*
X125799809Y-57670952D01*
X125837904Y-57594761D01*
X125837904Y-57404285D01*
X125799809Y-57328095D01*
X125761714Y-57290000D01*
X125037904Y-58432857D02*
X125037904Y-58280476D01*
X125076000Y-58204285D01*
X125114095Y-58166190D01*
X125228380Y-58090000D01*
X125380761Y-58051904D01*
X125685523Y-58051904D01*
X125761714Y-58090000D01*
X125799809Y-58128095D01*
X125837904Y-58204285D01*
X125837904Y-58356666D01*
X125799809Y-58432857D01*
X125761714Y-58470952D01*
X125685523Y-58509047D01*
X125495047Y-58509047D01*
X125418857Y-58470952D01*
X125380761Y-58432857D01*
X125342666Y-58356666D01*
X125342666Y-58204285D01*
X125380761Y-58128095D01*
X125418857Y-58090000D01*
X125495047Y-58051904D01*
X125533142Y-58851904D02*
X125533142Y-59461428D01*
X125037904Y-59994761D02*
X125037904Y-60147142D01*
X125076000Y-60223333D01*
X125152190Y-60299523D01*
X125304571Y-60337619D01*
X125571238Y-60337619D01*
X125723619Y-60299523D01*
X125799809Y-60223333D01*
X125837904Y-60147142D01*
X125837904Y-59994761D01*
X125799809Y-59918571D01*
X125723619Y-59842380D01*
X125571238Y-59804285D01*
X125304571Y-59804285D01*
X125152190Y-59842380D01*
X125076000Y-59918571D01*
X125037904Y-59994761D01*
X125837904Y-60680476D02*
X125037904Y-60680476D01*
X125837904Y-61023333D02*
X125418857Y-61023333D01*
X125342666Y-60985238D01*
X125304571Y-60909047D01*
X125304571Y-60794761D01*
X125342666Y-60718571D01*
X125380761Y-60680476D01*
X125837904Y-61404285D02*
X125304571Y-61404285D01*
X125380761Y-61404285D02*
X125342666Y-61442380D01*
X125304571Y-61518571D01*
X125304571Y-61632857D01*
X125342666Y-61709047D01*
X125418857Y-61747142D01*
X125837904Y-61747142D01*
X125418857Y-61747142D02*
X125342666Y-61785238D01*
X125304571Y-61861428D01*
X125304571Y-61975714D01*
X125342666Y-62051904D01*
X125418857Y-62090000D01*
X125837904Y-62090000D01*
X125837904Y-62890000D02*
X125837904Y-62432857D01*
X125837904Y-62661428D02*
X125037904Y-62661428D01*
X125152190Y-62585238D01*
X125228380Y-62509047D01*
X125266476Y-62432857D01*
G04 #@! TO.C,R56-Ohm2*
D11*
X132490380Y-57372523D02*
X132014190Y-57039190D01*
X132490380Y-56801095D02*
X131490380Y-56801095D01*
X131490380Y-57182047D01*
X131538000Y-57277285D01*
X131585619Y-57324904D01*
X131680857Y-57372523D01*
X131823714Y-57372523D01*
X131918952Y-57324904D01*
X131966571Y-57277285D01*
X132014190Y-57182047D01*
X132014190Y-56801095D01*
X132585619Y-57563000D02*
X132585619Y-58324904D01*
X132442761Y-58515380D02*
X132490380Y-58658238D01*
X132490380Y-58896333D01*
X132442761Y-58991571D01*
X132395142Y-59039190D01*
X132299904Y-59086809D01*
X132204666Y-59086809D01*
X132109428Y-59039190D01*
X132061809Y-58991571D01*
X132014190Y-58896333D01*
X131966571Y-58705857D01*
X131918952Y-58610619D01*
X131871333Y-58563000D01*
X131776095Y-58515380D01*
X131680857Y-58515380D01*
X131585619Y-58563000D01*
X131538000Y-58610619D01*
X131490380Y-58705857D01*
X131490380Y-58943952D01*
X131538000Y-59086809D01*
X132490380Y-59515380D02*
X131823714Y-59515380D01*
X131918952Y-59515380D02*
X131871333Y-59563000D01*
X131823714Y-59658238D01*
X131823714Y-59801095D01*
X131871333Y-59896333D01*
X131966571Y-59943952D01*
X132490380Y-59943952D01*
X131966571Y-59943952D02*
X131871333Y-59991571D01*
X131823714Y-60086809D01*
X131823714Y-60229666D01*
X131871333Y-60324904D01*
X131966571Y-60372523D01*
X132490380Y-60372523D01*
X132490380Y-61277285D02*
X131966571Y-61277285D01*
X131871333Y-61229666D01*
X131823714Y-61134428D01*
X131823714Y-60943952D01*
X131871333Y-60848714D01*
X132442761Y-61277285D02*
X132490380Y-61182047D01*
X132490380Y-60943952D01*
X132442761Y-60848714D01*
X132347523Y-60801095D01*
X132252285Y-60801095D01*
X132157047Y-60848714D01*
X132109428Y-60943952D01*
X132109428Y-61182047D01*
X132061809Y-61277285D01*
X132490380Y-61896333D02*
X132442761Y-61801095D01*
X132347523Y-61753476D01*
X131490380Y-61753476D01*
X132490380Y-62420142D02*
X132442761Y-62324904D01*
X132347523Y-62277285D01*
X131490380Y-62277285D01*
D12*
X134219904Y-56858238D02*
X133838952Y-56591571D01*
X134219904Y-56401095D02*
X133419904Y-56401095D01*
X133419904Y-56705857D01*
X133458000Y-56782047D01*
X133496095Y-56820142D01*
X133572285Y-56858238D01*
X133686571Y-56858238D01*
X133762761Y-56820142D01*
X133800857Y-56782047D01*
X133838952Y-56705857D01*
X133838952Y-56401095D01*
X133419904Y-57582047D02*
X133419904Y-57201095D01*
X133800857Y-57163000D01*
X133762761Y-57201095D01*
X133724666Y-57277285D01*
X133724666Y-57467761D01*
X133762761Y-57543952D01*
X133800857Y-57582047D01*
X133877047Y-57620142D01*
X134067523Y-57620142D01*
X134143714Y-57582047D01*
X134181809Y-57543952D01*
X134219904Y-57467761D01*
X134219904Y-57277285D01*
X134181809Y-57201095D01*
X134143714Y-57163000D01*
X133419904Y-58305857D02*
X133419904Y-58153476D01*
X133458000Y-58077285D01*
X133496095Y-58039190D01*
X133610380Y-57963000D01*
X133762761Y-57924904D01*
X134067523Y-57924904D01*
X134143714Y-57963000D01*
X134181809Y-58001095D01*
X134219904Y-58077285D01*
X134219904Y-58229666D01*
X134181809Y-58305857D01*
X134143714Y-58343952D01*
X134067523Y-58382047D01*
X133877047Y-58382047D01*
X133800857Y-58343952D01*
X133762761Y-58305857D01*
X133724666Y-58229666D01*
X133724666Y-58077285D01*
X133762761Y-58001095D01*
X133800857Y-57963000D01*
X133877047Y-57924904D01*
X133915142Y-58724904D02*
X133915142Y-59334428D01*
X133419904Y-59867761D02*
X133419904Y-60020142D01*
X133458000Y-60096333D01*
X133534190Y-60172523D01*
X133686571Y-60210619D01*
X133953238Y-60210619D01*
X134105619Y-60172523D01*
X134181809Y-60096333D01*
X134219904Y-60020142D01*
X134219904Y-59867761D01*
X134181809Y-59791571D01*
X134105619Y-59715380D01*
X133953238Y-59677285D01*
X133686571Y-59677285D01*
X133534190Y-59715380D01*
X133458000Y-59791571D01*
X133419904Y-59867761D01*
X134219904Y-60553476D02*
X133419904Y-60553476D01*
X134219904Y-60896333D02*
X133800857Y-60896333D01*
X133724666Y-60858238D01*
X133686571Y-60782047D01*
X133686571Y-60667761D01*
X133724666Y-60591571D01*
X133762761Y-60553476D01*
X134219904Y-61277285D02*
X133686571Y-61277285D01*
X133762761Y-61277285D02*
X133724666Y-61315380D01*
X133686571Y-61391571D01*
X133686571Y-61505857D01*
X133724666Y-61582047D01*
X133800857Y-61620142D01*
X134219904Y-61620142D01*
X133800857Y-61620142D02*
X133724666Y-61658238D01*
X133686571Y-61734428D01*
X133686571Y-61848714D01*
X133724666Y-61924904D01*
X133800857Y-61963000D01*
X134219904Y-61963000D01*
X133496095Y-62305857D02*
X133458000Y-62343952D01*
X133419904Y-62420142D01*
X133419904Y-62610619D01*
X133458000Y-62686809D01*
X133496095Y-62724904D01*
X133572285Y-62763000D01*
X133648476Y-62763000D01*
X133762761Y-62724904D01*
X134219904Y-62267761D01*
X134219904Y-62763000D01*
G04 #@! TO.C,R56-Ohm3*
D11*
X131603476Y-54258380D02*
X131936809Y-53782190D01*
X132174904Y-54258380D02*
X132174904Y-53258380D01*
X131793952Y-53258380D01*
X131698714Y-53306000D01*
X131651095Y-53353619D01*
X131603476Y-53448857D01*
X131603476Y-53591714D01*
X131651095Y-53686952D01*
X131698714Y-53734571D01*
X131793952Y-53782190D01*
X132174904Y-53782190D01*
X131413000Y-54353619D02*
X130651095Y-54353619D01*
X130460619Y-54210761D02*
X130317761Y-54258380D01*
X130079666Y-54258380D01*
X129984428Y-54210761D01*
X129936809Y-54163142D01*
X129889190Y-54067904D01*
X129889190Y-53972666D01*
X129936809Y-53877428D01*
X129984428Y-53829809D01*
X130079666Y-53782190D01*
X130270142Y-53734571D01*
X130365380Y-53686952D01*
X130413000Y-53639333D01*
X130460619Y-53544095D01*
X130460619Y-53448857D01*
X130413000Y-53353619D01*
X130365380Y-53306000D01*
X130270142Y-53258380D01*
X130032047Y-53258380D01*
X129889190Y-53306000D01*
X129460619Y-54258380D02*
X129460619Y-53591714D01*
X129460619Y-53686952D02*
X129413000Y-53639333D01*
X129317761Y-53591714D01*
X129174904Y-53591714D01*
X129079666Y-53639333D01*
X129032047Y-53734571D01*
X129032047Y-54258380D01*
X129032047Y-53734571D02*
X128984428Y-53639333D01*
X128889190Y-53591714D01*
X128746333Y-53591714D01*
X128651095Y-53639333D01*
X128603476Y-53734571D01*
X128603476Y-54258380D01*
X127698714Y-54258380D02*
X127698714Y-53734571D01*
X127746333Y-53639333D01*
X127841571Y-53591714D01*
X128032047Y-53591714D01*
X128127285Y-53639333D01*
X127698714Y-54210761D02*
X127793952Y-54258380D01*
X128032047Y-54258380D01*
X128127285Y-54210761D01*
X128174904Y-54115523D01*
X128174904Y-54020285D01*
X128127285Y-53925047D01*
X128032047Y-53877428D01*
X127793952Y-53877428D01*
X127698714Y-53829809D01*
X127079666Y-54258380D02*
X127174904Y-54210761D01*
X127222523Y-54115523D01*
X127222523Y-53258380D01*
X126555857Y-54258380D02*
X126651095Y-54210761D01*
X126698714Y-54115523D01*
X126698714Y-53258380D01*
D12*
X132117761Y-55987904D02*
X132384428Y-55606952D01*
X132574904Y-55987904D02*
X132574904Y-55187904D01*
X132270142Y-55187904D01*
X132193952Y-55226000D01*
X132155857Y-55264095D01*
X132117761Y-55340285D01*
X132117761Y-55454571D01*
X132155857Y-55530761D01*
X132193952Y-55568857D01*
X132270142Y-55606952D01*
X132574904Y-55606952D01*
X131393952Y-55187904D02*
X131774904Y-55187904D01*
X131813000Y-55568857D01*
X131774904Y-55530761D01*
X131698714Y-55492666D01*
X131508238Y-55492666D01*
X131432047Y-55530761D01*
X131393952Y-55568857D01*
X131355857Y-55645047D01*
X131355857Y-55835523D01*
X131393952Y-55911714D01*
X131432047Y-55949809D01*
X131508238Y-55987904D01*
X131698714Y-55987904D01*
X131774904Y-55949809D01*
X131813000Y-55911714D01*
X130670142Y-55187904D02*
X130822523Y-55187904D01*
X130898714Y-55226000D01*
X130936809Y-55264095D01*
X131013000Y-55378380D01*
X131051095Y-55530761D01*
X131051095Y-55835523D01*
X131013000Y-55911714D01*
X130974904Y-55949809D01*
X130898714Y-55987904D01*
X130746333Y-55987904D01*
X130670142Y-55949809D01*
X130632047Y-55911714D01*
X130593952Y-55835523D01*
X130593952Y-55645047D01*
X130632047Y-55568857D01*
X130670142Y-55530761D01*
X130746333Y-55492666D01*
X130898714Y-55492666D01*
X130974904Y-55530761D01*
X131013000Y-55568857D01*
X131051095Y-55645047D01*
X130251095Y-55683142D02*
X129641571Y-55683142D01*
X129108238Y-55187904D02*
X128955857Y-55187904D01*
X128879666Y-55226000D01*
X128803476Y-55302190D01*
X128765380Y-55454571D01*
X128765380Y-55721238D01*
X128803476Y-55873619D01*
X128879666Y-55949809D01*
X128955857Y-55987904D01*
X129108238Y-55987904D01*
X129184428Y-55949809D01*
X129260619Y-55873619D01*
X129298714Y-55721238D01*
X129298714Y-55454571D01*
X129260619Y-55302190D01*
X129184428Y-55226000D01*
X129108238Y-55187904D01*
X128422523Y-55987904D02*
X128422523Y-55187904D01*
X128079666Y-55987904D02*
X128079666Y-55568857D01*
X128117761Y-55492666D01*
X128193952Y-55454571D01*
X128308238Y-55454571D01*
X128384428Y-55492666D01*
X128422523Y-55530761D01*
X127698714Y-55987904D02*
X127698714Y-55454571D01*
X127698714Y-55530761D02*
X127660619Y-55492666D01*
X127584428Y-55454571D01*
X127470142Y-55454571D01*
X127393952Y-55492666D01*
X127355857Y-55568857D01*
X127355857Y-55987904D01*
X127355857Y-55568857D02*
X127317761Y-55492666D01*
X127241571Y-55454571D01*
X127127285Y-55454571D01*
X127051095Y-55492666D01*
X127013000Y-55568857D01*
X127013000Y-55987904D01*
X126708238Y-55187904D02*
X126213000Y-55187904D01*
X126479666Y-55492666D01*
X126365380Y-55492666D01*
X126289190Y-55530761D01*
X126251095Y-55568857D01*
X126213000Y-55645047D01*
X126213000Y-55835523D01*
X126251095Y-55911714D01*
X126289190Y-55949809D01*
X126365380Y-55987904D01*
X126593952Y-55987904D01*
X126670142Y-55949809D01*
X126708238Y-55911714D01*
G04 #@! TO.C,R56-Ohm4*
D11*
X131603476Y-78007380D02*
X131936809Y-77531190D01*
X132174904Y-78007380D02*
X132174904Y-77007380D01*
X131793952Y-77007380D01*
X131698714Y-77055000D01*
X131651095Y-77102619D01*
X131603476Y-77197857D01*
X131603476Y-77340714D01*
X131651095Y-77435952D01*
X131698714Y-77483571D01*
X131793952Y-77531190D01*
X132174904Y-77531190D01*
X131413000Y-78102619D02*
X130651095Y-78102619D01*
X130460619Y-77959761D02*
X130317761Y-78007380D01*
X130079666Y-78007380D01*
X129984428Y-77959761D01*
X129936809Y-77912142D01*
X129889190Y-77816904D01*
X129889190Y-77721666D01*
X129936809Y-77626428D01*
X129984428Y-77578809D01*
X130079666Y-77531190D01*
X130270142Y-77483571D01*
X130365380Y-77435952D01*
X130413000Y-77388333D01*
X130460619Y-77293095D01*
X130460619Y-77197857D01*
X130413000Y-77102619D01*
X130365380Y-77055000D01*
X130270142Y-77007380D01*
X130032047Y-77007380D01*
X129889190Y-77055000D01*
X129460619Y-78007380D02*
X129460619Y-77340714D01*
X129460619Y-77435952D02*
X129413000Y-77388333D01*
X129317761Y-77340714D01*
X129174904Y-77340714D01*
X129079666Y-77388333D01*
X129032047Y-77483571D01*
X129032047Y-78007380D01*
X129032047Y-77483571D02*
X128984428Y-77388333D01*
X128889190Y-77340714D01*
X128746333Y-77340714D01*
X128651095Y-77388333D01*
X128603476Y-77483571D01*
X128603476Y-78007380D01*
X127698714Y-78007380D02*
X127698714Y-77483571D01*
X127746333Y-77388333D01*
X127841571Y-77340714D01*
X128032047Y-77340714D01*
X128127285Y-77388333D01*
X127698714Y-77959761D02*
X127793952Y-78007380D01*
X128032047Y-78007380D01*
X128127285Y-77959761D01*
X128174904Y-77864523D01*
X128174904Y-77769285D01*
X128127285Y-77674047D01*
X128032047Y-77626428D01*
X127793952Y-77626428D01*
X127698714Y-77578809D01*
X127079666Y-78007380D02*
X127174904Y-77959761D01*
X127222523Y-77864523D01*
X127222523Y-77007380D01*
X126555857Y-78007380D02*
X126651095Y-77959761D01*
X126698714Y-77864523D01*
X126698714Y-77007380D01*
D12*
X132117761Y-79736904D02*
X132384428Y-79355952D01*
X132574904Y-79736904D02*
X132574904Y-78936904D01*
X132270142Y-78936904D01*
X132193952Y-78975000D01*
X132155857Y-79013095D01*
X132117761Y-79089285D01*
X132117761Y-79203571D01*
X132155857Y-79279761D01*
X132193952Y-79317857D01*
X132270142Y-79355952D01*
X132574904Y-79355952D01*
X131393952Y-78936904D02*
X131774904Y-78936904D01*
X131813000Y-79317857D01*
X131774904Y-79279761D01*
X131698714Y-79241666D01*
X131508238Y-79241666D01*
X131432047Y-79279761D01*
X131393952Y-79317857D01*
X131355857Y-79394047D01*
X131355857Y-79584523D01*
X131393952Y-79660714D01*
X131432047Y-79698809D01*
X131508238Y-79736904D01*
X131698714Y-79736904D01*
X131774904Y-79698809D01*
X131813000Y-79660714D01*
X130670142Y-78936904D02*
X130822523Y-78936904D01*
X130898714Y-78975000D01*
X130936809Y-79013095D01*
X131013000Y-79127380D01*
X131051095Y-79279761D01*
X131051095Y-79584523D01*
X131013000Y-79660714D01*
X130974904Y-79698809D01*
X130898714Y-79736904D01*
X130746333Y-79736904D01*
X130670142Y-79698809D01*
X130632047Y-79660714D01*
X130593952Y-79584523D01*
X130593952Y-79394047D01*
X130632047Y-79317857D01*
X130670142Y-79279761D01*
X130746333Y-79241666D01*
X130898714Y-79241666D01*
X130974904Y-79279761D01*
X131013000Y-79317857D01*
X131051095Y-79394047D01*
X130251095Y-79432142D02*
X129641571Y-79432142D01*
X129108238Y-78936904D02*
X128955857Y-78936904D01*
X128879666Y-78975000D01*
X128803476Y-79051190D01*
X128765380Y-79203571D01*
X128765380Y-79470238D01*
X128803476Y-79622619D01*
X128879666Y-79698809D01*
X128955857Y-79736904D01*
X129108238Y-79736904D01*
X129184428Y-79698809D01*
X129260619Y-79622619D01*
X129298714Y-79470238D01*
X129298714Y-79203571D01*
X129260619Y-79051190D01*
X129184428Y-78975000D01*
X129108238Y-78936904D01*
X128422523Y-79736904D02*
X128422523Y-78936904D01*
X128079666Y-79736904D02*
X128079666Y-79317857D01*
X128117761Y-79241666D01*
X128193952Y-79203571D01*
X128308238Y-79203571D01*
X128384428Y-79241666D01*
X128422523Y-79279761D01*
X127698714Y-79736904D02*
X127698714Y-79203571D01*
X127698714Y-79279761D02*
X127660619Y-79241666D01*
X127584428Y-79203571D01*
X127470142Y-79203571D01*
X127393952Y-79241666D01*
X127355857Y-79317857D01*
X127355857Y-79736904D01*
X127355857Y-79317857D02*
X127317761Y-79241666D01*
X127241571Y-79203571D01*
X127127285Y-79203571D01*
X127051095Y-79241666D01*
X127013000Y-79317857D01*
X127013000Y-79736904D01*
X126289190Y-79203571D02*
X126289190Y-79736904D01*
X126479666Y-78898809D02*
X126670142Y-79470238D01*
X126174904Y-79470238D01*
G04 #@! TO.C,R56-Ohm5*
D11*
X131857476Y-61751380D02*
X132190809Y-61275190D01*
X132428904Y-61751380D02*
X132428904Y-60751380D01*
X132047952Y-60751380D01*
X131952714Y-60799000D01*
X131905095Y-60846619D01*
X131857476Y-60941857D01*
X131857476Y-61084714D01*
X131905095Y-61179952D01*
X131952714Y-61227571D01*
X132047952Y-61275190D01*
X132428904Y-61275190D01*
X131667000Y-61846619D02*
X130905095Y-61846619D01*
X130714619Y-61703761D02*
X130571761Y-61751380D01*
X130333666Y-61751380D01*
X130238428Y-61703761D01*
X130190809Y-61656142D01*
X130143190Y-61560904D01*
X130143190Y-61465666D01*
X130190809Y-61370428D01*
X130238428Y-61322809D01*
X130333666Y-61275190D01*
X130524142Y-61227571D01*
X130619380Y-61179952D01*
X130667000Y-61132333D01*
X130714619Y-61037095D01*
X130714619Y-60941857D01*
X130667000Y-60846619D01*
X130619380Y-60799000D01*
X130524142Y-60751380D01*
X130286047Y-60751380D01*
X130143190Y-60799000D01*
X129714619Y-61751380D02*
X129714619Y-61084714D01*
X129714619Y-61179952D02*
X129667000Y-61132333D01*
X129571761Y-61084714D01*
X129428904Y-61084714D01*
X129333666Y-61132333D01*
X129286047Y-61227571D01*
X129286047Y-61751380D01*
X129286047Y-61227571D02*
X129238428Y-61132333D01*
X129143190Y-61084714D01*
X129000333Y-61084714D01*
X128905095Y-61132333D01*
X128857476Y-61227571D01*
X128857476Y-61751380D01*
X127952714Y-61751380D02*
X127952714Y-61227571D01*
X128000333Y-61132333D01*
X128095571Y-61084714D01*
X128286047Y-61084714D01*
X128381285Y-61132333D01*
X127952714Y-61703761D02*
X128047952Y-61751380D01*
X128286047Y-61751380D01*
X128381285Y-61703761D01*
X128428904Y-61608523D01*
X128428904Y-61513285D01*
X128381285Y-61418047D01*
X128286047Y-61370428D01*
X128047952Y-61370428D01*
X127952714Y-61322809D01*
X127333666Y-61751380D02*
X127428904Y-61703761D01*
X127476523Y-61608523D01*
X127476523Y-60751380D01*
X126809857Y-61751380D02*
X126905095Y-61703761D01*
X126952714Y-61608523D01*
X126952714Y-60751380D01*
D12*
X132371761Y-63480904D02*
X132638428Y-63099952D01*
X132828904Y-63480904D02*
X132828904Y-62680904D01*
X132524142Y-62680904D01*
X132447952Y-62719000D01*
X132409857Y-62757095D01*
X132371761Y-62833285D01*
X132371761Y-62947571D01*
X132409857Y-63023761D01*
X132447952Y-63061857D01*
X132524142Y-63099952D01*
X132828904Y-63099952D01*
X131647952Y-62680904D02*
X132028904Y-62680904D01*
X132067000Y-63061857D01*
X132028904Y-63023761D01*
X131952714Y-62985666D01*
X131762238Y-62985666D01*
X131686047Y-63023761D01*
X131647952Y-63061857D01*
X131609857Y-63138047D01*
X131609857Y-63328523D01*
X131647952Y-63404714D01*
X131686047Y-63442809D01*
X131762238Y-63480904D01*
X131952714Y-63480904D01*
X132028904Y-63442809D01*
X132067000Y-63404714D01*
X130924142Y-62680904D02*
X131076523Y-62680904D01*
X131152714Y-62719000D01*
X131190809Y-62757095D01*
X131267000Y-62871380D01*
X131305095Y-63023761D01*
X131305095Y-63328523D01*
X131267000Y-63404714D01*
X131228904Y-63442809D01*
X131152714Y-63480904D01*
X131000333Y-63480904D01*
X130924142Y-63442809D01*
X130886047Y-63404714D01*
X130847952Y-63328523D01*
X130847952Y-63138047D01*
X130886047Y-63061857D01*
X130924142Y-63023761D01*
X131000333Y-62985666D01*
X131152714Y-62985666D01*
X131228904Y-63023761D01*
X131267000Y-63061857D01*
X131305095Y-63138047D01*
X130505095Y-63176142D02*
X129895571Y-63176142D01*
X129362238Y-62680904D02*
X129209857Y-62680904D01*
X129133666Y-62719000D01*
X129057476Y-62795190D01*
X129019380Y-62947571D01*
X129019380Y-63214238D01*
X129057476Y-63366619D01*
X129133666Y-63442809D01*
X129209857Y-63480904D01*
X129362238Y-63480904D01*
X129438428Y-63442809D01*
X129514619Y-63366619D01*
X129552714Y-63214238D01*
X129552714Y-62947571D01*
X129514619Y-62795190D01*
X129438428Y-62719000D01*
X129362238Y-62680904D01*
X128676523Y-63480904D02*
X128676523Y-62680904D01*
X128333666Y-63480904D02*
X128333666Y-63061857D01*
X128371761Y-62985666D01*
X128447952Y-62947571D01*
X128562238Y-62947571D01*
X128638428Y-62985666D01*
X128676523Y-63023761D01*
X127952714Y-63480904D02*
X127952714Y-62947571D01*
X127952714Y-63023761D02*
X127914619Y-62985666D01*
X127838428Y-62947571D01*
X127724142Y-62947571D01*
X127647952Y-62985666D01*
X127609857Y-63061857D01*
X127609857Y-63480904D01*
X127609857Y-63061857D02*
X127571761Y-62985666D01*
X127495571Y-62947571D01*
X127381285Y-62947571D01*
X127305095Y-62985666D01*
X127267000Y-63061857D01*
X127267000Y-63480904D01*
X126505095Y-62680904D02*
X126886047Y-62680904D01*
X126924142Y-63061857D01*
X126886047Y-63023761D01*
X126809857Y-62985666D01*
X126619380Y-62985666D01*
X126543190Y-63023761D01*
X126505095Y-63061857D01*
X126467000Y-63138047D01*
X126467000Y-63328523D01*
X126505095Y-63404714D01*
X126543190Y-63442809D01*
X126619380Y-63480904D01*
X126809857Y-63480904D01*
X126886047Y-63442809D01*
X126924142Y-63404714D01*
G04 #@! TO.C,R56-Ohm6*
D11*
X165004476Y-78007380D02*
X165337809Y-77531190D01*
X165575904Y-78007380D02*
X165575904Y-77007380D01*
X165194952Y-77007380D01*
X165099714Y-77055000D01*
X165052095Y-77102619D01*
X165004476Y-77197857D01*
X165004476Y-77340714D01*
X165052095Y-77435952D01*
X165099714Y-77483571D01*
X165194952Y-77531190D01*
X165575904Y-77531190D01*
X164814000Y-78102619D02*
X164052095Y-78102619D01*
X163861619Y-77959761D02*
X163718761Y-78007380D01*
X163480666Y-78007380D01*
X163385428Y-77959761D01*
X163337809Y-77912142D01*
X163290190Y-77816904D01*
X163290190Y-77721666D01*
X163337809Y-77626428D01*
X163385428Y-77578809D01*
X163480666Y-77531190D01*
X163671142Y-77483571D01*
X163766380Y-77435952D01*
X163814000Y-77388333D01*
X163861619Y-77293095D01*
X163861619Y-77197857D01*
X163814000Y-77102619D01*
X163766380Y-77055000D01*
X163671142Y-77007380D01*
X163433047Y-77007380D01*
X163290190Y-77055000D01*
X162861619Y-78007380D02*
X162861619Y-77340714D01*
X162861619Y-77435952D02*
X162814000Y-77388333D01*
X162718761Y-77340714D01*
X162575904Y-77340714D01*
X162480666Y-77388333D01*
X162433047Y-77483571D01*
X162433047Y-78007380D01*
X162433047Y-77483571D02*
X162385428Y-77388333D01*
X162290190Y-77340714D01*
X162147333Y-77340714D01*
X162052095Y-77388333D01*
X162004476Y-77483571D01*
X162004476Y-78007380D01*
X161099714Y-78007380D02*
X161099714Y-77483571D01*
X161147333Y-77388333D01*
X161242571Y-77340714D01*
X161433047Y-77340714D01*
X161528285Y-77388333D01*
X161099714Y-77959761D02*
X161194952Y-78007380D01*
X161433047Y-78007380D01*
X161528285Y-77959761D01*
X161575904Y-77864523D01*
X161575904Y-77769285D01*
X161528285Y-77674047D01*
X161433047Y-77626428D01*
X161194952Y-77626428D01*
X161099714Y-77578809D01*
X160480666Y-78007380D02*
X160575904Y-77959761D01*
X160623523Y-77864523D01*
X160623523Y-77007380D01*
X159956857Y-78007380D02*
X160052095Y-77959761D01*
X160099714Y-77864523D01*
X160099714Y-77007380D01*
D12*
X165518761Y-79736904D02*
X165785428Y-79355952D01*
X165975904Y-79736904D02*
X165975904Y-78936904D01*
X165671142Y-78936904D01*
X165594952Y-78975000D01*
X165556857Y-79013095D01*
X165518761Y-79089285D01*
X165518761Y-79203571D01*
X165556857Y-79279761D01*
X165594952Y-79317857D01*
X165671142Y-79355952D01*
X165975904Y-79355952D01*
X164794952Y-78936904D02*
X165175904Y-78936904D01*
X165214000Y-79317857D01*
X165175904Y-79279761D01*
X165099714Y-79241666D01*
X164909238Y-79241666D01*
X164833047Y-79279761D01*
X164794952Y-79317857D01*
X164756857Y-79394047D01*
X164756857Y-79584523D01*
X164794952Y-79660714D01*
X164833047Y-79698809D01*
X164909238Y-79736904D01*
X165099714Y-79736904D01*
X165175904Y-79698809D01*
X165214000Y-79660714D01*
X164071142Y-78936904D02*
X164223523Y-78936904D01*
X164299714Y-78975000D01*
X164337809Y-79013095D01*
X164414000Y-79127380D01*
X164452095Y-79279761D01*
X164452095Y-79584523D01*
X164414000Y-79660714D01*
X164375904Y-79698809D01*
X164299714Y-79736904D01*
X164147333Y-79736904D01*
X164071142Y-79698809D01*
X164033047Y-79660714D01*
X163994952Y-79584523D01*
X163994952Y-79394047D01*
X164033047Y-79317857D01*
X164071142Y-79279761D01*
X164147333Y-79241666D01*
X164299714Y-79241666D01*
X164375904Y-79279761D01*
X164414000Y-79317857D01*
X164452095Y-79394047D01*
X163652095Y-79432142D02*
X163042571Y-79432142D01*
X162509238Y-78936904D02*
X162356857Y-78936904D01*
X162280666Y-78975000D01*
X162204476Y-79051190D01*
X162166380Y-79203571D01*
X162166380Y-79470238D01*
X162204476Y-79622619D01*
X162280666Y-79698809D01*
X162356857Y-79736904D01*
X162509238Y-79736904D01*
X162585428Y-79698809D01*
X162661619Y-79622619D01*
X162699714Y-79470238D01*
X162699714Y-79203571D01*
X162661619Y-79051190D01*
X162585428Y-78975000D01*
X162509238Y-78936904D01*
X161823523Y-79736904D02*
X161823523Y-78936904D01*
X161480666Y-79736904D02*
X161480666Y-79317857D01*
X161518761Y-79241666D01*
X161594952Y-79203571D01*
X161709238Y-79203571D01*
X161785428Y-79241666D01*
X161823523Y-79279761D01*
X161099714Y-79736904D02*
X161099714Y-79203571D01*
X161099714Y-79279761D02*
X161061619Y-79241666D01*
X160985428Y-79203571D01*
X160871142Y-79203571D01*
X160794952Y-79241666D01*
X160756857Y-79317857D01*
X160756857Y-79736904D01*
X160756857Y-79317857D02*
X160718761Y-79241666D01*
X160642571Y-79203571D01*
X160528285Y-79203571D01*
X160452095Y-79241666D01*
X160414000Y-79317857D01*
X160414000Y-79736904D01*
X159690190Y-78936904D02*
X159842571Y-78936904D01*
X159918761Y-78975000D01*
X159956857Y-79013095D01*
X160033047Y-79127380D01*
X160071142Y-79279761D01*
X160071142Y-79584523D01*
X160033047Y-79660714D01*
X159994952Y-79698809D01*
X159918761Y-79736904D01*
X159766380Y-79736904D01*
X159690190Y-79698809D01*
X159652095Y-79660714D01*
X159614000Y-79584523D01*
X159614000Y-79394047D01*
X159652095Y-79317857D01*
X159690190Y-79279761D01*
X159766380Y-79241666D01*
X159918761Y-79241666D01*
X159994952Y-79279761D01*
X160033047Y-79317857D01*
X160071142Y-79394047D01*
G04 #@! TO.C,R56-Ohm7*
D11*
X157255380Y-57499523D02*
X156779190Y-57166190D01*
X157255380Y-56928095D02*
X156255380Y-56928095D01*
X156255380Y-57309047D01*
X156303000Y-57404285D01*
X156350619Y-57451904D01*
X156445857Y-57499523D01*
X156588714Y-57499523D01*
X156683952Y-57451904D01*
X156731571Y-57404285D01*
X156779190Y-57309047D01*
X156779190Y-56928095D01*
X157350619Y-57690000D02*
X157350619Y-58451904D01*
X157207761Y-58642380D02*
X157255380Y-58785238D01*
X157255380Y-59023333D01*
X157207761Y-59118571D01*
X157160142Y-59166190D01*
X157064904Y-59213809D01*
X156969666Y-59213809D01*
X156874428Y-59166190D01*
X156826809Y-59118571D01*
X156779190Y-59023333D01*
X156731571Y-58832857D01*
X156683952Y-58737619D01*
X156636333Y-58690000D01*
X156541095Y-58642380D01*
X156445857Y-58642380D01*
X156350619Y-58690000D01*
X156303000Y-58737619D01*
X156255380Y-58832857D01*
X156255380Y-59070952D01*
X156303000Y-59213809D01*
X157255380Y-59642380D02*
X156588714Y-59642380D01*
X156683952Y-59642380D02*
X156636333Y-59690000D01*
X156588714Y-59785238D01*
X156588714Y-59928095D01*
X156636333Y-60023333D01*
X156731571Y-60070952D01*
X157255380Y-60070952D01*
X156731571Y-60070952D02*
X156636333Y-60118571D01*
X156588714Y-60213809D01*
X156588714Y-60356666D01*
X156636333Y-60451904D01*
X156731571Y-60499523D01*
X157255380Y-60499523D01*
X157255380Y-61404285D02*
X156731571Y-61404285D01*
X156636333Y-61356666D01*
X156588714Y-61261428D01*
X156588714Y-61070952D01*
X156636333Y-60975714D01*
X157207761Y-61404285D02*
X157255380Y-61309047D01*
X157255380Y-61070952D01*
X157207761Y-60975714D01*
X157112523Y-60928095D01*
X157017285Y-60928095D01*
X156922047Y-60975714D01*
X156874428Y-61070952D01*
X156874428Y-61309047D01*
X156826809Y-61404285D01*
X157255380Y-62023333D02*
X157207761Y-61928095D01*
X157112523Y-61880476D01*
X156255380Y-61880476D01*
X157255380Y-62547142D02*
X157207761Y-62451904D01*
X157112523Y-62404285D01*
X156255380Y-62404285D01*
D12*
X158984904Y-56985238D02*
X158603952Y-56718571D01*
X158984904Y-56528095D02*
X158184904Y-56528095D01*
X158184904Y-56832857D01*
X158223000Y-56909047D01*
X158261095Y-56947142D01*
X158337285Y-56985238D01*
X158451571Y-56985238D01*
X158527761Y-56947142D01*
X158565857Y-56909047D01*
X158603952Y-56832857D01*
X158603952Y-56528095D01*
X158184904Y-57709047D02*
X158184904Y-57328095D01*
X158565857Y-57290000D01*
X158527761Y-57328095D01*
X158489666Y-57404285D01*
X158489666Y-57594761D01*
X158527761Y-57670952D01*
X158565857Y-57709047D01*
X158642047Y-57747142D01*
X158832523Y-57747142D01*
X158908714Y-57709047D01*
X158946809Y-57670952D01*
X158984904Y-57594761D01*
X158984904Y-57404285D01*
X158946809Y-57328095D01*
X158908714Y-57290000D01*
X158184904Y-58432857D02*
X158184904Y-58280476D01*
X158223000Y-58204285D01*
X158261095Y-58166190D01*
X158375380Y-58090000D01*
X158527761Y-58051904D01*
X158832523Y-58051904D01*
X158908714Y-58090000D01*
X158946809Y-58128095D01*
X158984904Y-58204285D01*
X158984904Y-58356666D01*
X158946809Y-58432857D01*
X158908714Y-58470952D01*
X158832523Y-58509047D01*
X158642047Y-58509047D01*
X158565857Y-58470952D01*
X158527761Y-58432857D01*
X158489666Y-58356666D01*
X158489666Y-58204285D01*
X158527761Y-58128095D01*
X158565857Y-58090000D01*
X158642047Y-58051904D01*
X158680142Y-58851904D02*
X158680142Y-59461428D01*
X158184904Y-59994761D02*
X158184904Y-60147142D01*
X158223000Y-60223333D01*
X158299190Y-60299523D01*
X158451571Y-60337619D01*
X158718238Y-60337619D01*
X158870619Y-60299523D01*
X158946809Y-60223333D01*
X158984904Y-60147142D01*
X158984904Y-59994761D01*
X158946809Y-59918571D01*
X158870619Y-59842380D01*
X158718238Y-59804285D01*
X158451571Y-59804285D01*
X158299190Y-59842380D01*
X158223000Y-59918571D01*
X158184904Y-59994761D01*
X158984904Y-60680476D02*
X158184904Y-60680476D01*
X158984904Y-61023333D02*
X158565857Y-61023333D01*
X158489666Y-60985238D01*
X158451571Y-60909047D01*
X158451571Y-60794761D01*
X158489666Y-60718571D01*
X158527761Y-60680476D01*
X158984904Y-61404285D02*
X158451571Y-61404285D01*
X158527761Y-61404285D02*
X158489666Y-61442380D01*
X158451571Y-61518571D01*
X158451571Y-61632857D01*
X158489666Y-61709047D01*
X158565857Y-61747142D01*
X158984904Y-61747142D01*
X158565857Y-61747142D02*
X158489666Y-61785238D01*
X158451571Y-61861428D01*
X158451571Y-61975714D01*
X158489666Y-62051904D01*
X158565857Y-62090000D01*
X158984904Y-62090000D01*
X158184904Y-62394761D02*
X158184904Y-62928095D01*
X158984904Y-62585238D01*
G04 #@! TO.C,SMDPROGCONN*
D11*
X160716666Y-54070380D02*
X160716666Y-53070380D01*
X160335714Y-53070380D01*
X160240476Y-53118000D01*
X160192857Y-53165619D01*
X160145238Y-53260857D01*
X160145238Y-53403714D01*
X160192857Y-53498952D01*
X160240476Y-53546571D01*
X160335714Y-53594190D01*
X160716666Y-53594190D01*
X159716666Y-54070380D02*
X159716666Y-53403714D01*
X159716666Y-53070380D02*
X159764285Y-53118000D01*
X159716666Y-53165619D01*
X159669047Y-53118000D01*
X159716666Y-53070380D01*
X159716666Y-53165619D01*
X159240476Y-53403714D02*
X159240476Y-54070380D01*
X159240476Y-53498952D02*
X159192857Y-53451333D01*
X159097619Y-53403714D01*
X158954761Y-53403714D01*
X158859523Y-53451333D01*
X158811904Y-53546571D01*
X158811904Y-54070380D01*
X158383333Y-54022761D02*
X158240476Y-54070380D01*
X158002380Y-54070380D01*
X157907142Y-54022761D01*
X157859523Y-53975142D01*
X157811904Y-53879904D01*
X157811904Y-53784666D01*
X157859523Y-53689428D01*
X157907142Y-53641809D01*
X158002380Y-53594190D01*
X158192857Y-53546571D01*
X158288095Y-53498952D01*
X158335714Y-53451333D01*
X158383333Y-53356095D01*
X158383333Y-53260857D01*
X158335714Y-53165619D01*
X158288095Y-53118000D01*
X158192857Y-53070380D01*
X157954761Y-53070380D01*
X157811904Y-53118000D01*
X157240476Y-54070380D02*
X157335714Y-54022761D01*
X157383333Y-53975142D01*
X157430952Y-53879904D01*
X157430952Y-53594190D01*
X157383333Y-53498952D01*
X157335714Y-53451333D01*
X157240476Y-53403714D01*
X157097619Y-53403714D01*
X157002380Y-53451333D01*
X156954761Y-53498952D01*
X156907142Y-53594190D01*
X156907142Y-53879904D01*
X156954761Y-53975142D01*
X157002380Y-54022761D01*
X157097619Y-54070380D01*
X157240476Y-54070380D01*
X156050000Y-54022761D02*
X156145238Y-54070380D01*
X156335714Y-54070380D01*
X156430952Y-54022761D01*
X156478571Y-53975142D01*
X156526190Y-53879904D01*
X156526190Y-53594190D01*
X156478571Y-53498952D01*
X156430952Y-53451333D01*
X156335714Y-53403714D01*
X156145238Y-53403714D01*
X156050000Y-53451333D01*
X155621428Y-54070380D02*
X155621428Y-53070380D01*
X155526190Y-53689428D02*
X155240476Y-54070380D01*
X155240476Y-53403714D02*
X155621428Y-53784666D01*
X154430952Y-54022761D02*
X154526190Y-54070380D01*
X154716666Y-54070380D01*
X154811904Y-54022761D01*
X154859523Y-53927523D01*
X154859523Y-53546571D01*
X154811904Y-53451333D01*
X154716666Y-53403714D01*
X154526190Y-53403714D01*
X154430952Y-53451333D01*
X154383333Y-53546571D01*
X154383333Y-53641809D01*
X154859523Y-53737047D01*
X154097619Y-53403714D02*
X153716666Y-53403714D01*
X153954761Y-53070380D02*
X153954761Y-53927523D01*
X153907142Y-54022761D01*
X153811904Y-54070380D01*
X153716666Y-54070380D01*
X153621428Y-54165619D02*
X152859523Y-54165619D01*
X152669047Y-53165619D02*
X152621428Y-53118000D01*
X152526190Y-53070380D01*
X152288095Y-53070380D01*
X152192857Y-53118000D01*
X152145238Y-53165619D01*
X152097619Y-53260857D01*
X152097619Y-53356095D01*
X152145238Y-53498952D01*
X152716666Y-54070380D01*
X152097619Y-54070380D01*
X151764285Y-54070380D02*
X151240476Y-53403714D01*
X151764285Y-53403714D02*
X151240476Y-54070380D01*
X150669047Y-53070380D02*
X150573809Y-53070380D01*
X150478571Y-53118000D01*
X150430952Y-53165619D01*
X150383333Y-53260857D01*
X150335714Y-53451333D01*
X150335714Y-53689428D01*
X150383333Y-53879904D01*
X150430952Y-53975142D01*
X150478571Y-54022761D01*
X150573809Y-54070380D01*
X150669047Y-54070380D01*
X150764285Y-54022761D01*
X150811904Y-53975142D01*
X150859523Y-53879904D01*
X150907142Y-53689428D01*
X150907142Y-53451333D01*
X150859523Y-53260857D01*
X150811904Y-53165619D01*
X150764285Y-53118000D01*
X150669047Y-53070380D01*
X149478571Y-53403714D02*
X149478571Y-54070380D01*
X149716666Y-53022761D02*
X149954761Y-53737047D01*
X149335714Y-53737047D01*
X149192857Y-54165619D02*
X148430952Y-54165619D01*
X148192857Y-54070380D02*
X148192857Y-53070380D01*
X147811904Y-53070380D01*
X147716666Y-53118000D01*
X147669047Y-53165619D01*
X147621428Y-53260857D01*
X147621428Y-53403714D01*
X147669047Y-53498952D01*
X147716666Y-53546571D01*
X147811904Y-53594190D01*
X148192857Y-53594190D01*
X146669047Y-54070380D02*
X147240476Y-54070380D01*
X146954761Y-54070380D02*
X146954761Y-53070380D01*
X147050000Y-53213238D01*
X147145238Y-53308476D01*
X147240476Y-53356095D01*
X146240476Y-53975142D02*
X146192857Y-54022761D01*
X146240476Y-54070380D01*
X146288095Y-54022761D01*
X146240476Y-53975142D01*
X146240476Y-54070380D01*
X145811904Y-53165619D02*
X145764285Y-53118000D01*
X145669047Y-53070380D01*
X145430952Y-53070380D01*
X145335714Y-53118000D01*
X145288095Y-53165619D01*
X145240476Y-53260857D01*
X145240476Y-53356095D01*
X145288095Y-53498952D01*
X145859523Y-54070380D01*
X145240476Y-54070380D01*
X144907142Y-53070380D02*
X144240476Y-53070380D01*
X144669047Y-54070380D01*
X143859523Y-54070380D02*
X143859523Y-53403714D01*
X143859523Y-53498952D02*
X143811904Y-53451333D01*
X143716666Y-53403714D01*
X143573809Y-53403714D01*
X143478571Y-53451333D01*
X143430952Y-53546571D01*
X143430952Y-54070380D01*
X143430952Y-53546571D02*
X143383333Y-53451333D01*
X143288095Y-53403714D01*
X143145238Y-53403714D01*
X143050000Y-53451333D01*
X143002380Y-53546571D01*
X143002380Y-54070380D01*
X142526190Y-54070380D02*
X142526190Y-53403714D01*
X142526190Y-53498952D02*
X142478571Y-53451333D01*
X142383333Y-53403714D01*
X142240476Y-53403714D01*
X142145238Y-53451333D01*
X142097619Y-53546571D01*
X142097619Y-54070380D01*
X142097619Y-53546571D02*
X142050000Y-53451333D01*
X141954761Y-53403714D01*
X141811904Y-53403714D01*
X141716666Y-53451333D01*
X141669047Y-53546571D01*
X141669047Y-54070380D01*
X141430952Y-54165619D02*
X140669047Y-54165619D01*
X140573809Y-53070380D02*
X140240476Y-54070380D01*
X139907142Y-53070380D01*
X139192857Y-54022761D02*
X139288095Y-54070380D01*
X139478571Y-54070380D01*
X139573809Y-54022761D01*
X139621428Y-53927523D01*
X139621428Y-53546571D01*
X139573809Y-53451333D01*
X139478571Y-53403714D01*
X139288095Y-53403714D01*
X139192857Y-53451333D01*
X139145238Y-53546571D01*
X139145238Y-53641809D01*
X139621428Y-53737047D01*
X138716666Y-54070380D02*
X138716666Y-53403714D01*
X138716666Y-53594190D02*
X138669047Y-53498952D01*
X138621428Y-53451333D01*
X138526190Y-53403714D01*
X138430952Y-53403714D01*
X138240476Y-53403714D02*
X137859523Y-53403714D01*
X138097619Y-53070380D02*
X138097619Y-53927523D01*
X138050000Y-54022761D01*
X137954761Y-54070380D01*
X137859523Y-54070380D01*
X137526190Y-54070380D02*
X137526190Y-53403714D01*
X137526190Y-53070380D02*
X137573809Y-53118000D01*
X137526190Y-53165619D01*
X137478571Y-53118000D01*
X137526190Y-53070380D01*
X137526190Y-53165619D01*
X136621428Y-54022761D02*
X136716666Y-54070380D01*
X136907142Y-54070380D01*
X137002380Y-54022761D01*
X137050000Y-53975142D01*
X137097619Y-53879904D01*
X137097619Y-53594190D01*
X137050000Y-53498952D01*
X137002380Y-53451333D01*
X136907142Y-53403714D01*
X136716666Y-53403714D01*
X136621428Y-53451333D01*
X135764285Y-54070380D02*
X135764285Y-53546571D01*
X135811904Y-53451333D01*
X135907142Y-53403714D01*
X136097619Y-53403714D01*
X136192857Y-53451333D01*
X135764285Y-54022761D02*
X135859523Y-54070380D01*
X136097619Y-54070380D01*
X136192857Y-54022761D01*
X136240476Y-53927523D01*
X136240476Y-53832285D01*
X136192857Y-53737047D01*
X136097619Y-53689428D01*
X135859523Y-53689428D01*
X135764285Y-53641809D01*
X135145238Y-54070380D02*
X135240476Y-54022761D01*
X135288095Y-53927523D01*
X135288095Y-53070380D01*
X135002380Y-54165619D02*
X134240476Y-54165619D01*
X134050000Y-54022761D02*
X133907142Y-54070380D01*
X133669047Y-54070380D01*
X133573809Y-54022761D01*
X133526190Y-53975142D01*
X133478571Y-53879904D01*
X133478571Y-53784666D01*
X133526190Y-53689428D01*
X133573809Y-53641809D01*
X133669047Y-53594190D01*
X133859523Y-53546571D01*
X133954761Y-53498952D01*
X134002380Y-53451333D01*
X134050000Y-53356095D01*
X134050000Y-53260857D01*
X134002380Y-53165619D01*
X133954761Y-53118000D01*
X133859523Y-53070380D01*
X133621428Y-53070380D01*
X133478571Y-53118000D01*
X133050000Y-54070380D02*
X133050000Y-53070380D01*
X132716666Y-53784666D01*
X132383333Y-53070380D01*
X132383333Y-54070380D01*
X131907142Y-54070380D02*
X131907142Y-53070380D01*
X131669047Y-53070380D01*
X131526190Y-53118000D01*
X131430952Y-53213238D01*
X131383333Y-53308476D01*
X131335714Y-53498952D01*
X131335714Y-53641809D01*
X131383333Y-53832285D01*
X131430952Y-53927523D01*
X131526190Y-54022761D01*
X131669047Y-54070380D01*
X131907142Y-54070380D01*
X145645238Y-63110380D02*
X145597619Y-62967523D01*
X145597619Y-62729428D01*
X145645238Y-62634190D01*
X145692857Y-62586571D01*
X145788095Y-62538952D01*
X145883333Y-62538952D01*
X145978571Y-62586571D01*
X146026190Y-62634190D01*
X146073809Y-62729428D01*
X146121428Y-62919904D01*
X146169047Y-63015142D01*
X146216666Y-63062761D01*
X146311904Y-63110380D01*
X146407142Y-63110380D01*
X146502380Y-63062761D01*
X146550000Y-63015142D01*
X146597619Y-62919904D01*
X146597619Y-62681809D01*
X146550000Y-62538952D01*
X145597619Y-62110380D02*
X146597619Y-62110380D01*
X145883333Y-61777047D01*
X146597619Y-61443714D01*
X145597619Y-61443714D01*
X145597619Y-60967523D02*
X146597619Y-60967523D01*
X146597619Y-60729428D01*
X146550000Y-60586571D01*
X146454761Y-60491333D01*
X146359523Y-60443714D01*
X146169047Y-60396095D01*
X146026190Y-60396095D01*
X145835714Y-60443714D01*
X145740476Y-60491333D01*
X145645238Y-60586571D01*
X145597619Y-60729428D01*
X145597619Y-60967523D01*
X145597619Y-59967523D02*
X146597619Y-59967523D01*
X146597619Y-59586571D01*
X146550000Y-59491333D01*
X146502380Y-59443714D01*
X146407142Y-59396095D01*
X146264285Y-59396095D01*
X146169047Y-59443714D01*
X146121428Y-59491333D01*
X146073809Y-59586571D01*
X146073809Y-59967523D01*
X145597619Y-58396095D02*
X146073809Y-58729428D01*
X145597619Y-58967523D02*
X146597619Y-58967523D01*
X146597619Y-58586571D01*
X146550000Y-58491333D01*
X146502380Y-58443714D01*
X146407142Y-58396095D01*
X146264285Y-58396095D01*
X146169047Y-58443714D01*
X146121428Y-58491333D01*
X146073809Y-58586571D01*
X146073809Y-58967523D01*
X146597619Y-57777047D02*
X146597619Y-57586571D01*
X146550000Y-57491333D01*
X146454761Y-57396095D01*
X146264285Y-57348476D01*
X145930952Y-57348476D01*
X145740476Y-57396095D01*
X145645238Y-57491333D01*
X145597619Y-57586571D01*
X145597619Y-57777047D01*
X145645238Y-57872285D01*
X145740476Y-57967523D01*
X145930952Y-58015142D01*
X146264285Y-58015142D01*
X146454761Y-57967523D01*
X146550000Y-57872285D01*
X146597619Y-57777047D01*
X146550000Y-56396095D02*
X146597619Y-56491333D01*
X146597619Y-56634190D01*
X146550000Y-56777047D01*
X146454761Y-56872285D01*
X146359523Y-56919904D01*
X146169047Y-56967523D01*
X146026190Y-56967523D01*
X145835714Y-56919904D01*
X145740476Y-56872285D01*
X145645238Y-56777047D01*
X145597619Y-56634190D01*
X145597619Y-56538952D01*
X145645238Y-56396095D01*
X145692857Y-56348476D01*
X146026190Y-56348476D01*
X146026190Y-56538952D01*
X145692857Y-55348476D02*
X145645238Y-55396095D01*
X145597619Y-55538952D01*
X145597619Y-55634190D01*
X145645238Y-55777047D01*
X145740476Y-55872285D01*
X145835714Y-55919904D01*
X146026190Y-55967523D01*
X146169047Y-55967523D01*
X146359523Y-55919904D01*
X146454761Y-55872285D01*
X146550000Y-55777047D01*
X146597619Y-55634190D01*
X146597619Y-55538952D01*
X146550000Y-55396095D01*
X146502380Y-55348476D01*
X146597619Y-54729428D02*
X146597619Y-54538952D01*
X146550000Y-54443714D01*
X146454761Y-54348476D01*
X146264285Y-54300857D01*
X145930952Y-54300857D01*
X145740476Y-54348476D01*
X145645238Y-54443714D01*
X145597619Y-54538952D01*
X145597619Y-54729428D01*
X145645238Y-54824666D01*
X145740476Y-54919904D01*
X145930952Y-54967523D01*
X146264285Y-54967523D01*
X146454761Y-54919904D01*
X146550000Y-54824666D01*
X146597619Y-54729428D01*
X145597619Y-53872285D02*
X146597619Y-53872285D01*
X145597619Y-53300857D01*
X146597619Y-53300857D01*
X145597619Y-52824666D02*
X146597619Y-52824666D01*
X145597619Y-52253238D01*
X146597619Y-52253238D01*
G04 #@! TD*
M02*
