G04 #@! TF.GenerationSoftware,KiCad,Pcbnew,(5.0.0)*
G04 #@! TF.CreationDate,2018-11-20T12:56:54-05:00*
G04 #@! TF.ProjectId,BsidesRock2019,427369646573526F636B323031392E6B,rev?*
G04 #@! TF.SameCoordinates,Original*
G04 #@! TF.FileFunction,Other,User*
%FSLAX46Y46*%
G04 Gerber Fmt 4.6, Leading zero omitted, Abs format (unit mm)*
G04 Created by KiCad (PCBNEW (5.0.0)) date 11/20/18 12:56:54*
%MOMM*%
%LPD*%
G01*
G04 APERTURE LIST*
%ADD10C,0.050000*%
G04 APERTURE END LIST*
D10*
G04 #@! TO.C,U1*
X141300000Y-54708000D02*
X141300000Y-60608000D01*
X150800000Y-54708000D02*
X150800000Y-60608000D01*
X141300000Y-54708000D02*
X150800000Y-54708000D01*
X141300000Y-60608000D02*
X150800000Y-60608000D01*
G04 #@! TO.C,D8*
X164283000Y-64450000D02*
X160583000Y-64450000D01*
X164283000Y-62550000D02*
X164283000Y-64450000D01*
X160583000Y-62550000D02*
X164283000Y-62550000D01*
X160583000Y-64450000D02*
X160583000Y-62550000D01*
G04 #@! TO.C,D1*
X126680000Y-61413000D02*
X124780000Y-61413000D01*
X124780000Y-61413000D02*
X124780000Y-57713000D01*
X124780000Y-57713000D02*
X126680000Y-57713000D01*
X126680000Y-57713000D02*
X126680000Y-61413000D01*
G04 #@! TO.C,D3*
X131517000Y-56576000D02*
X127817000Y-56576000D01*
X131517000Y-54676000D02*
X131517000Y-56576000D01*
X127817000Y-54676000D02*
X131517000Y-54676000D01*
X127817000Y-56576000D02*
X127817000Y-54676000D01*
G04 #@! TO.C,D4*
X127817000Y-64450000D02*
X127817000Y-62550000D01*
X127817000Y-62550000D02*
X131517000Y-62550000D01*
X131517000Y-62550000D02*
X131517000Y-64450000D01*
X131517000Y-64450000D02*
X127817000Y-64450000D01*
G04 #@! TO.C,D5*
X134681000Y-57722000D02*
X134681000Y-61422000D01*
X132781000Y-57722000D02*
X134681000Y-57722000D01*
X132781000Y-61422000D02*
X132781000Y-57722000D01*
X134681000Y-61422000D02*
X132781000Y-61422000D01*
G04 #@! TO.C,D6*
X159446000Y-61413000D02*
X157546000Y-61413000D01*
X157546000Y-61413000D02*
X157546000Y-57713000D01*
X157546000Y-57713000D02*
X159446000Y-57713000D01*
X159446000Y-57713000D02*
X159446000Y-61413000D01*
G04 #@! TO.C,D7*
X164283000Y-56576000D02*
X160583000Y-56576000D01*
X164283000Y-54676000D02*
X164283000Y-56576000D01*
X160583000Y-54676000D02*
X164283000Y-54676000D01*
X160583000Y-56576000D02*
X160583000Y-54676000D01*
G04 #@! TO.C,D10*
X165420000Y-57713000D02*
X167320000Y-57713000D01*
X167320000Y-57713000D02*
X167320000Y-61413000D01*
X167320000Y-61413000D02*
X165420000Y-61413000D01*
X165420000Y-61413000D02*
X165420000Y-57713000D01*
G04 #@! TO.C,D9*
X164664000Y-80325000D02*
X160964000Y-80325000D01*
X164664000Y-78425000D02*
X164664000Y-80325000D01*
X160964000Y-78425000D02*
X164664000Y-78425000D01*
X160964000Y-80325000D02*
X160964000Y-78425000D01*
G04 #@! TO.C,D2*
X127563000Y-80325000D02*
X127563000Y-78425000D01*
X127563000Y-78425000D02*
X131263000Y-78425000D01*
X131263000Y-78425000D02*
X131263000Y-80325000D01*
X131263000Y-80325000D02*
X127563000Y-80325000D01*
G04 #@! TO.C,BLANKHOLE*
X149804000Y-41910000D02*
G75*
G03X149804000Y-41910000I-3500000J0D01*
G01*
G04 #@! TD*
M02*
