G04 #@! TF.GenerationSoftware,KiCad,Pcbnew,(5.0.0)*
G04 #@! TF.CreationDate,2018-11-20T12:56:54-05:00*
G04 #@! TF.ProjectId,BsidesRock2019,427369646573526F636B323031392E6B,rev?*
G04 #@! TF.SameCoordinates,Original*
G04 #@! TF.FileFunction,Other,User*
%FSLAX46Y46*%
G04 Gerber Fmt 4.6, Leading zero omitted, Abs format (unit mm)*
G04 Created by KiCad (PCBNEW (5.0.0)) date 11/20/18 12:56:54*
%MOMM*%
%LPD*%
G01*
G04 APERTURE LIST*
%ADD10C,0.050000*%
G04 APERTURE END LIST*
D10*
G04 #@! TO.C,BT-2032-1*
X187765000Y-90420000D02*
X186775000Y-90420000D01*
X186775000Y-90420000D02*
X186775000Y-93130000D01*
X186775000Y-93130000D02*
X184635000Y-95270000D01*
X184635000Y-95270000D02*
X183095000Y-95270000D01*
X168695454Y-95270427D02*
G75*
G03X183095000Y-95270000I7199546J7640427D01*
G01*
X168695000Y-95270000D02*
X167155000Y-95270000D01*
X167155000Y-95270000D02*
X165015000Y-93130000D01*
X165015000Y-93130000D02*
X165015000Y-90420000D01*
X165015000Y-90420000D02*
X164025000Y-90420000D01*
X164025000Y-90420000D02*
X164025000Y-84840000D01*
X164025000Y-84840000D02*
X165015000Y-84840000D01*
X165015000Y-84840000D02*
X165015000Y-83990000D01*
X165015000Y-83990000D02*
X166455000Y-80010000D01*
X169938035Y-78975396D02*
G75*
G03X166465000Y-80010000I-1353035J-1804604D01*
G01*
X181840368Y-78979925D02*
G75*
G03X169935000Y-78990000I-5945368J-8650075D01*
G01*
X185310144Y-80008659D02*
G75*
G03X181855000Y-78990000I-2105144J-771341D01*
G01*
X185325000Y-80000000D02*
X186775000Y-83990000D01*
X186775000Y-83990000D02*
X186775000Y-84840000D01*
X186775000Y-84840000D02*
X187765000Y-84840000D01*
X187765000Y-84840000D02*
X187765000Y-90420000D01*
G04 #@! TO.C,BT-2032-2*
X128837000Y-84840000D02*
X128837000Y-90420000D01*
X127847000Y-84840000D02*
X128837000Y-84840000D01*
X127847000Y-83990000D02*
X127847000Y-84840000D01*
X126397000Y-80000000D02*
X127847000Y-83990000D01*
X126382144Y-80008659D02*
G75*
G03X122927000Y-78990000I-2105144J-771341D01*
G01*
X122912368Y-78979925D02*
G75*
G03X111007000Y-78990000I-5945368J-8650075D01*
G01*
X111010035Y-78975396D02*
G75*
G03X107537000Y-80010000I-1353035J-1804604D01*
G01*
X106087000Y-83990000D02*
X107527000Y-80010000D01*
X106087000Y-84840000D02*
X106087000Y-83990000D01*
X105097000Y-84840000D02*
X106087000Y-84840000D01*
X105097000Y-90420000D02*
X105097000Y-84840000D01*
X106087000Y-90420000D02*
X105097000Y-90420000D01*
X106087000Y-93130000D02*
X106087000Y-90420000D01*
X108227000Y-95270000D02*
X106087000Y-93130000D01*
X109767000Y-95270000D02*
X108227000Y-95270000D01*
X109767454Y-95270427D02*
G75*
G03X124167000Y-95270000I7199546J7640427D01*
G01*
X125707000Y-95270000D02*
X124167000Y-95270000D01*
X127847000Y-93130000D02*
X125707000Y-95270000D01*
X127847000Y-90420000D02*
X127847000Y-93130000D01*
X128837000Y-90420000D02*
X127847000Y-90420000D01*
G04 #@! TO.C,R56-Ohm10*
X167363000Y-61886000D02*
X167363000Y-56986000D01*
X165123000Y-61886000D02*
X167363000Y-61886000D01*
X165123000Y-56986000D02*
X165123000Y-61886000D01*
X167363000Y-56986000D02*
X165123000Y-56986000D01*
G04 #@! TO.C,R56-Ohm8*
X159602000Y-54633000D02*
X159602000Y-56873000D01*
X159602000Y-56873000D02*
X164502000Y-56873000D01*
X164502000Y-56873000D02*
X164502000Y-54633000D01*
X164502000Y-54633000D02*
X159602000Y-54633000D01*
G04 #@! TO.C,R56-Ohm9*
X164756000Y-62380000D02*
X159856000Y-62380000D01*
X164756000Y-64620000D02*
X164756000Y-62380000D01*
X159856000Y-64620000D02*
X164756000Y-64620000D01*
X159856000Y-62380000D02*
X159856000Y-64620000D01*
G04 #@! TO.C,R56-Ohm1*
X124356000Y-62140000D02*
X126596000Y-62140000D01*
X126596000Y-62140000D02*
X126596000Y-57240000D01*
X126596000Y-57240000D02*
X124356000Y-57240000D01*
X124356000Y-57240000D02*
X124356000Y-62140000D01*
G04 #@! TO.C,R56-Ohm2*
X132738000Y-57113000D02*
X132738000Y-62013000D01*
X134978000Y-57113000D02*
X132738000Y-57113000D01*
X134978000Y-62013000D02*
X134978000Y-57113000D01*
X132738000Y-62013000D02*
X134978000Y-62013000D01*
G04 #@! TO.C,R56-Ohm3*
X126963000Y-54506000D02*
X126963000Y-56746000D01*
X126963000Y-56746000D02*
X131863000Y-56746000D01*
X131863000Y-56746000D02*
X131863000Y-54506000D01*
X131863000Y-54506000D02*
X126963000Y-54506000D01*
G04 #@! TO.C,R56-Ohm4*
X131863000Y-78255000D02*
X126963000Y-78255000D01*
X131863000Y-80495000D02*
X131863000Y-78255000D01*
X126963000Y-80495000D02*
X131863000Y-80495000D01*
X126963000Y-78255000D02*
X126963000Y-80495000D01*
G04 #@! TO.C,R56-Ohm5*
X127217000Y-61999000D02*
X127217000Y-64239000D01*
X127217000Y-64239000D02*
X132117000Y-64239000D01*
X132117000Y-64239000D02*
X132117000Y-61999000D01*
X132117000Y-61999000D02*
X127217000Y-61999000D01*
G04 #@! TO.C,R56-Ohm6*
X165264000Y-78255000D02*
X160364000Y-78255000D01*
X165264000Y-80495000D02*
X165264000Y-78255000D01*
X160364000Y-80495000D02*
X165264000Y-80495000D01*
X160364000Y-78255000D02*
X160364000Y-80495000D01*
G04 #@! TO.C,R56-Ohm7*
X157503000Y-62140000D02*
X159743000Y-62140000D01*
X159743000Y-62140000D02*
X159743000Y-57240000D01*
X159743000Y-57240000D02*
X157503000Y-57240000D01*
X157503000Y-57240000D02*
X157503000Y-62140000D01*
G04 #@! TO.C,SMDPROGCONN*
X142700000Y-54608000D02*
X142700000Y-60708000D01*
X149400000Y-54608000D02*
X142700000Y-54608000D01*
X149400000Y-60708000D02*
X149400000Y-54608000D01*
X142700000Y-60708000D02*
X149400000Y-60708000D01*
G04 #@! TD*
M02*
