G04 #@! TF.GenerationSoftware,KiCad,Pcbnew,(5.0.0)*
G04 #@! TF.CreationDate,2018-11-20T12:56:54-05:00*
G04 #@! TF.ProjectId,BsidesRock2019,427369646573526F636B323031392E6B,rev?*
G04 #@! TF.SameCoordinates,Original*
G04 #@! TF.FileFunction,Copper,L2,Bot,Signal*
G04 #@! TF.FilePolarity,Positive*
%FSLAX46Y46*%
G04 Gerber Fmt 4.6, Leading zero omitted, Abs format (unit mm)*
G04 Created by KiCad (PCBNEW (5.0.0)) date 11/20/18 12:56:54*
%MOMM*%
%LPD*%
G01*
G04 APERTURE LIST*
G04 #@! TA.AperFunction,SMDPad,CuDef*
%ADD10R,3.960000X3.960000*%
G04 #@! TD*
G04 #@! TA.AperFunction,SMDPad,CuDef*
%ADD11R,1.270000X5.080000*%
G04 #@! TD*
G04 #@! TA.AperFunction,Conductor*
%ADD12C,0.100000*%
G04 #@! TD*
G04 #@! TA.AperFunction,SMDPad,CuDef*
%ADD13C,1.425000*%
G04 #@! TD*
G04 #@! TA.AperFunction,ComponentPad*
%ADD14O,1.700000X1.700000*%
G04 #@! TD*
G04 #@! TA.AperFunction,ComponentPad*
%ADD15C,1.700000*%
G04 #@! TD*
G04 #@! TA.AperFunction,ComponentPad*
%ADD16C,6.000000*%
G04 #@! TD*
G04 #@! TA.AperFunction,SMDPad,CuDef*
%ADD17R,2.100000X0.750000*%
G04 #@! TD*
G04 #@! TA.AperFunction,ViaPad*
%ADD18C,1.000000*%
G04 #@! TD*
G04 #@! TA.AperFunction,Conductor*
%ADD19C,0.300000*%
G04 #@! TD*
G04 #@! TA.AperFunction,Conductor*
%ADD20C,0.500000*%
G04 #@! TD*
G04 APERTURE END LIST*
D10*
G04 #@! TO.P,BT-2032-1,2*
G04 #@! TO.N,Net-(BT-2032-1-Pad2)*
X175895000Y-87630000D03*
D11*
G04 #@! TO.P,BT-2032-1,1*
G04 #@! TO.N,Net-(BT-2032-1-Pad1)*
X186880000Y-87630000D03*
X164910000Y-87630000D03*
G04 #@! TD*
G04 #@! TO.P,BT-2032-2,1*
G04 #@! TO.N,Net-(BT-2032-1-Pad1)*
X105982000Y-87630000D03*
X127952000Y-87630000D03*
D10*
G04 #@! TO.P,BT-2032-2,2*
G04 #@! TO.N,Net-(BT-2032-1-Pad2)*
X116967000Y-87630000D03*
G04 #@! TD*
D12*
G04 #@! TO.N,Net-(BT-2032-1-Pad2)*
G04 #@! TO.C,R56-Ohm10*
G36*
X166892504Y-60212204D02*
X166916773Y-60215804D01*
X166940571Y-60221765D01*
X166963671Y-60230030D01*
X166985849Y-60240520D01*
X167006893Y-60253133D01*
X167026598Y-60267747D01*
X167044777Y-60284223D01*
X167061253Y-60302402D01*
X167075867Y-60322107D01*
X167088480Y-60343151D01*
X167098970Y-60365329D01*
X167107235Y-60388429D01*
X167113196Y-60412227D01*
X167116796Y-60436496D01*
X167118000Y-60461000D01*
X167118000Y-61386000D01*
X167116796Y-61410504D01*
X167113196Y-61434773D01*
X167107235Y-61458571D01*
X167098970Y-61481671D01*
X167088480Y-61503849D01*
X167075867Y-61524893D01*
X167061253Y-61544598D01*
X167044777Y-61562777D01*
X167026598Y-61579253D01*
X167006893Y-61593867D01*
X166985849Y-61606480D01*
X166963671Y-61616970D01*
X166940571Y-61625235D01*
X166916773Y-61631196D01*
X166892504Y-61634796D01*
X166868000Y-61636000D01*
X165618000Y-61636000D01*
X165593496Y-61634796D01*
X165569227Y-61631196D01*
X165545429Y-61625235D01*
X165522329Y-61616970D01*
X165500151Y-61606480D01*
X165479107Y-61593867D01*
X165459402Y-61579253D01*
X165441223Y-61562777D01*
X165424747Y-61544598D01*
X165410133Y-61524893D01*
X165397520Y-61503849D01*
X165387030Y-61481671D01*
X165378765Y-61458571D01*
X165372804Y-61434773D01*
X165369204Y-61410504D01*
X165368000Y-61386000D01*
X165368000Y-60461000D01*
X165369204Y-60436496D01*
X165372804Y-60412227D01*
X165378765Y-60388429D01*
X165387030Y-60365329D01*
X165397520Y-60343151D01*
X165410133Y-60322107D01*
X165424747Y-60302402D01*
X165441223Y-60284223D01*
X165459402Y-60267747D01*
X165479107Y-60253133D01*
X165500151Y-60240520D01*
X165522329Y-60230030D01*
X165545429Y-60221765D01*
X165569227Y-60215804D01*
X165593496Y-60212204D01*
X165618000Y-60211000D01*
X166868000Y-60211000D01*
X166892504Y-60212204D01*
X166892504Y-60212204D01*
G37*
D13*
G04 #@! TD*
G04 #@! TO.P,R56-Ohm10,2*
G04 #@! TO.N,Net-(BT-2032-1-Pad2)*
X166243000Y-60923500D03*
D12*
G04 #@! TO.N,Net-(D10-Pad1)*
G04 #@! TO.C,R56-Ohm10*
G36*
X166892504Y-57237204D02*
X166916773Y-57240804D01*
X166940571Y-57246765D01*
X166963671Y-57255030D01*
X166985849Y-57265520D01*
X167006893Y-57278133D01*
X167026598Y-57292747D01*
X167044777Y-57309223D01*
X167061253Y-57327402D01*
X167075867Y-57347107D01*
X167088480Y-57368151D01*
X167098970Y-57390329D01*
X167107235Y-57413429D01*
X167113196Y-57437227D01*
X167116796Y-57461496D01*
X167118000Y-57486000D01*
X167118000Y-58411000D01*
X167116796Y-58435504D01*
X167113196Y-58459773D01*
X167107235Y-58483571D01*
X167098970Y-58506671D01*
X167088480Y-58528849D01*
X167075867Y-58549893D01*
X167061253Y-58569598D01*
X167044777Y-58587777D01*
X167026598Y-58604253D01*
X167006893Y-58618867D01*
X166985849Y-58631480D01*
X166963671Y-58641970D01*
X166940571Y-58650235D01*
X166916773Y-58656196D01*
X166892504Y-58659796D01*
X166868000Y-58661000D01*
X165618000Y-58661000D01*
X165593496Y-58659796D01*
X165569227Y-58656196D01*
X165545429Y-58650235D01*
X165522329Y-58641970D01*
X165500151Y-58631480D01*
X165479107Y-58618867D01*
X165459402Y-58604253D01*
X165441223Y-58587777D01*
X165424747Y-58569598D01*
X165410133Y-58549893D01*
X165397520Y-58528849D01*
X165387030Y-58506671D01*
X165378765Y-58483571D01*
X165372804Y-58459773D01*
X165369204Y-58435504D01*
X165368000Y-58411000D01*
X165368000Y-57486000D01*
X165369204Y-57461496D01*
X165372804Y-57437227D01*
X165378765Y-57413429D01*
X165387030Y-57390329D01*
X165397520Y-57368151D01*
X165410133Y-57347107D01*
X165424747Y-57327402D01*
X165441223Y-57309223D01*
X165459402Y-57292747D01*
X165479107Y-57278133D01*
X165500151Y-57265520D01*
X165522329Y-57255030D01*
X165545429Y-57246765D01*
X165569227Y-57240804D01*
X165593496Y-57237204D01*
X165618000Y-57236000D01*
X166868000Y-57236000D01*
X166892504Y-57237204D01*
X166892504Y-57237204D01*
G37*
D13*
G04 #@! TD*
G04 #@! TO.P,R56-Ohm10,1*
G04 #@! TO.N,Net-(D10-Pad1)*
X166243000Y-57948500D03*
D12*
G04 #@! TO.N,Net-(D7-Pad1)*
G04 #@! TO.C,R56-Ohm8*
G36*
X161051504Y-54879204D02*
X161075773Y-54882804D01*
X161099571Y-54888765D01*
X161122671Y-54897030D01*
X161144849Y-54907520D01*
X161165893Y-54920133D01*
X161185598Y-54934747D01*
X161203777Y-54951223D01*
X161220253Y-54969402D01*
X161234867Y-54989107D01*
X161247480Y-55010151D01*
X161257970Y-55032329D01*
X161266235Y-55055429D01*
X161272196Y-55079227D01*
X161275796Y-55103496D01*
X161277000Y-55128000D01*
X161277000Y-56378000D01*
X161275796Y-56402504D01*
X161272196Y-56426773D01*
X161266235Y-56450571D01*
X161257970Y-56473671D01*
X161247480Y-56495849D01*
X161234867Y-56516893D01*
X161220253Y-56536598D01*
X161203777Y-56554777D01*
X161185598Y-56571253D01*
X161165893Y-56585867D01*
X161144849Y-56598480D01*
X161122671Y-56608970D01*
X161099571Y-56617235D01*
X161075773Y-56623196D01*
X161051504Y-56626796D01*
X161027000Y-56628000D01*
X160102000Y-56628000D01*
X160077496Y-56626796D01*
X160053227Y-56623196D01*
X160029429Y-56617235D01*
X160006329Y-56608970D01*
X159984151Y-56598480D01*
X159963107Y-56585867D01*
X159943402Y-56571253D01*
X159925223Y-56554777D01*
X159908747Y-56536598D01*
X159894133Y-56516893D01*
X159881520Y-56495849D01*
X159871030Y-56473671D01*
X159862765Y-56450571D01*
X159856804Y-56426773D01*
X159853204Y-56402504D01*
X159852000Y-56378000D01*
X159852000Y-55128000D01*
X159853204Y-55103496D01*
X159856804Y-55079227D01*
X159862765Y-55055429D01*
X159871030Y-55032329D01*
X159881520Y-55010151D01*
X159894133Y-54989107D01*
X159908747Y-54969402D01*
X159925223Y-54951223D01*
X159943402Y-54934747D01*
X159963107Y-54920133D01*
X159984151Y-54907520D01*
X160006329Y-54897030D01*
X160029429Y-54888765D01*
X160053227Y-54882804D01*
X160077496Y-54879204D01*
X160102000Y-54878000D01*
X161027000Y-54878000D01*
X161051504Y-54879204D01*
X161051504Y-54879204D01*
G37*
D13*
G04 #@! TD*
G04 #@! TO.P,R56-Ohm8,1*
G04 #@! TO.N,Net-(D7-Pad1)*
X160564500Y-55753000D03*
D12*
G04 #@! TO.N,Net-(BT-2032-1-Pad2)*
G04 #@! TO.C,R56-Ohm8*
G36*
X164026504Y-54879204D02*
X164050773Y-54882804D01*
X164074571Y-54888765D01*
X164097671Y-54897030D01*
X164119849Y-54907520D01*
X164140893Y-54920133D01*
X164160598Y-54934747D01*
X164178777Y-54951223D01*
X164195253Y-54969402D01*
X164209867Y-54989107D01*
X164222480Y-55010151D01*
X164232970Y-55032329D01*
X164241235Y-55055429D01*
X164247196Y-55079227D01*
X164250796Y-55103496D01*
X164252000Y-55128000D01*
X164252000Y-56378000D01*
X164250796Y-56402504D01*
X164247196Y-56426773D01*
X164241235Y-56450571D01*
X164232970Y-56473671D01*
X164222480Y-56495849D01*
X164209867Y-56516893D01*
X164195253Y-56536598D01*
X164178777Y-56554777D01*
X164160598Y-56571253D01*
X164140893Y-56585867D01*
X164119849Y-56598480D01*
X164097671Y-56608970D01*
X164074571Y-56617235D01*
X164050773Y-56623196D01*
X164026504Y-56626796D01*
X164002000Y-56628000D01*
X163077000Y-56628000D01*
X163052496Y-56626796D01*
X163028227Y-56623196D01*
X163004429Y-56617235D01*
X162981329Y-56608970D01*
X162959151Y-56598480D01*
X162938107Y-56585867D01*
X162918402Y-56571253D01*
X162900223Y-56554777D01*
X162883747Y-56536598D01*
X162869133Y-56516893D01*
X162856520Y-56495849D01*
X162846030Y-56473671D01*
X162837765Y-56450571D01*
X162831804Y-56426773D01*
X162828204Y-56402504D01*
X162827000Y-56378000D01*
X162827000Y-55128000D01*
X162828204Y-55103496D01*
X162831804Y-55079227D01*
X162837765Y-55055429D01*
X162846030Y-55032329D01*
X162856520Y-55010151D01*
X162869133Y-54989107D01*
X162883747Y-54969402D01*
X162900223Y-54951223D01*
X162918402Y-54934747D01*
X162938107Y-54920133D01*
X162959151Y-54907520D01*
X162981329Y-54897030D01*
X163004429Y-54888765D01*
X163028227Y-54882804D01*
X163052496Y-54879204D01*
X163077000Y-54878000D01*
X164002000Y-54878000D01*
X164026504Y-54879204D01*
X164026504Y-54879204D01*
G37*
D13*
G04 #@! TD*
G04 #@! TO.P,R56-Ohm8,2*
G04 #@! TO.N,Net-(BT-2032-1-Pad2)*
X163539500Y-55753000D03*
D12*
G04 #@! TO.N,Net-(BT-2032-1-Pad2)*
G04 #@! TO.C,R56-Ohm9*
G36*
X164280504Y-62626204D02*
X164304773Y-62629804D01*
X164328571Y-62635765D01*
X164351671Y-62644030D01*
X164373849Y-62654520D01*
X164394893Y-62667133D01*
X164414598Y-62681747D01*
X164432777Y-62698223D01*
X164449253Y-62716402D01*
X164463867Y-62736107D01*
X164476480Y-62757151D01*
X164486970Y-62779329D01*
X164495235Y-62802429D01*
X164501196Y-62826227D01*
X164504796Y-62850496D01*
X164506000Y-62875000D01*
X164506000Y-64125000D01*
X164504796Y-64149504D01*
X164501196Y-64173773D01*
X164495235Y-64197571D01*
X164486970Y-64220671D01*
X164476480Y-64242849D01*
X164463867Y-64263893D01*
X164449253Y-64283598D01*
X164432777Y-64301777D01*
X164414598Y-64318253D01*
X164394893Y-64332867D01*
X164373849Y-64345480D01*
X164351671Y-64355970D01*
X164328571Y-64364235D01*
X164304773Y-64370196D01*
X164280504Y-64373796D01*
X164256000Y-64375000D01*
X163331000Y-64375000D01*
X163306496Y-64373796D01*
X163282227Y-64370196D01*
X163258429Y-64364235D01*
X163235329Y-64355970D01*
X163213151Y-64345480D01*
X163192107Y-64332867D01*
X163172402Y-64318253D01*
X163154223Y-64301777D01*
X163137747Y-64283598D01*
X163123133Y-64263893D01*
X163110520Y-64242849D01*
X163100030Y-64220671D01*
X163091765Y-64197571D01*
X163085804Y-64173773D01*
X163082204Y-64149504D01*
X163081000Y-64125000D01*
X163081000Y-62875000D01*
X163082204Y-62850496D01*
X163085804Y-62826227D01*
X163091765Y-62802429D01*
X163100030Y-62779329D01*
X163110520Y-62757151D01*
X163123133Y-62736107D01*
X163137747Y-62716402D01*
X163154223Y-62698223D01*
X163172402Y-62681747D01*
X163192107Y-62667133D01*
X163213151Y-62654520D01*
X163235329Y-62644030D01*
X163258429Y-62635765D01*
X163282227Y-62629804D01*
X163306496Y-62626204D01*
X163331000Y-62625000D01*
X164256000Y-62625000D01*
X164280504Y-62626204D01*
X164280504Y-62626204D01*
G37*
D13*
G04 #@! TD*
G04 #@! TO.P,R56-Ohm9,2*
G04 #@! TO.N,Net-(BT-2032-1-Pad2)*
X163793500Y-63500000D03*
D12*
G04 #@! TO.N,Net-(D8-Pad1)*
G04 #@! TO.C,R56-Ohm9*
G36*
X161305504Y-62626204D02*
X161329773Y-62629804D01*
X161353571Y-62635765D01*
X161376671Y-62644030D01*
X161398849Y-62654520D01*
X161419893Y-62667133D01*
X161439598Y-62681747D01*
X161457777Y-62698223D01*
X161474253Y-62716402D01*
X161488867Y-62736107D01*
X161501480Y-62757151D01*
X161511970Y-62779329D01*
X161520235Y-62802429D01*
X161526196Y-62826227D01*
X161529796Y-62850496D01*
X161531000Y-62875000D01*
X161531000Y-64125000D01*
X161529796Y-64149504D01*
X161526196Y-64173773D01*
X161520235Y-64197571D01*
X161511970Y-64220671D01*
X161501480Y-64242849D01*
X161488867Y-64263893D01*
X161474253Y-64283598D01*
X161457777Y-64301777D01*
X161439598Y-64318253D01*
X161419893Y-64332867D01*
X161398849Y-64345480D01*
X161376671Y-64355970D01*
X161353571Y-64364235D01*
X161329773Y-64370196D01*
X161305504Y-64373796D01*
X161281000Y-64375000D01*
X160356000Y-64375000D01*
X160331496Y-64373796D01*
X160307227Y-64370196D01*
X160283429Y-64364235D01*
X160260329Y-64355970D01*
X160238151Y-64345480D01*
X160217107Y-64332867D01*
X160197402Y-64318253D01*
X160179223Y-64301777D01*
X160162747Y-64283598D01*
X160148133Y-64263893D01*
X160135520Y-64242849D01*
X160125030Y-64220671D01*
X160116765Y-64197571D01*
X160110804Y-64173773D01*
X160107204Y-64149504D01*
X160106000Y-64125000D01*
X160106000Y-62875000D01*
X160107204Y-62850496D01*
X160110804Y-62826227D01*
X160116765Y-62802429D01*
X160125030Y-62779329D01*
X160135520Y-62757151D01*
X160148133Y-62736107D01*
X160162747Y-62716402D01*
X160179223Y-62698223D01*
X160197402Y-62681747D01*
X160217107Y-62667133D01*
X160238151Y-62654520D01*
X160260329Y-62644030D01*
X160283429Y-62635765D01*
X160307227Y-62629804D01*
X160331496Y-62626204D01*
X160356000Y-62625000D01*
X161281000Y-62625000D01*
X161305504Y-62626204D01*
X161305504Y-62626204D01*
G37*
D13*
G04 #@! TD*
G04 #@! TO.P,R56-Ohm9,1*
G04 #@! TO.N,Net-(D8-Pad1)*
X160818500Y-63500000D03*
D12*
G04 #@! TO.N,Net-(D1-Pad1)*
G04 #@! TO.C,R56-Ohm1*
G36*
X126125504Y-60466204D02*
X126149773Y-60469804D01*
X126173571Y-60475765D01*
X126196671Y-60484030D01*
X126218849Y-60494520D01*
X126239893Y-60507133D01*
X126259598Y-60521747D01*
X126277777Y-60538223D01*
X126294253Y-60556402D01*
X126308867Y-60576107D01*
X126321480Y-60597151D01*
X126331970Y-60619329D01*
X126340235Y-60642429D01*
X126346196Y-60666227D01*
X126349796Y-60690496D01*
X126351000Y-60715000D01*
X126351000Y-61640000D01*
X126349796Y-61664504D01*
X126346196Y-61688773D01*
X126340235Y-61712571D01*
X126331970Y-61735671D01*
X126321480Y-61757849D01*
X126308867Y-61778893D01*
X126294253Y-61798598D01*
X126277777Y-61816777D01*
X126259598Y-61833253D01*
X126239893Y-61847867D01*
X126218849Y-61860480D01*
X126196671Y-61870970D01*
X126173571Y-61879235D01*
X126149773Y-61885196D01*
X126125504Y-61888796D01*
X126101000Y-61890000D01*
X124851000Y-61890000D01*
X124826496Y-61888796D01*
X124802227Y-61885196D01*
X124778429Y-61879235D01*
X124755329Y-61870970D01*
X124733151Y-61860480D01*
X124712107Y-61847867D01*
X124692402Y-61833253D01*
X124674223Y-61816777D01*
X124657747Y-61798598D01*
X124643133Y-61778893D01*
X124630520Y-61757849D01*
X124620030Y-61735671D01*
X124611765Y-61712571D01*
X124605804Y-61688773D01*
X124602204Y-61664504D01*
X124601000Y-61640000D01*
X124601000Y-60715000D01*
X124602204Y-60690496D01*
X124605804Y-60666227D01*
X124611765Y-60642429D01*
X124620030Y-60619329D01*
X124630520Y-60597151D01*
X124643133Y-60576107D01*
X124657747Y-60556402D01*
X124674223Y-60538223D01*
X124692402Y-60521747D01*
X124712107Y-60507133D01*
X124733151Y-60494520D01*
X124755329Y-60484030D01*
X124778429Y-60475765D01*
X124802227Y-60469804D01*
X124826496Y-60466204D01*
X124851000Y-60465000D01*
X126101000Y-60465000D01*
X126125504Y-60466204D01*
X126125504Y-60466204D01*
G37*
D13*
G04 #@! TD*
G04 #@! TO.P,R56-Ohm1,1*
G04 #@! TO.N,Net-(D1-Pad1)*
X125476000Y-61177500D03*
D12*
G04 #@! TO.N,Net-(BT-2032-1-Pad2)*
G04 #@! TO.C,R56-Ohm1*
G36*
X126125504Y-57491204D02*
X126149773Y-57494804D01*
X126173571Y-57500765D01*
X126196671Y-57509030D01*
X126218849Y-57519520D01*
X126239893Y-57532133D01*
X126259598Y-57546747D01*
X126277777Y-57563223D01*
X126294253Y-57581402D01*
X126308867Y-57601107D01*
X126321480Y-57622151D01*
X126331970Y-57644329D01*
X126340235Y-57667429D01*
X126346196Y-57691227D01*
X126349796Y-57715496D01*
X126351000Y-57740000D01*
X126351000Y-58665000D01*
X126349796Y-58689504D01*
X126346196Y-58713773D01*
X126340235Y-58737571D01*
X126331970Y-58760671D01*
X126321480Y-58782849D01*
X126308867Y-58803893D01*
X126294253Y-58823598D01*
X126277777Y-58841777D01*
X126259598Y-58858253D01*
X126239893Y-58872867D01*
X126218849Y-58885480D01*
X126196671Y-58895970D01*
X126173571Y-58904235D01*
X126149773Y-58910196D01*
X126125504Y-58913796D01*
X126101000Y-58915000D01*
X124851000Y-58915000D01*
X124826496Y-58913796D01*
X124802227Y-58910196D01*
X124778429Y-58904235D01*
X124755329Y-58895970D01*
X124733151Y-58885480D01*
X124712107Y-58872867D01*
X124692402Y-58858253D01*
X124674223Y-58841777D01*
X124657747Y-58823598D01*
X124643133Y-58803893D01*
X124630520Y-58782849D01*
X124620030Y-58760671D01*
X124611765Y-58737571D01*
X124605804Y-58713773D01*
X124602204Y-58689504D01*
X124601000Y-58665000D01*
X124601000Y-57740000D01*
X124602204Y-57715496D01*
X124605804Y-57691227D01*
X124611765Y-57667429D01*
X124620030Y-57644329D01*
X124630520Y-57622151D01*
X124643133Y-57601107D01*
X124657747Y-57581402D01*
X124674223Y-57563223D01*
X124692402Y-57546747D01*
X124712107Y-57532133D01*
X124733151Y-57519520D01*
X124755329Y-57509030D01*
X124778429Y-57500765D01*
X124802227Y-57494804D01*
X124826496Y-57491204D01*
X124851000Y-57490000D01*
X126101000Y-57490000D01*
X126125504Y-57491204D01*
X126125504Y-57491204D01*
G37*
D13*
G04 #@! TD*
G04 #@! TO.P,R56-Ohm1,2*
G04 #@! TO.N,Net-(BT-2032-1-Pad2)*
X125476000Y-58202500D03*
D12*
G04 #@! TO.N,Net-(BT-2032-1-Pad2)*
G04 #@! TO.C,R56-Ohm2*
G36*
X134507504Y-57364204D02*
X134531773Y-57367804D01*
X134555571Y-57373765D01*
X134578671Y-57382030D01*
X134600849Y-57392520D01*
X134621893Y-57405133D01*
X134641598Y-57419747D01*
X134659777Y-57436223D01*
X134676253Y-57454402D01*
X134690867Y-57474107D01*
X134703480Y-57495151D01*
X134713970Y-57517329D01*
X134722235Y-57540429D01*
X134728196Y-57564227D01*
X134731796Y-57588496D01*
X134733000Y-57613000D01*
X134733000Y-58538000D01*
X134731796Y-58562504D01*
X134728196Y-58586773D01*
X134722235Y-58610571D01*
X134713970Y-58633671D01*
X134703480Y-58655849D01*
X134690867Y-58676893D01*
X134676253Y-58696598D01*
X134659777Y-58714777D01*
X134641598Y-58731253D01*
X134621893Y-58745867D01*
X134600849Y-58758480D01*
X134578671Y-58768970D01*
X134555571Y-58777235D01*
X134531773Y-58783196D01*
X134507504Y-58786796D01*
X134483000Y-58788000D01*
X133233000Y-58788000D01*
X133208496Y-58786796D01*
X133184227Y-58783196D01*
X133160429Y-58777235D01*
X133137329Y-58768970D01*
X133115151Y-58758480D01*
X133094107Y-58745867D01*
X133074402Y-58731253D01*
X133056223Y-58714777D01*
X133039747Y-58696598D01*
X133025133Y-58676893D01*
X133012520Y-58655849D01*
X133002030Y-58633671D01*
X132993765Y-58610571D01*
X132987804Y-58586773D01*
X132984204Y-58562504D01*
X132983000Y-58538000D01*
X132983000Y-57613000D01*
X132984204Y-57588496D01*
X132987804Y-57564227D01*
X132993765Y-57540429D01*
X133002030Y-57517329D01*
X133012520Y-57495151D01*
X133025133Y-57474107D01*
X133039747Y-57454402D01*
X133056223Y-57436223D01*
X133074402Y-57419747D01*
X133094107Y-57405133D01*
X133115151Y-57392520D01*
X133137329Y-57382030D01*
X133160429Y-57373765D01*
X133184227Y-57367804D01*
X133208496Y-57364204D01*
X133233000Y-57363000D01*
X134483000Y-57363000D01*
X134507504Y-57364204D01*
X134507504Y-57364204D01*
G37*
D13*
G04 #@! TD*
G04 #@! TO.P,R56-Ohm2,2*
G04 #@! TO.N,Net-(BT-2032-1-Pad2)*
X133858000Y-58075500D03*
D12*
G04 #@! TO.N,Net-(D4-Pad1)*
G04 #@! TO.C,R56-Ohm2*
G36*
X134507504Y-60339204D02*
X134531773Y-60342804D01*
X134555571Y-60348765D01*
X134578671Y-60357030D01*
X134600849Y-60367520D01*
X134621893Y-60380133D01*
X134641598Y-60394747D01*
X134659777Y-60411223D01*
X134676253Y-60429402D01*
X134690867Y-60449107D01*
X134703480Y-60470151D01*
X134713970Y-60492329D01*
X134722235Y-60515429D01*
X134728196Y-60539227D01*
X134731796Y-60563496D01*
X134733000Y-60588000D01*
X134733000Y-61513000D01*
X134731796Y-61537504D01*
X134728196Y-61561773D01*
X134722235Y-61585571D01*
X134713970Y-61608671D01*
X134703480Y-61630849D01*
X134690867Y-61651893D01*
X134676253Y-61671598D01*
X134659777Y-61689777D01*
X134641598Y-61706253D01*
X134621893Y-61720867D01*
X134600849Y-61733480D01*
X134578671Y-61743970D01*
X134555571Y-61752235D01*
X134531773Y-61758196D01*
X134507504Y-61761796D01*
X134483000Y-61763000D01*
X133233000Y-61763000D01*
X133208496Y-61761796D01*
X133184227Y-61758196D01*
X133160429Y-61752235D01*
X133137329Y-61743970D01*
X133115151Y-61733480D01*
X133094107Y-61720867D01*
X133074402Y-61706253D01*
X133056223Y-61689777D01*
X133039747Y-61671598D01*
X133025133Y-61651893D01*
X133012520Y-61630849D01*
X133002030Y-61608671D01*
X132993765Y-61585571D01*
X132987804Y-61561773D01*
X132984204Y-61537504D01*
X132983000Y-61513000D01*
X132983000Y-60588000D01*
X132984204Y-60563496D01*
X132987804Y-60539227D01*
X132993765Y-60515429D01*
X133002030Y-60492329D01*
X133012520Y-60470151D01*
X133025133Y-60449107D01*
X133039747Y-60429402D01*
X133056223Y-60411223D01*
X133074402Y-60394747D01*
X133094107Y-60380133D01*
X133115151Y-60367520D01*
X133137329Y-60357030D01*
X133160429Y-60348765D01*
X133184227Y-60342804D01*
X133208496Y-60339204D01*
X133233000Y-60338000D01*
X134483000Y-60338000D01*
X134507504Y-60339204D01*
X134507504Y-60339204D01*
G37*
D13*
G04 #@! TD*
G04 #@! TO.P,R56-Ohm2,1*
G04 #@! TO.N,Net-(D4-Pad1)*
X133858000Y-61050500D03*
D12*
G04 #@! TO.N,Net-(D3-Pad1)*
G04 #@! TO.C,R56-Ohm3*
G36*
X128412504Y-54752204D02*
X128436773Y-54755804D01*
X128460571Y-54761765D01*
X128483671Y-54770030D01*
X128505849Y-54780520D01*
X128526893Y-54793133D01*
X128546598Y-54807747D01*
X128564777Y-54824223D01*
X128581253Y-54842402D01*
X128595867Y-54862107D01*
X128608480Y-54883151D01*
X128618970Y-54905329D01*
X128627235Y-54928429D01*
X128633196Y-54952227D01*
X128636796Y-54976496D01*
X128638000Y-55001000D01*
X128638000Y-56251000D01*
X128636796Y-56275504D01*
X128633196Y-56299773D01*
X128627235Y-56323571D01*
X128618970Y-56346671D01*
X128608480Y-56368849D01*
X128595867Y-56389893D01*
X128581253Y-56409598D01*
X128564777Y-56427777D01*
X128546598Y-56444253D01*
X128526893Y-56458867D01*
X128505849Y-56471480D01*
X128483671Y-56481970D01*
X128460571Y-56490235D01*
X128436773Y-56496196D01*
X128412504Y-56499796D01*
X128388000Y-56501000D01*
X127463000Y-56501000D01*
X127438496Y-56499796D01*
X127414227Y-56496196D01*
X127390429Y-56490235D01*
X127367329Y-56481970D01*
X127345151Y-56471480D01*
X127324107Y-56458867D01*
X127304402Y-56444253D01*
X127286223Y-56427777D01*
X127269747Y-56409598D01*
X127255133Y-56389893D01*
X127242520Y-56368849D01*
X127232030Y-56346671D01*
X127223765Y-56323571D01*
X127217804Y-56299773D01*
X127214204Y-56275504D01*
X127213000Y-56251000D01*
X127213000Y-55001000D01*
X127214204Y-54976496D01*
X127217804Y-54952227D01*
X127223765Y-54928429D01*
X127232030Y-54905329D01*
X127242520Y-54883151D01*
X127255133Y-54862107D01*
X127269747Y-54842402D01*
X127286223Y-54824223D01*
X127304402Y-54807747D01*
X127324107Y-54793133D01*
X127345151Y-54780520D01*
X127367329Y-54770030D01*
X127390429Y-54761765D01*
X127414227Y-54755804D01*
X127438496Y-54752204D01*
X127463000Y-54751000D01*
X128388000Y-54751000D01*
X128412504Y-54752204D01*
X128412504Y-54752204D01*
G37*
D13*
G04 #@! TD*
G04 #@! TO.P,R56-Ohm3,1*
G04 #@! TO.N,Net-(D3-Pad1)*
X127925500Y-55626000D03*
D12*
G04 #@! TO.N,Net-(BT-2032-1-Pad2)*
G04 #@! TO.C,R56-Ohm3*
G36*
X131387504Y-54752204D02*
X131411773Y-54755804D01*
X131435571Y-54761765D01*
X131458671Y-54770030D01*
X131480849Y-54780520D01*
X131501893Y-54793133D01*
X131521598Y-54807747D01*
X131539777Y-54824223D01*
X131556253Y-54842402D01*
X131570867Y-54862107D01*
X131583480Y-54883151D01*
X131593970Y-54905329D01*
X131602235Y-54928429D01*
X131608196Y-54952227D01*
X131611796Y-54976496D01*
X131613000Y-55001000D01*
X131613000Y-56251000D01*
X131611796Y-56275504D01*
X131608196Y-56299773D01*
X131602235Y-56323571D01*
X131593970Y-56346671D01*
X131583480Y-56368849D01*
X131570867Y-56389893D01*
X131556253Y-56409598D01*
X131539777Y-56427777D01*
X131521598Y-56444253D01*
X131501893Y-56458867D01*
X131480849Y-56471480D01*
X131458671Y-56481970D01*
X131435571Y-56490235D01*
X131411773Y-56496196D01*
X131387504Y-56499796D01*
X131363000Y-56501000D01*
X130438000Y-56501000D01*
X130413496Y-56499796D01*
X130389227Y-56496196D01*
X130365429Y-56490235D01*
X130342329Y-56481970D01*
X130320151Y-56471480D01*
X130299107Y-56458867D01*
X130279402Y-56444253D01*
X130261223Y-56427777D01*
X130244747Y-56409598D01*
X130230133Y-56389893D01*
X130217520Y-56368849D01*
X130207030Y-56346671D01*
X130198765Y-56323571D01*
X130192804Y-56299773D01*
X130189204Y-56275504D01*
X130188000Y-56251000D01*
X130188000Y-55001000D01*
X130189204Y-54976496D01*
X130192804Y-54952227D01*
X130198765Y-54928429D01*
X130207030Y-54905329D01*
X130217520Y-54883151D01*
X130230133Y-54862107D01*
X130244747Y-54842402D01*
X130261223Y-54824223D01*
X130279402Y-54807747D01*
X130299107Y-54793133D01*
X130320151Y-54780520D01*
X130342329Y-54770030D01*
X130365429Y-54761765D01*
X130389227Y-54755804D01*
X130413496Y-54752204D01*
X130438000Y-54751000D01*
X131363000Y-54751000D01*
X131387504Y-54752204D01*
X131387504Y-54752204D01*
G37*
D13*
G04 #@! TD*
G04 #@! TO.P,R56-Ohm3,2*
G04 #@! TO.N,Net-(BT-2032-1-Pad2)*
X130900500Y-55626000D03*
D12*
G04 #@! TO.N,Net-(BT-2032-1-Pad2)*
G04 #@! TO.C,R56-Ohm4*
G36*
X131387504Y-78501204D02*
X131411773Y-78504804D01*
X131435571Y-78510765D01*
X131458671Y-78519030D01*
X131480849Y-78529520D01*
X131501893Y-78542133D01*
X131521598Y-78556747D01*
X131539777Y-78573223D01*
X131556253Y-78591402D01*
X131570867Y-78611107D01*
X131583480Y-78632151D01*
X131593970Y-78654329D01*
X131602235Y-78677429D01*
X131608196Y-78701227D01*
X131611796Y-78725496D01*
X131613000Y-78750000D01*
X131613000Y-80000000D01*
X131611796Y-80024504D01*
X131608196Y-80048773D01*
X131602235Y-80072571D01*
X131593970Y-80095671D01*
X131583480Y-80117849D01*
X131570867Y-80138893D01*
X131556253Y-80158598D01*
X131539777Y-80176777D01*
X131521598Y-80193253D01*
X131501893Y-80207867D01*
X131480849Y-80220480D01*
X131458671Y-80230970D01*
X131435571Y-80239235D01*
X131411773Y-80245196D01*
X131387504Y-80248796D01*
X131363000Y-80250000D01*
X130438000Y-80250000D01*
X130413496Y-80248796D01*
X130389227Y-80245196D01*
X130365429Y-80239235D01*
X130342329Y-80230970D01*
X130320151Y-80220480D01*
X130299107Y-80207867D01*
X130279402Y-80193253D01*
X130261223Y-80176777D01*
X130244747Y-80158598D01*
X130230133Y-80138893D01*
X130217520Y-80117849D01*
X130207030Y-80095671D01*
X130198765Y-80072571D01*
X130192804Y-80048773D01*
X130189204Y-80024504D01*
X130188000Y-80000000D01*
X130188000Y-78750000D01*
X130189204Y-78725496D01*
X130192804Y-78701227D01*
X130198765Y-78677429D01*
X130207030Y-78654329D01*
X130217520Y-78632151D01*
X130230133Y-78611107D01*
X130244747Y-78591402D01*
X130261223Y-78573223D01*
X130279402Y-78556747D01*
X130299107Y-78542133D01*
X130320151Y-78529520D01*
X130342329Y-78519030D01*
X130365429Y-78510765D01*
X130389227Y-78504804D01*
X130413496Y-78501204D01*
X130438000Y-78500000D01*
X131363000Y-78500000D01*
X131387504Y-78501204D01*
X131387504Y-78501204D01*
G37*
D13*
G04 #@! TD*
G04 #@! TO.P,R56-Ohm4,2*
G04 #@! TO.N,Net-(BT-2032-1-Pad2)*
X130900500Y-79375000D03*
D12*
G04 #@! TO.N,Net-(D2-Pad1)*
G04 #@! TO.C,R56-Ohm4*
G36*
X128412504Y-78501204D02*
X128436773Y-78504804D01*
X128460571Y-78510765D01*
X128483671Y-78519030D01*
X128505849Y-78529520D01*
X128526893Y-78542133D01*
X128546598Y-78556747D01*
X128564777Y-78573223D01*
X128581253Y-78591402D01*
X128595867Y-78611107D01*
X128608480Y-78632151D01*
X128618970Y-78654329D01*
X128627235Y-78677429D01*
X128633196Y-78701227D01*
X128636796Y-78725496D01*
X128638000Y-78750000D01*
X128638000Y-80000000D01*
X128636796Y-80024504D01*
X128633196Y-80048773D01*
X128627235Y-80072571D01*
X128618970Y-80095671D01*
X128608480Y-80117849D01*
X128595867Y-80138893D01*
X128581253Y-80158598D01*
X128564777Y-80176777D01*
X128546598Y-80193253D01*
X128526893Y-80207867D01*
X128505849Y-80220480D01*
X128483671Y-80230970D01*
X128460571Y-80239235D01*
X128436773Y-80245196D01*
X128412504Y-80248796D01*
X128388000Y-80250000D01*
X127463000Y-80250000D01*
X127438496Y-80248796D01*
X127414227Y-80245196D01*
X127390429Y-80239235D01*
X127367329Y-80230970D01*
X127345151Y-80220480D01*
X127324107Y-80207867D01*
X127304402Y-80193253D01*
X127286223Y-80176777D01*
X127269747Y-80158598D01*
X127255133Y-80138893D01*
X127242520Y-80117849D01*
X127232030Y-80095671D01*
X127223765Y-80072571D01*
X127217804Y-80048773D01*
X127214204Y-80024504D01*
X127213000Y-80000000D01*
X127213000Y-78750000D01*
X127214204Y-78725496D01*
X127217804Y-78701227D01*
X127223765Y-78677429D01*
X127232030Y-78654329D01*
X127242520Y-78632151D01*
X127255133Y-78611107D01*
X127269747Y-78591402D01*
X127286223Y-78573223D01*
X127304402Y-78556747D01*
X127324107Y-78542133D01*
X127345151Y-78529520D01*
X127367329Y-78519030D01*
X127390429Y-78510765D01*
X127414227Y-78504804D01*
X127438496Y-78501204D01*
X127463000Y-78500000D01*
X128388000Y-78500000D01*
X128412504Y-78501204D01*
X128412504Y-78501204D01*
G37*
D13*
G04 #@! TD*
G04 #@! TO.P,R56-Ohm4,1*
G04 #@! TO.N,Net-(D2-Pad1)*
X127925500Y-79375000D03*
D12*
G04 #@! TO.N,Net-(D5-Pad1)*
G04 #@! TO.C,R56-Ohm5*
G36*
X128666504Y-62245204D02*
X128690773Y-62248804D01*
X128714571Y-62254765D01*
X128737671Y-62263030D01*
X128759849Y-62273520D01*
X128780893Y-62286133D01*
X128800598Y-62300747D01*
X128818777Y-62317223D01*
X128835253Y-62335402D01*
X128849867Y-62355107D01*
X128862480Y-62376151D01*
X128872970Y-62398329D01*
X128881235Y-62421429D01*
X128887196Y-62445227D01*
X128890796Y-62469496D01*
X128892000Y-62494000D01*
X128892000Y-63744000D01*
X128890796Y-63768504D01*
X128887196Y-63792773D01*
X128881235Y-63816571D01*
X128872970Y-63839671D01*
X128862480Y-63861849D01*
X128849867Y-63882893D01*
X128835253Y-63902598D01*
X128818777Y-63920777D01*
X128800598Y-63937253D01*
X128780893Y-63951867D01*
X128759849Y-63964480D01*
X128737671Y-63974970D01*
X128714571Y-63983235D01*
X128690773Y-63989196D01*
X128666504Y-63992796D01*
X128642000Y-63994000D01*
X127717000Y-63994000D01*
X127692496Y-63992796D01*
X127668227Y-63989196D01*
X127644429Y-63983235D01*
X127621329Y-63974970D01*
X127599151Y-63964480D01*
X127578107Y-63951867D01*
X127558402Y-63937253D01*
X127540223Y-63920777D01*
X127523747Y-63902598D01*
X127509133Y-63882893D01*
X127496520Y-63861849D01*
X127486030Y-63839671D01*
X127477765Y-63816571D01*
X127471804Y-63792773D01*
X127468204Y-63768504D01*
X127467000Y-63744000D01*
X127467000Y-62494000D01*
X127468204Y-62469496D01*
X127471804Y-62445227D01*
X127477765Y-62421429D01*
X127486030Y-62398329D01*
X127496520Y-62376151D01*
X127509133Y-62355107D01*
X127523747Y-62335402D01*
X127540223Y-62317223D01*
X127558402Y-62300747D01*
X127578107Y-62286133D01*
X127599151Y-62273520D01*
X127621329Y-62263030D01*
X127644429Y-62254765D01*
X127668227Y-62248804D01*
X127692496Y-62245204D01*
X127717000Y-62244000D01*
X128642000Y-62244000D01*
X128666504Y-62245204D01*
X128666504Y-62245204D01*
G37*
D13*
G04 #@! TD*
G04 #@! TO.P,R56-Ohm5,1*
G04 #@! TO.N,Net-(D5-Pad1)*
X128179500Y-63119000D03*
D12*
G04 #@! TO.N,Net-(BT-2032-1-Pad2)*
G04 #@! TO.C,R56-Ohm5*
G36*
X131641504Y-62245204D02*
X131665773Y-62248804D01*
X131689571Y-62254765D01*
X131712671Y-62263030D01*
X131734849Y-62273520D01*
X131755893Y-62286133D01*
X131775598Y-62300747D01*
X131793777Y-62317223D01*
X131810253Y-62335402D01*
X131824867Y-62355107D01*
X131837480Y-62376151D01*
X131847970Y-62398329D01*
X131856235Y-62421429D01*
X131862196Y-62445227D01*
X131865796Y-62469496D01*
X131867000Y-62494000D01*
X131867000Y-63744000D01*
X131865796Y-63768504D01*
X131862196Y-63792773D01*
X131856235Y-63816571D01*
X131847970Y-63839671D01*
X131837480Y-63861849D01*
X131824867Y-63882893D01*
X131810253Y-63902598D01*
X131793777Y-63920777D01*
X131775598Y-63937253D01*
X131755893Y-63951867D01*
X131734849Y-63964480D01*
X131712671Y-63974970D01*
X131689571Y-63983235D01*
X131665773Y-63989196D01*
X131641504Y-63992796D01*
X131617000Y-63994000D01*
X130692000Y-63994000D01*
X130667496Y-63992796D01*
X130643227Y-63989196D01*
X130619429Y-63983235D01*
X130596329Y-63974970D01*
X130574151Y-63964480D01*
X130553107Y-63951867D01*
X130533402Y-63937253D01*
X130515223Y-63920777D01*
X130498747Y-63902598D01*
X130484133Y-63882893D01*
X130471520Y-63861849D01*
X130461030Y-63839671D01*
X130452765Y-63816571D01*
X130446804Y-63792773D01*
X130443204Y-63768504D01*
X130442000Y-63744000D01*
X130442000Y-62494000D01*
X130443204Y-62469496D01*
X130446804Y-62445227D01*
X130452765Y-62421429D01*
X130461030Y-62398329D01*
X130471520Y-62376151D01*
X130484133Y-62355107D01*
X130498747Y-62335402D01*
X130515223Y-62317223D01*
X130533402Y-62300747D01*
X130553107Y-62286133D01*
X130574151Y-62273520D01*
X130596329Y-62263030D01*
X130619429Y-62254765D01*
X130643227Y-62248804D01*
X130667496Y-62245204D01*
X130692000Y-62244000D01*
X131617000Y-62244000D01*
X131641504Y-62245204D01*
X131641504Y-62245204D01*
G37*
D13*
G04 #@! TD*
G04 #@! TO.P,R56-Ohm5,2*
G04 #@! TO.N,Net-(BT-2032-1-Pad2)*
X131154500Y-63119000D03*
D12*
G04 #@! TO.N,Net-(BT-2032-1-Pad2)*
G04 #@! TO.C,R56-Ohm6*
G36*
X164788504Y-78501204D02*
X164812773Y-78504804D01*
X164836571Y-78510765D01*
X164859671Y-78519030D01*
X164881849Y-78529520D01*
X164902893Y-78542133D01*
X164922598Y-78556747D01*
X164940777Y-78573223D01*
X164957253Y-78591402D01*
X164971867Y-78611107D01*
X164984480Y-78632151D01*
X164994970Y-78654329D01*
X165003235Y-78677429D01*
X165009196Y-78701227D01*
X165012796Y-78725496D01*
X165014000Y-78750000D01*
X165014000Y-80000000D01*
X165012796Y-80024504D01*
X165009196Y-80048773D01*
X165003235Y-80072571D01*
X164994970Y-80095671D01*
X164984480Y-80117849D01*
X164971867Y-80138893D01*
X164957253Y-80158598D01*
X164940777Y-80176777D01*
X164922598Y-80193253D01*
X164902893Y-80207867D01*
X164881849Y-80220480D01*
X164859671Y-80230970D01*
X164836571Y-80239235D01*
X164812773Y-80245196D01*
X164788504Y-80248796D01*
X164764000Y-80250000D01*
X163839000Y-80250000D01*
X163814496Y-80248796D01*
X163790227Y-80245196D01*
X163766429Y-80239235D01*
X163743329Y-80230970D01*
X163721151Y-80220480D01*
X163700107Y-80207867D01*
X163680402Y-80193253D01*
X163662223Y-80176777D01*
X163645747Y-80158598D01*
X163631133Y-80138893D01*
X163618520Y-80117849D01*
X163608030Y-80095671D01*
X163599765Y-80072571D01*
X163593804Y-80048773D01*
X163590204Y-80024504D01*
X163589000Y-80000000D01*
X163589000Y-78750000D01*
X163590204Y-78725496D01*
X163593804Y-78701227D01*
X163599765Y-78677429D01*
X163608030Y-78654329D01*
X163618520Y-78632151D01*
X163631133Y-78611107D01*
X163645747Y-78591402D01*
X163662223Y-78573223D01*
X163680402Y-78556747D01*
X163700107Y-78542133D01*
X163721151Y-78529520D01*
X163743329Y-78519030D01*
X163766429Y-78510765D01*
X163790227Y-78504804D01*
X163814496Y-78501204D01*
X163839000Y-78500000D01*
X164764000Y-78500000D01*
X164788504Y-78501204D01*
X164788504Y-78501204D01*
G37*
D13*
G04 #@! TD*
G04 #@! TO.P,R56-Ohm6,2*
G04 #@! TO.N,Net-(BT-2032-1-Pad2)*
X164301500Y-79375000D03*
D12*
G04 #@! TO.N,Net-(D9-Pad1)*
G04 #@! TO.C,R56-Ohm6*
G36*
X161813504Y-78501204D02*
X161837773Y-78504804D01*
X161861571Y-78510765D01*
X161884671Y-78519030D01*
X161906849Y-78529520D01*
X161927893Y-78542133D01*
X161947598Y-78556747D01*
X161965777Y-78573223D01*
X161982253Y-78591402D01*
X161996867Y-78611107D01*
X162009480Y-78632151D01*
X162019970Y-78654329D01*
X162028235Y-78677429D01*
X162034196Y-78701227D01*
X162037796Y-78725496D01*
X162039000Y-78750000D01*
X162039000Y-80000000D01*
X162037796Y-80024504D01*
X162034196Y-80048773D01*
X162028235Y-80072571D01*
X162019970Y-80095671D01*
X162009480Y-80117849D01*
X161996867Y-80138893D01*
X161982253Y-80158598D01*
X161965777Y-80176777D01*
X161947598Y-80193253D01*
X161927893Y-80207867D01*
X161906849Y-80220480D01*
X161884671Y-80230970D01*
X161861571Y-80239235D01*
X161837773Y-80245196D01*
X161813504Y-80248796D01*
X161789000Y-80250000D01*
X160864000Y-80250000D01*
X160839496Y-80248796D01*
X160815227Y-80245196D01*
X160791429Y-80239235D01*
X160768329Y-80230970D01*
X160746151Y-80220480D01*
X160725107Y-80207867D01*
X160705402Y-80193253D01*
X160687223Y-80176777D01*
X160670747Y-80158598D01*
X160656133Y-80138893D01*
X160643520Y-80117849D01*
X160633030Y-80095671D01*
X160624765Y-80072571D01*
X160618804Y-80048773D01*
X160615204Y-80024504D01*
X160614000Y-80000000D01*
X160614000Y-78750000D01*
X160615204Y-78725496D01*
X160618804Y-78701227D01*
X160624765Y-78677429D01*
X160633030Y-78654329D01*
X160643520Y-78632151D01*
X160656133Y-78611107D01*
X160670747Y-78591402D01*
X160687223Y-78573223D01*
X160705402Y-78556747D01*
X160725107Y-78542133D01*
X160746151Y-78529520D01*
X160768329Y-78519030D01*
X160791429Y-78510765D01*
X160815227Y-78504804D01*
X160839496Y-78501204D01*
X160864000Y-78500000D01*
X161789000Y-78500000D01*
X161813504Y-78501204D01*
X161813504Y-78501204D01*
G37*
D13*
G04 #@! TD*
G04 #@! TO.P,R56-Ohm6,1*
G04 #@! TO.N,Net-(D9-Pad1)*
X161326500Y-79375000D03*
D12*
G04 #@! TO.N,Net-(D6-Pad1)*
G04 #@! TO.C,R56-Ohm7*
G36*
X159272504Y-60466204D02*
X159296773Y-60469804D01*
X159320571Y-60475765D01*
X159343671Y-60484030D01*
X159365849Y-60494520D01*
X159386893Y-60507133D01*
X159406598Y-60521747D01*
X159424777Y-60538223D01*
X159441253Y-60556402D01*
X159455867Y-60576107D01*
X159468480Y-60597151D01*
X159478970Y-60619329D01*
X159487235Y-60642429D01*
X159493196Y-60666227D01*
X159496796Y-60690496D01*
X159498000Y-60715000D01*
X159498000Y-61640000D01*
X159496796Y-61664504D01*
X159493196Y-61688773D01*
X159487235Y-61712571D01*
X159478970Y-61735671D01*
X159468480Y-61757849D01*
X159455867Y-61778893D01*
X159441253Y-61798598D01*
X159424777Y-61816777D01*
X159406598Y-61833253D01*
X159386893Y-61847867D01*
X159365849Y-61860480D01*
X159343671Y-61870970D01*
X159320571Y-61879235D01*
X159296773Y-61885196D01*
X159272504Y-61888796D01*
X159248000Y-61890000D01*
X157998000Y-61890000D01*
X157973496Y-61888796D01*
X157949227Y-61885196D01*
X157925429Y-61879235D01*
X157902329Y-61870970D01*
X157880151Y-61860480D01*
X157859107Y-61847867D01*
X157839402Y-61833253D01*
X157821223Y-61816777D01*
X157804747Y-61798598D01*
X157790133Y-61778893D01*
X157777520Y-61757849D01*
X157767030Y-61735671D01*
X157758765Y-61712571D01*
X157752804Y-61688773D01*
X157749204Y-61664504D01*
X157748000Y-61640000D01*
X157748000Y-60715000D01*
X157749204Y-60690496D01*
X157752804Y-60666227D01*
X157758765Y-60642429D01*
X157767030Y-60619329D01*
X157777520Y-60597151D01*
X157790133Y-60576107D01*
X157804747Y-60556402D01*
X157821223Y-60538223D01*
X157839402Y-60521747D01*
X157859107Y-60507133D01*
X157880151Y-60494520D01*
X157902329Y-60484030D01*
X157925429Y-60475765D01*
X157949227Y-60469804D01*
X157973496Y-60466204D01*
X157998000Y-60465000D01*
X159248000Y-60465000D01*
X159272504Y-60466204D01*
X159272504Y-60466204D01*
G37*
D13*
G04 #@! TD*
G04 #@! TO.P,R56-Ohm7,1*
G04 #@! TO.N,Net-(D6-Pad1)*
X158623000Y-61177500D03*
D12*
G04 #@! TO.N,Net-(BT-2032-1-Pad2)*
G04 #@! TO.C,R56-Ohm7*
G36*
X159272504Y-57491204D02*
X159296773Y-57494804D01*
X159320571Y-57500765D01*
X159343671Y-57509030D01*
X159365849Y-57519520D01*
X159386893Y-57532133D01*
X159406598Y-57546747D01*
X159424777Y-57563223D01*
X159441253Y-57581402D01*
X159455867Y-57601107D01*
X159468480Y-57622151D01*
X159478970Y-57644329D01*
X159487235Y-57667429D01*
X159493196Y-57691227D01*
X159496796Y-57715496D01*
X159498000Y-57740000D01*
X159498000Y-58665000D01*
X159496796Y-58689504D01*
X159493196Y-58713773D01*
X159487235Y-58737571D01*
X159478970Y-58760671D01*
X159468480Y-58782849D01*
X159455867Y-58803893D01*
X159441253Y-58823598D01*
X159424777Y-58841777D01*
X159406598Y-58858253D01*
X159386893Y-58872867D01*
X159365849Y-58885480D01*
X159343671Y-58895970D01*
X159320571Y-58904235D01*
X159296773Y-58910196D01*
X159272504Y-58913796D01*
X159248000Y-58915000D01*
X157998000Y-58915000D01*
X157973496Y-58913796D01*
X157949227Y-58910196D01*
X157925429Y-58904235D01*
X157902329Y-58895970D01*
X157880151Y-58885480D01*
X157859107Y-58872867D01*
X157839402Y-58858253D01*
X157821223Y-58841777D01*
X157804747Y-58823598D01*
X157790133Y-58803893D01*
X157777520Y-58782849D01*
X157767030Y-58760671D01*
X157758765Y-58737571D01*
X157752804Y-58713773D01*
X157749204Y-58689504D01*
X157748000Y-58665000D01*
X157748000Y-57740000D01*
X157749204Y-57715496D01*
X157752804Y-57691227D01*
X157758765Y-57667429D01*
X157767030Y-57644329D01*
X157777520Y-57622151D01*
X157790133Y-57601107D01*
X157804747Y-57581402D01*
X157821223Y-57563223D01*
X157839402Y-57546747D01*
X157859107Y-57532133D01*
X157880151Y-57519520D01*
X157902329Y-57509030D01*
X157925429Y-57500765D01*
X157949227Y-57494804D01*
X157973496Y-57491204D01*
X157998000Y-57490000D01*
X159248000Y-57490000D01*
X159272504Y-57491204D01*
X159272504Y-57491204D01*
G37*
D13*
G04 #@! TD*
G04 #@! TO.P,R56-Ohm7,2*
G04 #@! TO.N,Net-(BT-2032-1-Pad2)*
X158623000Y-58202500D03*
D14*
G04 #@! TO.P,J2,2*
G04 #@! TO.N,Net-(BT-2032-1-Pad2)*
X114230000Y-43770000D03*
G04 #@! TO.P,J2,1*
G04 #@! TO.N,Net-(BT-2032-1-Pad1)*
X114230000Y-41230000D03*
G04 #@! TO.P,J2,3*
G04 #@! TO.N,Net-(D1-Pad2)*
X116770000Y-43770000D03*
D15*
G04 #@! TO.P,J2,4*
G04 #@! TO.N,Net-(D10-Pad2)*
X116770000Y-41230000D03*
G04 #@! TD*
D14*
G04 #@! TO.P,J2,2*
G04 #@! TO.N,Net-(BT-2032-1-Pad2)*
X175630000Y-43670000D03*
G04 #@! TO.P,J2,1*
G04 #@! TO.N,Net-(BT-2032-1-Pad1)*
X175630000Y-41130000D03*
G04 #@! TO.P,J2,3*
G04 #@! TO.N,Net-(D1-Pad2)*
X178170000Y-43670000D03*
D15*
G04 #@! TO.P,J2,4*
G04 #@! TO.N,Net-(D10-Pad2)*
X178170000Y-41130000D03*
G04 #@! TD*
D16*
G04 #@! TO.P,BLANKHOLE,1*
G04 #@! TO.N,N/C*
X146304000Y-41910000D03*
G04 #@! TD*
D17*
G04 #@! TO.P,SMDPROGCONN,8*
G04 #@! TO.N,N/C*
X144250000Y-55753000D03*
G04 #@! TO.P,SMDPROGCONN,7*
X147850000Y-55753000D03*
G04 #@! TO.P,SMDPROGCONN,6*
X144250000Y-57023000D03*
G04 #@! TO.P,SMDPROGCONN,5*
X147850000Y-57023000D03*
G04 #@! TO.P,SMDPROGCONN,4*
X144250000Y-58293000D03*
G04 #@! TO.P,SMDPROGCONN,3*
X147850000Y-58293000D03*
G04 #@! TO.P,SMDPROGCONN,2*
X144250000Y-59563000D03*
G04 #@! TO.P,SMDPROGCONN,1*
X147850000Y-59563000D03*
G04 #@! TD*
D18*
G04 #@! TO.N,Net-(D6-Pad1)*
X158496000Y-60579000D03*
G04 #@! TO.N,Net-(D9-Pad1)*
X162800000Y-80700000D03*
G04 #@! TO.N,Net-(D5-Pad1)*
X130810000Y-60579000D03*
G04 #@! TO.N,Net-(D2-Pad1)*
X129400000Y-80700000D03*
G04 #@! TO.N,Net-(D3-Pad1)*
X128651000Y-58547000D03*
G04 #@! TO.N,Net-(D4-Pad1)*
X130810000Y-58547000D03*
G04 #@! TO.N,Net-(D1-Pad1)*
X128651000Y-60579000D03*
G04 #@! TO.N,Net-(D8-Pad1)*
X161417000Y-63500000D03*
G04 #@! TO.N,Net-(D7-Pad1)*
X161290000Y-55626000D03*
G04 #@! TO.N,Net-(D10-Pad1)*
X166370000Y-58674000D03*
G04 #@! TO.N,Net-(JPROGHEADER1-Pad2)*
X144399000Y-55753000D03*
G04 #@! TO.N,Net-(D3-Pad2)*
X144399000Y-57023000D03*
G04 #@! TO.N,Net-(D2-Pad2)*
X147955000Y-57023000D03*
G04 #@! TO.N,Net-(BT-2032-1-Pad2)*
X144399000Y-59563000D03*
G04 #@! TO.N,Net-(D1-Pad2)*
X147955000Y-59563000D03*
G04 #@! TO.N,Net-(D4-Pad2)*
X144399000Y-58293000D03*
G04 #@! TO.N,Net-(D10-Pad2)*
X147955000Y-58293000D03*
G04 #@! TO.N,Net-(BT-2032-1-Pad1)*
X147955000Y-55753000D03*
G04 #@! TD*
D19*
G04 #@! TO.N,Net-(D6-Pad1)*
X158623000Y-60706000D02*
X158496000Y-60579000D01*
X158623000Y-61177500D02*
X158623000Y-60706000D01*
G04 #@! TO.N,Net-(D9-Pad1)*
X162651500Y-80700000D02*
X161326500Y-79375000D01*
X162800000Y-80700000D02*
X162651500Y-80700000D01*
G04 #@! TO.N,Net-(D5-Pad1)*
X130719500Y-60579000D02*
X130810000Y-60579000D01*
X128179500Y-63119000D02*
X130719500Y-60579000D01*
G04 #@! TO.N,Net-(D2-Pad1)*
X129250500Y-80700000D02*
X127925500Y-79375000D01*
X129400000Y-80700000D02*
X129250500Y-80700000D01*
G04 #@! TO.N,Net-(D3-Pad1)*
X127925500Y-57821500D02*
X128651000Y-58547000D01*
X127925500Y-55626000D02*
X127925500Y-57821500D01*
G04 #@! TO.N,Net-(D4-Pad1)*
X131354500Y-58547000D02*
X130810000Y-58547000D01*
X133858000Y-61050500D02*
X131354500Y-58547000D01*
G04 #@! TO.N,Net-(D1-Pad1)*
X128052500Y-61177500D02*
X128651000Y-60579000D01*
X125476000Y-61177500D02*
X128052500Y-61177500D01*
G04 #@! TO.N,Net-(D8-Pad1)*
X160818500Y-63500000D02*
X161417000Y-63500000D01*
G04 #@! TO.N,Net-(D7-Pad1)*
X161163000Y-55753000D02*
X161290000Y-55626000D01*
X160564500Y-55753000D02*
X161163000Y-55753000D01*
G04 #@! TO.N,Net-(D10-Pad1)*
X166243000Y-58547000D02*
X166370000Y-58674000D01*
X166243000Y-57948500D02*
X166243000Y-58547000D01*
G04 #@! TO.N,Net-(BT-2032-1-Pad2)*
X164047500Y-55753000D02*
X163539500Y-55753000D01*
X163189490Y-54427990D02*
X159812044Y-54427990D01*
X163539500Y-54778000D02*
X163189490Y-54427990D01*
X163539500Y-55753000D02*
X163539500Y-54778000D01*
X131027500Y-79502000D02*
X130900500Y-79375000D01*
D20*
X116967000Y-87630000D02*
X116967000Y-83500000D01*
X175900000Y-83500000D02*
X175900000Y-87630000D01*
X130900500Y-83499500D02*
X130900500Y-79375000D01*
X130900000Y-83500000D02*
X130900500Y-83499500D01*
X116967000Y-83500000D02*
X130900000Y-83500000D01*
X130900500Y-63373000D02*
X131154500Y-63119000D01*
X130900500Y-79375000D02*
X130900500Y-63373000D01*
X134629347Y-58846847D02*
X133858000Y-58075500D01*
X135283010Y-59500510D02*
X134629347Y-58846847D01*
X135283010Y-61844378D02*
X135283010Y-59500510D01*
X134008388Y-63119000D02*
X135283010Y-61844378D01*
X131154500Y-63119000D02*
X134008388Y-63119000D01*
X133350000Y-58075500D02*
X130900500Y-55626000D01*
X133858000Y-58075500D02*
X133350000Y-58075500D01*
X125476000Y-57390000D02*
X125476000Y-58202500D01*
X125476000Y-55856612D02*
X125476000Y-57390000D01*
X130450490Y-54200990D02*
X127131622Y-54200990D01*
X158623000Y-56200000D02*
X158623000Y-58202500D01*
X158623000Y-55617034D02*
X158700000Y-55540034D01*
X158623000Y-56200000D02*
X158623000Y-55617034D01*
X158623000Y-55617034D02*
X159301990Y-54938044D01*
D19*
X159812044Y-54427990D02*
X159301990Y-54938044D01*
X159301990Y-54938044D02*
X158700000Y-55540034D01*
D20*
X130900500Y-54651000D02*
X130450490Y-54200990D01*
X131350510Y-54200990D02*
X131500000Y-54200990D01*
X130900500Y-54651000D02*
X131350510Y-54200990D01*
X130900500Y-55626000D02*
X130900500Y-54651000D01*
X130450490Y-54200990D02*
X131500000Y-54200990D01*
X164301500Y-64008000D02*
X163793500Y-63500000D01*
X164301500Y-79375000D02*
X164301500Y-64008000D01*
X125892612Y-55432612D02*
X125900000Y-55432612D01*
X114230000Y-43770000D02*
X125892612Y-55432612D01*
X127131622Y-54200990D02*
X125900000Y-55432612D01*
X125900000Y-55432612D02*
X125476000Y-55856612D01*
X163547000Y-55753000D02*
X163539500Y-55753000D01*
X175630000Y-43670000D02*
X163547000Y-55753000D01*
X144399000Y-59563000D02*
X144399000Y-83500000D01*
X130900000Y-83500000D02*
X144399000Y-83500000D01*
X144399000Y-83500000D02*
X175900000Y-83500000D01*
X163539500Y-58220000D02*
X166243000Y-60923500D01*
X163539500Y-55753000D02*
X163539500Y-58220000D01*
X166243000Y-61050500D02*
X163793500Y-63500000D01*
X166243000Y-60923500D02*
X166243000Y-61050500D01*
X135537010Y-54229000D02*
X135509000Y-54200990D01*
X158592946Y-54229000D02*
X135537010Y-54229000D01*
X159301990Y-54938044D02*
X158592946Y-54229000D01*
X131500000Y-54200990D02*
X135509000Y-54200990D01*
X135509000Y-54200990D02*
X135799010Y-54200990D01*
D19*
G04 #@! TO.N,Net-(BT-2032-1-Pad1)*
X147702000Y-55500000D02*
X147955000Y-55753000D01*
D20*
X105982000Y-87630000D02*
X105982000Y-92100000D01*
X105982000Y-92100000D02*
X127900000Y-92100000D01*
X127900000Y-92100000D02*
X127900000Y-87630000D01*
X127900000Y-92100000D02*
X164900000Y-92100000D01*
X164900000Y-92100000D02*
X164900000Y-87630000D01*
X164900000Y-92100000D02*
X186880000Y-92100000D01*
X186880000Y-92100000D02*
X186880000Y-87630000D01*
X186880000Y-85725000D02*
X183255000Y-82100000D01*
X186880000Y-87630000D02*
X186880000Y-85725000D01*
X175630000Y-41130000D02*
X177030001Y-39729999D01*
X177030001Y-39729999D02*
X178842001Y-39729999D01*
X180700000Y-82000000D02*
X180800000Y-82100000D01*
X183255000Y-82100000D02*
X180800000Y-82100000D01*
X115630001Y-39829999D02*
X118529999Y-39829999D01*
X114230000Y-41230000D02*
X115630001Y-39829999D01*
X118529999Y-39829999D02*
X124800000Y-46100000D01*
X170660000Y-46100000D02*
X175630000Y-41130000D01*
X124800000Y-46100000D02*
X170660000Y-46100000D01*
X179570001Y-82092001D02*
X179578000Y-82100000D01*
X179570001Y-40457999D02*
X179570001Y-82092001D01*
X178842001Y-39729999D02*
X179570001Y-40457999D01*
X180800000Y-82100000D02*
X179578000Y-82100000D01*
X179578000Y-82100000D02*
X146300000Y-82100000D01*
X146300000Y-82100000D02*
X146300000Y-60710000D01*
X146396999Y-60613001D02*
X149952999Y-60613001D01*
X146300000Y-60710000D02*
X146396999Y-60613001D01*
X149952999Y-60613001D02*
X150876000Y-59690000D01*
X150876000Y-59690000D02*
X150876000Y-55753000D01*
X150876000Y-55753000D02*
X147955000Y-55753000D01*
G04 #@! TD*
M02*
