G04 #@! TF.GenerationSoftware,KiCad,Pcbnew,(5.0.0)*
G04 #@! TF.CreationDate,2018-11-20T12:56:54-05:00*
G04 #@! TF.ProjectId,BsidesRock2019,427369646573526F636B323031392E6B,rev?*
G04 #@! TF.SameCoordinates,Original*
G04 #@! TF.FileFunction,Profile,NP*
%FSLAX46Y46*%
G04 Gerber Fmt 4.6, Leading zero omitted, Abs format (unit mm)*
G04 Created by KiCad (PCBNEW (5.0.0)) date 11/20/18 12:56:54*
%MOMM*%
%LPD*%
G01*
G04 APERTURE LIST*
%ADD10C,0.200000*%
G04 APERTURE END LIST*
D10*
X172430733Y-104694936D02*
X172022711Y-104472499D01*
X110139048Y-112234065D02*
X108422780Y-111475057D01*
X118236843Y-106837980D02*
X117542766Y-109460122D01*
X143637392Y-98777889D02*
X135133328Y-100631014D01*
X111965927Y-112516426D02*
X110139048Y-112234065D01*
X147502544Y-98638411D02*
X145748014Y-98409577D01*
X174911626Y-112034226D02*
X174060215Y-111280848D01*
X172022711Y-104472499D02*
X147502544Y-98638411D01*
X114459916Y-112146961D02*
X111965927Y-112516426D01*
X116372439Y-111045305D02*
X114459916Y-112146961D01*
X135133328Y-100631014D02*
X119446887Y-104208551D01*
X145748014Y-98409577D02*
X143637392Y-98777889D01*
X174060215Y-111280848D02*
X173484127Y-110492822D01*
X176907333Y-113040311D02*
X174911626Y-112034226D01*
X117542766Y-109460122D02*
X116372439Y-111045305D01*
X172682746Y-105096141D02*
X172430733Y-104694936D01*
X172848300Y-106798398D02*
X172682746Y-105096141D01*
X118763179Y-104630605D02*
X118236843Y-106837980D01*
X173484127Y-110492822D02*
X173015936Y-108936917D01*
X119446887Y-104208551D02*
X118763179Y-104630605D01*
X173015936Y-108936917D02*
X172848300Y-106798398D01*
X106239756Y-104408470D02*
X107131386Y-102740021D01*
X105872233Y-105397912D02*
X106239756Y-104408470D01*
X105815050Y-106771938D02*
X105872233Y-105397912D01*
X105879119Y-108099288D02*
X105815050Y-106771938D01*
X106132573Y-109013433D02*
X105879119Y-108099288D01*
X107019747Y-110360986D02*
X106132573Y-109013433D01*
X108422780Y-111475057D02*
X107019747Y-110360986D01*
X110035574Y-64898316D02*
X110103441Y-53406189D01*
X109606281Y-65676461D02*
X110035574Y-64898316D01*
X99414297Y-83417693D02*
X98752833Y-81386113D01*
X106865629Y-100210442D02*
X106007183Y-98624077D01*
X99556644Y-85564481D02*
X99930428Y-84858250D01*
X96651288Y-91828398D02*
X96680786Y-90327364D01*
X97890700Y-95055598D02*
X97149368Y-93997439D01*
X105115100Y-96831217D02*
X103301428Y-97169937D01*
X107131386Y-102740021D02*
X107591852Y-101629437D01*
X110479986Y-41084901D02*
X111057108Y-39918132D01*
X109176972Y-75016162D02*
X109176972Y-70735368D01*
X99930428Y-84858250D02*
X99414297Y-83417693D01*
X105742549Y-96549546D02*
X105115100Y-96831217D01*
X96680786Y-90327364D02*
X96936385Y-89119282D01*
X98866071Y-95951161D02*
X97890700Y-95055598D01*
X107591852Y-101629437D02*
X106865629Y-100210442D01*
X175044145Y-37173681D02*
X178414548Y-37415223D01*
X145890324Y-37124376D02*
X175044145Y-37173681D01*
X110171308Y-41914063D02*
X110479986Y-41084901D01*
X110103441Y-53406189D02*
X110171308Y-41914063D01*
X109176972Y-66454590D02*
X109606281Y-65676461D01*
X99145464Y-77358174D02*
X100430787Y-75538737D01*
X114658745Y-37158700D02*
X145890324Y-37124376D01*
X105629656Y-73714912D02*
X107301221Y-73946328D01*
X112820652Y-38065268D02*
X113932226Y-37457813D01*
X111849805Y-38898481D02*
X112820652Y-38065268D01*
X108612601Y-74627854D02*
X109176972Y-75016162D01*
X100430787Y-75538737D02*
X101516984Y-74642282D01*
X106007183Y-98624077D02*
X105742549Y-97178618D01*
X102701991Y-74054765D02*
X104051114Y-73753278D01*
X96765951Y-93085692D02*
X96651288Y-91828398D01*
X103301428Y-97169937D02*
X101264707Y-97065007D01*
X105742549Y-97178618D02*
X105742549Y-96549546D01*
X101516984Y-74642282D02*
X102701991Y-74054765D01*
X98752833Y-81386113D02*
X98634046Y-79452426D01*
X101264707Y-97065007D02*
X100011926Y-96636755D01*
X113932226Y-37457813D02*
X114658745Y-37158700D01*
X111057108Y-39918132D02*
X111849805Y-38898481D01*
X107301221Y-73946328D02*
X108612601Y-74627854D01*
X98336571Y-86975041D02*
X99556644Y-85564481D01*
X97149368Y-93997439D02*
X96765951Y-93085692D01*
X109176972Y-70735368D02*
X109176972Y-66454590D01*
X104051114Y-73753278D02*
X105629656Y-73714912D01*
X100011926Y-96636755D02*
X98866071Y-95951161D01*
X98634046Y-79452426D02*
X99145464Y-77358174D01*
X96936385Y-89119282D02*
X97470756Y-88052419D01*
X97470756Y-88052419D02*
X98336571Y-86975041D01*
X178414548Y-37415223D02*
X179432356Y-37923209D01*
X107628999Y-102157851D02*
X107263579Y-102872057D01*
X113597876Y-112213351D02*
X115045177Y-111709162D01*
X181068494Y-112666965D02*
X181068385Y-112666997D01*
X174192265Y-111148549D02*
X175043480Y-111901821D01*
X118631189Y-104498444D02*
X119314897Y-104076390D01*
X173148366Y-108804778D02*
X173616335Y-110360677D01*
X147634752Y-98506266D02*
X172154919Y-104340353D01*
X106997821Y-100078281D02*
X107716303Y-101557089D01*
X117410777Y-109327967D02*
X118104854Y-106705818D01*
X107716303Y-101557089D02*
X107628999Y-102157851D01*
X104685900Y-96788250D02*
X105764621Y-96455235D01*
X173616335Y-110360677D02*
X174192265Y-111148549D01*
X172815112Y-104963995D02*
X172980508Y-106666253D01*
X172562995Y-104562790D02*
X172815112Y-104963995D01*
X177039526Y-112908431D02*
X178922403Y-112998764D01*
X172154919Y-104340353D02*
X172562995Y-104562790D01*
X105764621Y-96455235D02*
X105874741Y-97023631D01*
X112052765Y-112390577D02*
X113597876Y-112213351D01*
X110564062Y-112205704D02*
X112052765Y-112390577D01*
X172980508Y-106666253D02*
X173148366Y-108804778D01*
X97981941Y-94879479D02*
X98894858Y-95745425D01*
X178922403Y-112998764D02*
X181068494Y-112666965D01*
X135001338Y-100498869D02*
X143505403Y-98645744D01*
X118104854Y-106705818D02*
X118631189Y-104498444D01*
X115045177Y-111709162D02*
X116240449Y-110913144D01*
X98894858Y-95745425D02*
X99972047Y-96424550D01*
X107261332Y-110355232D02*
X108773886Y-111444741D01*
X105948381Y-106771876D02*
X106241856Y-108840930D01*
X107263579Y-102872057D02*
X106371948Y-104540506D01*
X106241856Y-108840930D02*
X107261332Y-110355232D01*
X106007522Y-105513372D02*
X105948381Y-106771876D01*
X96784353Y-91830925D02*
X96905014Y-92970662D01*
X106371948Y-104540506D02*
X106007522Y-105513372D01*
X105874741Y-97023631D02*
X106137374Y-98486108D01*
X102979700Y-97054694D02*
X104685900Y-96788250D01*
X101163812Y-96878272D02*
X102979700Y-97054694D01*
X96905014Y-92970662D02*
X97282996Y-93865294D01*
X116240449Y-110913144D02*
X117410777Y-109327967D01*
X145734234Y-98275629D02*
X147634752Y-98506266D01*
X108773886Y-111444741D02*
X110564062Y-112205704D01*
X97282996Y-93865294D02*
X97981941Y-94879479D01*
X119314897Y-104076390D02*
X135001338Y-100498869D01*
X106137374Y-98486108D02*
X106997821Y-100078281D01*
X175043480Y-111901821D02*
X177039526Y-112908431D01*
X99972047Y-96424550D02*
X101163812Y-96878272D01*
X143505403Y-98645744D02*
X145734234Y-98275629D01*
X183120883Y-71261968D02*
X183083283Y-66331618D01*
X105586976Y-73848910D02*
X103611700Y-73947953D01*
X114790984Y-37290736D02*
X114064465Y-37589850D01*
X145890448Y-37256413D02*
X114790984Y-37290736D01*
X194079544Y-86973793D02*
X192802007Y-85223083D01*
X100062636Y-84858187D02*
X99729162Y-85635327D01*
X99546489Y-83285532D02*
X100062636Y-84858187D01*
X111189347Y-40050162D02*
X110612225Y-41216922D01*
X98887507Y-81270734D02*
X99546489Y-83285532D01*
X98769764Y-79440428D02*
X98887507Y-81270734D01*
X99229211Y-77606448D02*
X98769764Y-79440428D01*
X100277285Y-75979956D02*
X99229211Y-77606448D01*
X111982044Y-39030516D02*
X111189347Y-40050162D01*
X191795750Y-95870578D02*
X193080448Y-95340870D01*
X180881137Y-39521971D02*
X179300398Y-38055261D01*
X101782082Y-74710580D02*
X100277285Y-75979956D01*
X107390841Y-74144174D02*
X105586976Y-73848910D01*
X182220047Y-53670387D02*
X181973807Y-41649881D01*
X183083283Y-66331618D02*
X182687003Y-65747058D01*
X183262545Y-76192303D02*
X183120883Y-71261968D01*
X110303547Y-42046099D02*
X110235680Y-53538226D01*
X193576542Y-81777557D02*
X193647786Y-80419302D01*
X112952891Y-38197304D02*
X111982044Y-39030516D01*
X195303231Y-92168680D02*
X195359186Y-90788630D01*
X179300398Y-38055261D02*
X178282758Y-37547294D01*
X192688960Y-77050920D02*
X191588638Y-75999536D01*
X193080448Y-95340870D02*
X194089511Y-94456935D01*
X188036770Y-75043917D02*
X185859374Y-75145885D01*
X193089343Y-82974780D02*
X193576542Y-81777557D01*
X181973807Y-41649881D02*
X180881137Y-39521971D01*
X190236250Y-75326368D02*
X188036770Y-75043917D01*
X194908082Y-93166311D02*
X195303231Y-92168680D01*
X190150270Y-96098520D02*
X191795750Y-95870578D01*
X109167861Y-75135498D02*
X108471391Y-74753540D01*
X109309211Y-66586610D02*
X109309211Y-70861054D01*
X109738505Y-65808481D02*
X109309211Y-66586610D01*
X110167813Y-65030352D02*
X109738505Y-65808481D01*
X192802007Y-85223083D02*
X192527951Y-84512456D01*
X192527951Y-84512456D02*
X193089343Y-82974780D01*
X110235680Y-53538226D02*
X110167813Y-65030352D01*
X110612225Y-41216922D02*
X110303547Y-42046099D01*
X182687003Y-65747058D02*
X182290722Y-65162513D01*
X195359186Y-90788630D02*
X195102889Y-88730436D01*
X114064465Y-37589850D02*
X112952891Y-38197304D01*
X194089511Y-94456935D02*
X194908082Y-93166311D01*
X191588638Y-75999536D02*
X190236250Y-75326368D01*
X193444714Y-78491019D02*
X192688960Y-77050920D01*
X182290722Y-65162513D02*
X182220047Y-53670387D01*
X193647786Y-80419302D02*
X193444714Y-78491019D01*
X187941866Y-95889662D02*
X188864524Y-96106557D01*
X178282758Y-37547294D02*
X174923526Y-37305760D01*
X174923526Y-37305760D02*
X145890448Y-37256413D01*
X184091379Y-75799751D02*
X183262545Y-76192303D01*
X195102889Y-88730436D02*
X194079544Y-86973793D01*
X185859374Y-75145885D02*
X184091379Y-75799751D01*
X96813836Y-90411681D02*
X96784353Y-91830925D01*
X97074311Y-89235672D02*
X96813836Y-90411681D01*
X97610913Y-88176324D02*
X97074311Y-89235672D01*
X98468778Y-87107062D02*
X97610913Y-88176324D01*
X99729162Y-85635327D02*
X98468778Y-87107062D01*
X103611700Y-73947953D02*
X101782082Y-74710580D01*
X188864524Y-96106557D02*
X190150270Y-96098520D01*
X108471391Y-74753540D02*
X107390841Y-74144174D01*
X109309211Y-70861054D02*
X109167861Y-75135498D01*
X182422681Y-65030462D02*
X182818961Y-65615022D01*
X192707916Y-84688863D02*
X193655337Y-86105737D01*
X187146887Y-95795085D02*
X187073092Y-97122592D01*
X193048663Y-77240066D02*
X193549137Y-78239808D01*
X191397660Y-75658590D02*
X192311314Y-76360320D01*
X186408540Y-99440604D02*
X186778885Y-98371351D01*
X184690589Y-101245545D02*
X185742281Y-100341941D01*
X183017195Y-103057669D02*
X183350992Y-102365908D01*
X184136639Y-107963556D02*
X184046398Y-106597555D01*
X184074169Y-109220031D02*
X184136639Y-107963556D01*
X181068385Y-112666997D02*
X182582131Y-111670779D01*
X182352005Y-53538335D02*
X182422681Y-65030462D01*
X178921826Y-113131549D02*
X176906865Y-113040436D01*
X195543254Y-91169558D02*
X195426182Y-92326008D01*
X182714026Y-111802491D02*
X181200000Y-112800000D01*
X184269378Y-107963603D02*
X184208574Y-109335955D01*
X192311314Y-76360320D02*
X193048663Y-77240066D01*
X185754625Y-75008513D02*
X188036692Y-74910586D01*
X181013095Y-39389925D02*
X182105766Y-41517829D01*
X184185209Y-106487515D02*
X184269378Y-107963603D01*
X183148809Y-103057716D02*
X183707986Y-104914133D01*
X185871575Y-100476009D02*
X184822220Y-101377675D01*
X186537957Y-99576971D02*
X185871575Y-100476009D01*
X192457339Y-95866306D02*
X190122318Y-96252369D01*
X193782365Y-81938413D02*
X193204030Y-83149845D01*
X188036692Y-74910586D02*
X190368271Y-75192897D01*
X195426182Y-92326008D02*
X195038215Y-93298457D01*
X183252841Y-71114752D02*
X183290441Y-76029922D01*
X193655337Y-86105737D02*
X194639012Y-87458682D01*
X193549137Y-78239808D02*
X193780805Y-80419349D01*
X193898342Y-94904030D02*
X192457339Y-95866306D01*
X193204030Y-83149845D02*
X192707916Y-84688863D01*
X195507919Y-89789285D02*
X195543254Y-91169558D01*
X187069207Y-95610034D02*
X187941866Y-95889662D01*
X179432356Y-37923209D02*
X181013095Y-39389925D01*
X186942834Y-96964002D02*
X187069207Y-95610034D01*
X186778885Y-98371351D02*
X186942834Y-96964002D01*
X187073092Y-97122592D02*
X186909188Y-98514514D01*
X186909188Y-98514514D02*
X186537957Y-99576971D01*
X184046398Y-106597555D02*
X183575248Y-105046184D01*
X190368271Y-75192897D02*
X191397660Y-75658590D01*
X176906865Y-113040436D02*
X176907333Y-113040311D01*
X190122318Y-96252369D02*
X187888805Y-96048283D01*
X185742281Y-100341941D02*
X186408540Y-99440604D01*
X195038215Y-93298457D02*
X193898342Y-94904030D01*
X183707986Y-104914133D02*
X184185209Y-106487515D01*
X183539401Y-102443019D02*
X183148809Y-103057716D01*
X183707502Y-110165782D02*
X184074169Y-109220031D01*
X184822220Y-101377675D02*
X183539401Y-102443019D01*
X194639012Y-87458682D02*
X195231523Y-88619429D01*
X182818961Y-65615022D02*
X183215241Y-66199566D01*
X183839117Y-110297912D02*
X182714026Y-111802491D01*
X183987223Y-75652535D02*
X185754625Y-75008513D01*
X187888805Y-96048283D02*
X187146887Y-95795085D01*
X184208574Y-109335955D02*
X183839117Y-110297912D01*
X183350992Y-102365908D02*
X184690589Y-101245545D01*
X193780805Y-80419349D02*
X193782365Y-81938413D01*
X183575248Y-105046184D02*
X183017195Y-103057669D01*
X182582131Y-111670779D02*
X183707502Y-110165782D01*
X195231523Y-88619429D02*
X195507919Y-89789285D01*
X182105766Y-41517829D02*
X182352005Y-53538335D01*
X183215241Y-66199566D02*
X183252841Y-71114752D01*
X183290441Y-76029922D02*
X183987223Y-75652535D01*
X181200000Y-112800000D02*
X178921826Y-113131549D01*
M02*
