%FSLAX45Y45*%
G04 Gerber Fmt 4.5, Leading zero omitted, Abs format (unit mm)*
G04 Created by KiCad (PCBNEW (5.0.0)) date 11/20/18 12:56:58*
%MOMM*%
%LPD*%
G01*
G04 APERTURE LIST*
%ADD10C,0.200000*%
%ADD11C,0.300000*%
G04 APERTURE END LIST*
D10*
X17243073Y-10469494D02*
X17202271Y-10447250D01*
X11013905Y-11223406D02*
X10842278Y-11147506D01*
X11823684Y-10683798D02*
X11754277Y-10946012D01*
X14363739Y-9877789D02*
X13513333Y-10063101D01*
X11196593Y-11251643D02*
X11013905Y-11223406D01*
X14750254Y-9863841D02*
X14574801Y-9840958D01*
X17491163Y-11203423D02*
X17406022Y-11128085D01*
X17202271Y-10447250D02*
X14750254Y-9863841D01*
X11445992Y-11214696D02*
X11196593Y-11251643D01*
X11637244Y-11104531D02*
X11445992Y-11214696D01*
X13513333Y-10063101D02*
X11944689Y-10420855D01*
X14574801Y-9840958D02*
X14363739Y-9877789D01*
X17406022Y-11128085D02*
X17348413Y-11049282D01*
X17690733Y-11304031D02*
X17491163Y-11203423D01*
X11754277Y-10946012D02*
X11637244Y-11104531D01*
X17268275Y-10509614D02*
X17243073Y-10469494D01*
X17284830Y-10679840D02*
X17268275Y-10509614D01*
X11876318Y-10463061D02*
X11823684Y-10683798D01*
X17348413Y-11049282D02*
X17301594Y-10893692D01*
X11944689Y-10420855D02*
X11876318Y-10463061D01*
X17301594Y-10893692D02*
X17284830Y-10679840D01*
X10623976Y-10440847D02*
X10713139Y-10274002D01*
X10587223Y-10539791D02*
X10623976Y-10440847D01*
X10581505Y-10677194D02*
X10587223Y-10539791D01*
X10587912Y-10809929D02*
X10581505Y-10677194D01*
X10613257Y-10901343D02*
X10587912Y-10809929D01*
X10701975Y-11036099D02*
X10613257Y-10901343D01*
X10842278Y-11147506D02*
X10701975Y-11036099D01*
X11003557Y-6489832D02*
X11010344Y-5340619D01*
X10960628Y-6567646D02*
X11003557Y-6489832D01*
X9941430Y-8341769D02*
X9875283Y-8138611D01*
X10686563Y-10021044D02*
X10600718Y-9862408D01*
X9955664Y-8556448D02*
X9993043Y-8485825D01*
X9665129Y-9182840D02*
X9668079Y-9032736D01*
X9789070Y-9505560D02*
X9714937Y-9399744D01*
X10511510Y-9683122D02*
X10330143Y-9716994D01*
X10713139Y-10274002D02*
X10759185Y-10162944D01*
X11047999Y-4108490D02*
X11105711Y-3991813D01*
X10917697Y-7501616D02*
X10917697Y-7073537D01*
X9993043Y-8485825D02*
X9941430Y-8341769D01*
X10574255Y-9654955D02*
X10511510Y-9683122D01*
X9668079Y-9032736D02*
X9693639Y-8911928D01*
X9886607Y-9595116D02*
X9789070Y-9505560D01*
X10759185Y-10162944D02*
X10686563Y-10021044D01*
X17504415Y-3717368D02*
X17841455Y-3741522D01*
X14589032Y-3712438D02*
X17504415Y-3717368D01*
X11017131Y-4191406D02*
X11047999Y-4108490D01*
X11010344Y-5340619D02*
X11017131Y-4191406D01*
X10917697Y-6645459D02*
X10960628Y-6567646D01*
X9914546Y-7735817D02*
X10043079Y-7553874D01*
X11465874Y-3715870D02*
X14589032Y-3712438D01*
X10562966Y-7371491D02*
X10730122Y-7394633D01*
X11282065Y-3806527D02*
X11393223Y-3745781D01*
X11184980Y-3889848D02*
X11282065Y-3806527D01*
X10861260Y-7462785D02*
X10917697Y-7501616D01*
X10043079Y-7553874D02*
X10151698Y-7464228D01*
X10600718Y-9862408D02*
X10574255Y-9717862D01*
X10270199Y-7405476D02*
X10405111Y-7375328D01*
X9676595Y-9308569D02*
X9665129Y-9182840D01*
X10330143Y-9716994D02*
X10126471Y-9706501D01*
X10574255Y-9717862D02*
X10574255Y-9654955D01*
X10151698Y-7464228D02*
X10270199Y-7405476D01*
X9875283Y-8138611D02*
X9863405Y-7945243D01*
X10126471Y-9706501D02*
X10001193Y-9663676D01*
X11393223Y-3745781D02*
X11465874Y-3715870D01*
X11105711Y-3991813D02*
X11184980Y-3889848D01*
X10730122Y-7394633D02*
X10861260Y-7462785D01*
X9833657Y-8697504D02*
X9955664Y-8556448D01*
X9714937Y-9399744D02*
X9676595Y-9308569D01*
X10917697Y-7073537D02*
X10917697Y-6645459D01*
X10405111Y-7375328D02*
X10562966Y-7371491D01*
X10001193Y-9663676D02*
X9886607Y-9595116D01*
X9863405Y-7945243D02*
X9914546Y-7735817D01*
X9693639Y-8911928D02*
X9747076Y-8805242D01*
X9747076Y-8805242D02*
X9833657Y-8697504D01*
X17841455Y-3741522D02*
X17943236Y-3792321D01*
X10762900Y-10215785D02*
X10726358Y-10287206D01*
X11359788Y-11221335D02*
X11504518Y-11170916D01*
X18106849Y-11266696D02*
X18106839Y-11266700D01*
X17419227Y-11114855D02*
X17504348Y-11190182D01*
X11863119Y-10449844D02*
X11931490Y-10407639D01*
X17314837Y-10880478D02*
X17361634Y-11036068D01*
X14763475Y-9850627D02*
X17215492Y-10434035D01*
X10699782Y-10007828D02*
X10771630Y-10155709D01*
X11741078Y-10932797D02*
X11810485Y-10670582D01*
X10771630Y-10155709D02*
X10762900Y-10215785D01*
X10468590Y-9678825D02*
X10576462Y-9645524D01*
X17361634Y-11036068D02*
X17419227Y-11114855D01*
X17281511Y-10496400D02*
X17298051Y-10666625D01*
X17256300Y-10456279D02*
X17281511Y-10496400D01*
X17703953Y-11290843D02*
X17892240Y-11299876D01*
X17215492Y-10434035D02*
X17256300Y-10456279D01*
X10576462Y-9645524D02*
X10587474Y-9702363D01*
X11205276Y-11239058D02*
X11359788Y-11221335D01*
X11056406Y-11220570D02*
X11205276Y-11239058D01*
X17298051Y-10666625D02*
X17314837Y-10880478D01*
X9798194Y-9487948D02*
X9889486Y-9574543D01*
X17892240Y-11299876D02*
X18106849Y-11266696D01*
X13500134Y-10049887D02*
X14350540Y-9864574D01*
X11810485Y-10670582D02*
X11863119Y-10449844D01*
X11504518Y-11170916D02*
X11624045Y-11091314D01*
X9889486Y-9574543D02*
X9997205Y-9642455D01*
X10726133Y-11035523D02*
X10877389Y-11144474D01*
X10594838Y-10677188D02*
X10624186Y-10884093D01*
X10726358Y-10287206D02*
X10637195Y-10454051D01*
X10624186Y-10884093D02*
X10726133Y-11035523D01*
X10600752Y-10551337D02*
X10594838Y-10677188D01*
X9678435Y-9183093D02*
X9690501Y-9297066D01*
X10637195Y-10454051D02*
X10600752Y-10551337D01*
X10587474Y-9702363D02*
X10613737Y-9848611D01*
X10297970Y-9705469D02*
X10468590Y-9678825D01*
X10116381Y-9687827D02*
X10297970Y-9705469D01*
X9690501Y-9297066D02*
X9728300Y-9386529D01*
X11624045Y-11091314D02*
X11741078Y-10932797D01*
X14573423Y-9827563D02*
X14763475Y-9850627D01*
X10877389Y-11144474D02*
X11056406Y-11220570D01*
X9728300Y-9386529D02*
X9798194Y-9487948D01*
X11931490Y-10407639D02*
X13500134Y-10049887D01*
X10613737Y-9848611D02*
X10699782Y-10007828D01*
X17504348Y-11190182D02*
X17703953Y-11290843D01*
X9997205Y-9642455D02*
X10116381Y-9687827D01*
X14350540Y-9864574D02*
X14573423Y-9827563D01*
X18312088Y-7126197D02*
X18308328Y-6633162D01*
X10558698Y-7384891D02*
X10361170Y-7394795D01*
X11479098Y-3729074D02*
X11406446Y-3758985D01*
X14589045Y-3725641D02*
X11479098Y-3729074D01*
X19407954Y-8697379D02*
X19280201Y-8522308D01*
X10006264Y-8485819D02*
X9972916Y-8563533D01*
X9954649Y-8328553D02*
X10006264Y-8485819D01*
X11118935Y-4005016D02*
X11061223Y-4121692D01*
X9888751Y-8127073D02*
X9954649Y-8328553D01*
X9876976Y-7944043D02*
X9888751Y-8127073D01*
X9922921Y-7760645D02*
X9876976Y-7944043D01*
X10027729Y-7597996D02*
X9922921Y-7760645D01*
X11198204Y-3903052D02*
X11118935Y-4005016D01*
X19179575Y-9587058D02*
X19308045Y-9534087D01*
X18088114Y-3952197D02*
X17930040Y-3805526D01*
X10178208Y-7471058D02*
X10027729Y-7597996D01*
X10739084Y-7414417D02*
X10558698Y-7384891D01*
X18222005Y-5367039D02*
X18197381Y-4164988D01*
X18308328Y-6633162D02*
X18268700Y-6574706D01*
X18326255Y-7619230D02*
X18312088Y-7126197D01*
X11030355Y-4204610D02*
X11023568Y-5353823D01*
X19357654Y-8177756D02*
X19364779Y-8041930D01*
X11295289Y-3819730D02*
X11198204Y-3903052D01*
X19530323Y-9216868D02*
X19535919Y-9078863D01*
X17930040Y-3805526D02*
X17828276Y-3754729D01*
X19268896Y-7705092D02*
X19158864Y-7599954D01*
X19308045Y-9534087D02*
X19408951Y-9445694D01*
X18803677Y-7504392D02*
X18585937Y-7514588D01*
X19308934Y-8297478D02*
X19357654Y-8177756D01*
X18197381Y-4164988D02*
X18088114Y-3952197D01*
X19023625Y-7532637D02*
X18803677Y-7504392D01*
X19490808Y-9316631D02*
X19530323Y-9216868D01*
X19015027Y-9609852D02*
X19179575Y-9587058D01*
X10916786Y-7513550D02*
X10847139Y-7475354D01*
X10930921Y-6658661D02*
X10930921Y-7086105D01*
X10973851Y-6580848D02*
X10930921Y-6658661D01*
X11016781Y-6503035D02*
X10973851Y-6580848D01*
X19280201Y-8522308D02*
X19252795Y-8451246D01*
X19252795Y-8451246D02*
X19308934Y-8297478D01*
X11023568Y-5353823D02*
X11016781Y-6503035D01*
X11061223Y-4121692D02*
X11030355Y-4204610D01*
X18268700Y-6574706D02*
X18229072Y-6516251D01*
X19535919Y-9078863D02*
X19510289Y-8873044D01*
X11406446Y-3758985D02*
X11295289Y-3819730D01*
X19408951Y-9445694D02*
X19490808Y-9316631D01*
X19158864Y-7599954D02*
X19023625Y-7532637D01*
X19344471Y-7849102D02*
X19268896Y-7705092D01*
X18229072Y-6516251D02*
X18222005Y-5367039D01*
X19364779Y-8041930D02*
X19344471Y-7849102D01*
X18794187Y-9588966D02*
X18886452Y-9610656D01*
X17828276Y-3754729D02*
X17492353Y-3730576D01*
X17492353Y-3730576D02*
X14589045Y-3725641D01*
X18409138Y-7579975D02*
X18326255Y-7619230D01*
X19510289Y-8873044D02*
X19407954Y-8697379D01*
X18585937Y-7514588D02*
X18409138Y-7579975D01*
X9681384Y-9041168D02*
X9678435Y-9183093D01*
X9707431Y-8923567D02*
X9681384Y-9041168D01*
X9761091Y-8817632D02*
X9707431Y-8923567D01*
X9846878Y-8710706D02*
X9761091Y-8817632D01*
X9972916Y-8563533D02*
X9846878Y-8710706D01*
X10361170Y-7394795D02*
X10178208Y-7471058D01*
X18886452Y-9610656D02*
X19015027Y-9609852D01*
X10847139Y-7475354D02*
X10739084Y-7414417D01*
X10930921Y-7086105D02*
X10916786Y-7513550D01*
X18242268Y-6503046D02*
X18281896Y-6561502D01*
X19270792Y-8468886D02*
X19365534Y-8610574D01*
X18714689Y-9579509D02*
X18707309Y-9712259D01*
X19304866Y-7724007D02*
X19354914Y-7823981D01*
X19139766Y-7565859D02*
X19231131Y-7636032D01*
X18640854Y-9944060D02*
X18677889Y-9837135D01*
X18469059Y-10124555D02*
X18574228Y-10034194D01*
X18301720Y-10305767D02*
X18335099Y-10236591D01*
X18413664Y-10796356D02*
X18404640Y-10659756D01*
X18407417Y-10922003D02*
X18413664Y-10796356D01*
X18106839Y-11266700D02*
X18258213Y-11167078D01*
X18235201Y-5353834D02*
X18242268Y-6503046D01*
X17892183Y-11313155D02*
X17690687Y-11304044D01*
X19554325Y-9116956D02*
X19542618Y-9232601D01*
X18271403Y-11180249D02*
X18120000Y-11280000D01*
X18426938Y-10796360D02*
X18420857Y-10933596D01*
X19231131Y-7636032D02*
X19304866Y-7724007D01*
X18575463Y-7500851D02*
X18803669Y-7491059D01*
X18101310Y-3938992D02*
X18210577Y-4151783D01*
X18418521Y-10648752D02*
X18426938Y-10796360D01*
X18314881Y-10305772D02*
X18370799Y-10491413D01*
X18587158Y-10047601D02*
X18482222Y-10137768D01*
X18653796Y-9957697D02*
X18587158Y-10047601D01*
X19245734Y-9586631D02*
X19012232Y-9625237D01*
X19378237Y-8193841D02*
X19320403Y-8314984D01*
X18803669Y-7491059D02*
X19036827Y-7519290D01*
X19542618Y-9232601D02*
X19503822Y-9329846D01*
X18325284Y-7111475D02*
X18329044Y-7602992D01*
X19365534Y-8610574D02*
X19463901Y-8745868D01*
X19354914Y-7823981D02*
X19378081Y-8041935D01*
X19389834Y-9490403D02*
X19245734Y-9586631D01*
X19320403Y-8314984D02*
X19270792Y-8468886D01*
X19550792Y-8978929D02*
X19554325Y-9116956D01*
X18706921Y-9561003D02*
X18794187Y-9588966D01*
X17943236Y-3792321D02*
X18101310Y-3938992D01*
X18694283Y-9696400D02*
X18706921Y-9561003D01*
X18677889Y-9837135D02*
X18694283Y-9696400D01*
X18707309Y-9712259D02*
X18690919Y-9851451D01*
X18690919Y-9851451D02*
X18653796Y-9957697D01*
X18404640Y-10659756D02*
X18357525Y-10504618D01*
X19036827Y-7519290D02*
X19139766Y-7565859D01*
X17690687Y-11304044D02*
X17690733Y-11304031D01*
X19012232Y-9625237D02*
X18788881Y-9604828D01*
X18574228Y-10034194D02*
X18640854Y-9944060D01*
X19503822Y-9329846D02*
X19389834Y-9490403D01*
X18370799Y-10491413D02*
X18418521Y-10648752D01*
X18353940Y-10244302D02*
X18314881Y-10305772D01*
X18370750Y-11016578D02*
X18407417Y-10922003D01*
X18482222Y-10137768D02*
X18353940Y-10244302D01*
X19463901Y-8745868D02*
X19523152Y-8861943D01*
X18281896Y-6561502D02*
X18321524Y-6619957D01*
X18383912Y-11029791D02*
X18271403Y-11180249D01*
X18398722Y-7565253D02*
X18575463Y-7500851D01*
X18788881Y-9604828D02*
X18714689Y-9579509D01*
X18420857Y-10933596D02*
X18383912Y-11029791D01*
X18335099Y-10236591D02*
X18469059Y-10124555D01*
X19378081Y-8041935D02*
X19378237Y-8193841D01*
X18357525Y-10504618D02*
X18301720Y-10305767D01*
X18258213Y-11167078D02*
X18370750Y-11016578D01*
X19523152Y-8861943D02*
X19550792Y-8978929D01*
X18210577Y-4151783D02*
X18235201Y-5353834D01*
X18321524Y-6619957D02*
X18325284Y-7111475D01*
X18329044Y-7602992D02*
X18398722Y-7565253D01*
X18120000Y-11280000D02*
X17892183Y-11313155D01*
D10*
D11*
X9941557Y-11788869D02*
X9941557Y-11488869D01*
X10012986Y-11488869D01*
X10055843Y-11503155D01*
X10084414Y-11531726D01*
X10098700Y-11560298D01*
X10112986Y-11617441D01*
X10112986Y-11660298D01*
X10098700Y-11717441D01*
X10084414Y-11746012D01*
X10055843Y-11774583D01*
X10012986Y-11788869D01*
X9941557Y-11788869D01*
X10241557Y-11788869D02*
X10241557Y-11588869D01*
X10241557Y-11646012D02*
X10255843Y-11617441D01*
X10270129Y-11603155D01*
X10298700Y-11588869D01*
X10327272Y-11588869D01*
X10427272Y-11788869D02*
X10427272Y-11588869D01*
X10427272Y-11488869D02*
X10412986Y-11503155D01*
X10427272Y-11517441D01*
X10441557Y-11503155D01*
X10427272Y-11488869D01*
X10427272Y-11517441D01*
X10612986Y-11788869D02*
X10584414Y-11774583D01*
X10570129Y-11746012D01*
X10570129Y-11488869D01*
X10770129Y-11788869D02*
X10741557Y-11774583D01*
X10727272Y-11746012D01*
X10727272Y-11488869D01*
X11112986Y-11788869D02*
X11112986Y-11488869D01*
X11212986Y-11703155D01*
X11312986Y-11488869D01*
X11312986Y-11788869D01*
X11584414Y-11788869D02*
X11584414Y-11631726D01*
X11570129Y-11603155D01*
X11541557Y-11588869D01*
X11484414Y-11588869D01*
X11455843Y-11603155D01*
X11584414Y-11774583D02*
X11555843Y-11788869D01*
X11484414Y-11788869D01*
X11455843Y-11774583D01*
X11441557Y-11746012D01*
X11441557Y-11717441D01*
X11455843Y-11688869D01*
X11484414Y-11674583D01*
X11555843Y-11674583D01*
X11584414Y-11660298D01*
X11727271Y-11588869D02*
X11727271Y-11888869D01*
X11727271Y-11603155D02*
X11755843Y-11588869D01*
X11812986Y-11588869D01*
X11841557Y-11603155D01*
X11855843Y-11617441D01*
X11870129Y-11646012D01*
X11870129Y-11731726D01*
X11855843Y-11760298D01*
X11841557Y-11774583D01*
X11812986Y-11788869D01*
X11755843Y-11788869D01*
X11727271Y-11774583D01*
X11998700Y-11760298D02*
X12012986Y-11774583D01*
X11998700Y-11788869D01*
X11984414Y-11774583D01*
X11998700Y-11760298D01*
X11998700Y-11788869D01*
X11998700Y-11603155D02*
X12012986Y-11617441D01*
X11998700Y-11631726D01*
X11984414Y-11617441D01*
X11998700Y-11603155D01*
X11998700Y-11631726D01*
M02*
